<?xml version="1.0" encoding="utf-8"?>
<!-- Generator: Adobe Illustrator 18.0.0, SVG Export Plug-In . SVG Version: 6.00 Build 0)  -->
<svg version="1.2" baseProfile="tiny" id="Layer_1" xmlns="http://www.w3.org/2000/svg" xmlns:xlink="http://www.w3.org/1999/xlink"
	 x="0px" y="0px" viewBox="0 0 82.504 108.977" xml:space="preserve">
<g>
	<g>
		<path fill="#FC636B" d="M63.982,6.072C64.23,4.051,63.792,2.009,64.14,0c0.064,0.225,0.19,0.673,0.254,0.898l0.456-0.266
			c0.029,0.559,0.058,1.117,0.085,1.676l0.222-0.129c0.006,0.924,0.044,1.848,0.07,2.776l0.216-0.146c0,0.749,0.009,1.5,0.038,2.249
			c0.252,0.214,0.5,0.43,0.746,0.652l0.126,0.097l0.129,0.12c0.462,0.994,0.19,2.088,0.135,3.132l-0.202-0.067
			c-0.026,0.506-0.061,1.009-0.085,1.515l-0.205-0.003c-0.149,2.907-0.102,5.82-0.056,8.727c0.216,2.079,0.895,4.124,0.608,6.238
			l0.266-0.105c0.009,0.611,0.012,1.225,0.006,1.837l0.322-0.044l-0.018,0.377c0.088-0.018,0.26-0.05,0.348-0.067
			c0.687,0.366,1.503,0.386,2.191,0.003c0.088-0.003,0.26-0.009,0.348-0.015l-0.018-0.357l0.409,0.079l-0.082-0.43
			c0.088,0.006,0.26,0.018,0.345,0.02c-0.02,0.33-0.038,0.661-0.056,0.991l-0.366-0.088l0.135,0.392l-0.228-0.067
			c-0.114,0.105-0.348,0.319-0.462,0.424l0.088,0.17c-0.687,0.012-1.372,0.029-2.059,0.058c-0.015,0.374-0.029,0.749-0.041,1.123
			l-0.836,0.146l0.951,0.225l-0.246,0.491c0.126,0.006,0.371,0.02,0.497,0.026c-0.023,0.146-0.067,0.439-0.088,0.585
			c0.149,0.003,0.447,0.006,0.597,0.009c0.026,0.734,0.023,1.462,0.044,2.199l-0.453-1.652c0.058,0.798,0.135,1.6,0.193,2.401
			l0.249-0.091c0.044,0.974-0.006,1.951-0.032,2.925l-0.31-0.386c0.018,0.292,0.047,0.874,0.064,1.164l-0.328-0.254
			c0.015,0.345,0.044,1.035,0.061,1.38l-0.371-0.462c0.018,0.529,0.029,1.059,0.041,1.591l0.731-0.079
			c-0.175,0.137-0.521,0.415-0.696,0.553l0.576-0.003l-0.058,0.436c0.164-0.032,0.497-0.097,0.664-0.129
			c-0.038,0.164-0.114,0.491-0.149,0.655l0.447-0.097l-0.064,0.45c0.149-0.044,0.447-0.129,0.597-0.173l-0.07,0.383
			c0.638-0.02,1.275-0.038,1.913-0.058c-0.056,0.316-0.111,0.635-0.164,0.951c-0.126-0.02-0.383-0.061-0.509-0.085l0.035,0.401
			l-0.383-0.061l0.015,0.383c-0.135-0.035-0.401-0.105-0.535-0.14l-0.056,0.427c-0.137-0.038-0.418-0.114-0.556-0.149
			c0.003,0.085,0.012,0.26,0.018,0.348c-0.319,0.015-0.953,0.05-1.269,0.064l0.155,0.33c-0.181-0.029-0.544-0.091-0.728-0.12
			c0.018,0.137,0.05,0.415,0.067,0.553c-0.427,0.015-0.854,0.032-1.278,0.056l0.307-0.29c-0.591,0.006-1.179,0.012-1.767,0.012
			l0.278-0.304c-0.374,0.012-0.749,0.02-1.123,0.032L64.338,46c-0.152,0.058-0.456,0.173-0.605,0.231l0.064-0.45l-0.401,0.126
			l0.032-0.418c-0.132,0.012-0.395,0.035-0.526,0.047c-0.023-0.228-0.067-0.681-0.091-0.91c-0.132,0.015-0.392,0.041-0.524,0.056
			c-0.003-0.161-0.003-0.48-0.006-0.638l-0.325,0.02c0.015-0.231,0.041-0.696,0.056-0.927c-0.178,0.018-0.535,0.056-0.714,0.073
			c0.31-1.126,0.023-2.252-0.348-3.325c-0.632,0.714-0.459,1.67-0.509,2.533c-0.132-0.058-0.392-0.173-0.524-0.228
			c-0.006,0.825,0.015,1.65,0.053,2.477c-0.243-0.19-0.731-0.57-0.974-0.76c0.026-0.102,0.082-0.307,0.108-0.409
			c-0.524-0.006-1.047-0.015-1.568-0.026c0.035-0.146,0.111-0.439,0.146-0.582l-0.369,0.07c-0.061-1.173-0.058-2.346-0.079-3.516
			c-0.114,0-0.348,0-0.462,0c-0.029,0.386-0.058,0.772-0.085,1.161l-0.173-0.029c-0.132,0.684-0.322,1.357-0.635,1.98
			c0,0.088,0.003,0.26,0.006,0.348L55.564,42.9c-0.009,0.319-0.015,0.635-0.02,0.953l-0.281-0.143
			c-0.006,0.249-0.018,0.746-0.02,0.994l-0.19-0.058c-0.149,0.503-0.328,0.997-0.477,1.5l-0.199-0.073
			c-0.006,0.237-0.015,0.714-0.02,0.953c-0.061-0.015-0.181-0.044-0.243-0.058c-0.012,0.31-0.035,0.93-0.047,1.24l-0.249-0.076
			c-0.023,0.407-0.047,0.813-0.067,1.223l-0.173-0.064c-0.079,0.354-0.161,0.708-0.26,1.059c-0.155,0.775-0.333,1.553-0.635,2.29
			c-0.064,0.316-0.129,0.635-0.193,0.951c-0.091,0.339-0.173,0.679-0.249,1.021c-0.053-0.006-0.158-0.015-0.211-0.02
			c-0.006,0.398-0.006,0.796-0.009,1.196l0.333-0.047l-0.058,0.24c0.646,0.681,1.313,1.345,1.942,2.044l0.173,0.05l0.023,0.155
			c0.222,0.237,0.445,0.48,0.664,0.725l0.073-0.012c0.099,0.108,0.301,0.325,0.401,0.433l-0.076,0.243l0.243-0.082
			c0.105,0.099,0.313,0.304,0.418,0.407l-0.047,0.222l0.351-0.035l-0.067,0.357l0.222-0.07c0.099,0.105,0.301,0.313,0.404,0.415
			l-0.035,0.208l0.345-0.018l-0.061,0.211c0.105,0.102,0.31,0.307,0.412,0.409l0.211-0.053l-0.032,0.33l0.199,0.032
			c0.272,0.333,0.553,0.658,0.836,0.986c0.325,0.316,0.646,0.635,0.983,0.939c0.003,0.094,0.009,0.278,0.012,0.369l0.237-0.026
			c0.102,0.105,0.31,0.319,0.412,0.424l-0.041,0.076c0.102,0.102,0.307,0.31,0.409,0.412l0.047,0.067
			c0.474,0.521,0.977,1.015,1.477,1.518c0.404,0.433,0.807,0.872,1.182,1.337c0.097,0.009,0.287,0.026,0.38,0.035
			c0,0.132-0.003,0.398-0.003,0.529l0.374-0.009l-0.082,0.374l0.225-0.088c0.108,0.105,0.319,0.322,0.427,0.43l-0.082,0.24
			l0.389-0.102l-0.099,0.377l0.369-0.073l-0.07,0.354l0.342-0.038l-0.032,0.333l0.225-0.023c0.07,0.094,0.208,0.284,0.278,0.38
			c0.202,0.211,0.407,0.424,0.611,0.641c0.266,0.325,0.538,0.652,0.798,0.986l0.205,0.015l-0.082,0.342l0.181,0.02
			c0.211,0.26,0.43,0.518,0.652,0.772c0.012,0.064,0.029,0.193,0.041,0.257c0.278,0.407,0.556,0.816,0.854,1.214
			c0.003,0.088,0.012,0.266,0.015,0.357l0.228-0.035c0.088,0.342,0.184,0.681,0.292,1.018c0.263,0.506,0.518,1.018,0.758,1.535
			c0.158,0.357,0.316,0.714,0.477,1.073c0.035,0.225,0.073,0.453,0.114,0.681c0.167,0.447,0.313,0.904,0.465,1.363
			c0.029,0.371,0.061,0.743,0.094,1.114l0.231-0.079c0.02,0.515,0.044,1.032,0.067,1.55l0.243-0.102c0,0.33,0,0.664,0,0.997
			l0.26-0.097c0.032,0.494,0.067,0.989,0.102,1.483l0.161-0.02c0.135,0.807,0.354,1.6,0.439,2.419
			c0.047-0.02,0.143-0.067,0.19-0.088c0.018,0.31,0.053,0.927,0.07,1.234l0.228-0.091c0.018,0.409,0.038,0.822,0.061,1.234
			l0.219-0.02c0.02,0.506,0.05,1.009,0.07,1.518l0.164-0.07c0.079,0.26,0.24,0.787,0.319,1.05c0.035,0.363,0.067,0.725,0.099,1.094
			l0.181-0.091c0.047,0.354,0.099,0.708,0.161,1.062c0.214,0.62,0.231,1.281,0.269,1.933c0.123-0.026,0.371-0.076,0.494-0.099
			l-0.015,0.389l0.354-0.067l0.044,0.181c0.679,0.541,1.31,1.144,1.828,1.846l0.167,0.079c0.009,0.097,0.026,0.287,0.035,0.383
			c0.231,0.196,0.462,0.398,0.69,0.602c0.146,0.117,0.436,0.345,0.579,0.462c0.105-0.012,0.31-0.029,0.412-0.041l-0.009,0.392
			l0.386-0.117l-0.05,0.401c0.137-0.029,0.412-0.088,0.55-0.117l0.056,0.412c0.135-0.032,0.407-0.097,0.541-0.129l-0.029,0.383
			l0.357-0.061c0.035,0.38,0.076,0.76,0.114,1.141c0.117,0.006,0.351,0.018,0.465,0.023c0.02,0.518,0.035,1.035,0.041,1.556
			c-0.164-0.02-0.497-0.058-0.664-0.079l0.091,0.328c-0.252,0.003-0.752,0.006-1.003,0.006l0.132,0.272
			c-2.077,0.064-4.253,0.325-6.165-0.681l-0.064-0.082c-0.564-0.374-1.065-0.831-1.535-1.31c-0.825-0.05-1.699,0.152-2.468-0.231
			c-0.085,0-0.257,0.006-0.342,0.006l0.012-0.304c-0.237-0.012-0.711-0.041-0.951-0.053l0.094-0.369l-0.336,0.181
			c0.018-1.024,0.026-2.047,0.003-3.068c-0.149,0.023-0.445,0.07-0.591,0.094v-0.333c-0.158,0.012-0.477,0.035-0.638,0.047
			c0.012-0.152,0.032-0.456,0.041-0.608l-0.275,0.038c-0.009-0.24-0.023-0.719-0.029-0.959l-0.377,0.006
			c0.053-0.129,0.161-0.386,0.214-0.512c-0.07-0.012-0.208-0.032-0.278-0.044c-0.161-0.667-0.407-1.31-0.676-1.942l-0.07-0.231
			c-0.17-0.377-0.33-0.76-0.488-1.138c-0.193-0.605-0.415-1.202-0.638-1.796c-0.018-0.067-0.053-0.202-0.073-0.266
			c-0.129-0.351-0.246-0.705-0.354-1.059l-0.097,0.006c-0.14-0.503-0.304-0.994-0.442-1.495l-0.19,0.026
			c-0.015-0.228-0.044-0.687-0.058-0.915l-0.26,0.082c-0.003-0.237-0.012-0.714-0.018-0.951c-0.038,0.012-0.117,0.038-0.155,0.05
			c-0.111-0.275-0.333-0.828-0.442-1.103c0.023-0.088,0.07-0.263,0.094-0.348l-0.342,0.006c-0.006-0.24-0.02-0.717-0.026-0.956
			l-0.164,0.07c-0.117-0.377-0.243-0.749-0.38-1.117l-0.053-0.164c-0.345-0.834-0.608-1.693-0.951-2.524l-0.263,0.018l0.035-0.225
			c-0.471-0.366-0.927-0.746-1.404-1.1l-0.07-0.076c-0.374-0.257-0.737-0.526-1.106-0.781l-0.05-0.091
			c-0.521-0.398-1.021-0.816-1.547-1.202c-0.401-0.292-0.79-0.594-1.179-0.895c-0.345-0.246-0.69-0.494-1.038-0.734l0.003-0.225
			l-0.333,0.053l-0.023-0.196c-0.336-0.254-0.661-0.518-0.991-0.775c-0.29-0.219-0.576-0.433-0.863-0.649
			c-0.132-0.12-0.395-0.363-0.526-0.486c-0.067-0.012-0.205-0.035-0.272-0.05c-0.252-0.222-0.506-0.442-0.766-0.655l-0.041-0.187
			c-0.088-0.003-0.263-0.012-0.351-0.018c-0.249-0.228-0.503-0.447-0.758-0.667l-0.082-0.064c-0.371-0.257-0.731-0.529-1.097-0.79
			l-0.018-0.146c-0.155-0.097-0.468-0.295-0.623-0.392l-0.023-0.135c-0.43-0.287-0.854-0.582-1.287-0.857
			c-0.228-0.214-0.45-0.43-0.67-0.646c-0.091-0.003-0.269-0.009-0.36-0.012l0.029-0.254c-0.313-0.155-0.623-0.31-0.933-0.465
			l0.079-0.114c-0.114-0.094-0.345-0.284-0.459-0.377l-0.216,0.07L44.38,67.88c-0.178-0.097-0.535-0.287-0.714-0.38
			c-0.053-0.023-0.155-0.07-0.208-0.094c-0.556-0.202-1.132-0.301-1.726-0.304c0.193,0.316,0.579,0.945,0.769,1.258l0.067,0.018
			c0.149,0.345,0.307,0.684,0.462,1.03c0.214,0.377,0.421,0.758,0.629,1.144c0.275,0.506,0.55,1.015,0.819,1.527
			c0.225,0.494,0.447,0.991,0.649,1.497c0.067,0.02,0.205,0.064,0.275,0.085c-0.05,0.135-0.146,0.404-0.196,0.538l0.38-0.088
			c0.012,0.319,0.035,0.956,0.047,1.278c-0.307-0.009-0.924-0.023-1.231-0.032l0.009-0.342c-0.129,0.023-0.389,0.067-0.518,0.088
			l-0.073-0.386c-0.132,0.02-0.398,0.061-0.529,0.082l-0.056-0.386c-0.132,0.026-0.398,0.073-0.529,0.099l-0.009-0.369l-0.366,0.108
			l0.012-0.371c-0.132,0.018-0.395,0.058-0.529,0.079l-0.05-0.409c-0.132,0.023-0.389,0.07-0.521,0.094l0.018-0.377l-0.38,0.094
			l0.018-0.366c-0.135,0.02-0.404,0.061-0.541,0.085L40.3,72.656c-0.129,0.032-0.389,0.097-0.518,0.129l-0.006-0.272
			c-0.307-0.146-0.614-0.292-0.918-0.436l-0.003-0.246c-0.085,0-0.252,0-0.336,0c-0.497-0.36-1.012-0.69-1.527-1.015
			c-0.415-0.099-0.831-0.193-1.24-0.298c-0.772-0.132-1.553-0.137-2.331-0.117c-1.079,0.319-1.989,0.977-2.898,1.609
			c-0.284,0.322-0.562,0.646-0.828,0.983L29.61,73.04c-0.541,0.839-1.1,1.67-1.647,2.507c-0.123,0.14-0.366,0.418-0.488,0.559
			c0.009,0.105,0.026,0.316,0.035,0.421l-0.377,0.044c0.018,0.132,0.053,0.395,0.067,0.526l-0.383-0.023l0.099,0.371l-0.371,0.003
			c0.02,0.126,0.061,0.38,0.079,0.509l-0.383,0.058c0.012,0.135,0.035,0.404,0.047,0.541c-0.143,0.012-0.433,0.041-0.576,0.056
			c0.006,0.135,0.018,0.409,0.023,0.547l-0.371-0.023l0.105,0.371l-0.374-0.032c0.009,0.132,0.026,0.398,0.035,0.529
			c-0.31,0.026-0.927,0.073-1.237,0.097c-0.076-1.217,0.02-2.433,0.067-3.647l0.214,0.076c-0.02-1.612,0.155-3.232-0.032-4.84
			c-0.058,0.202-0.181,0.6-0.24,0.801c-0.126-0.032-0.371-0.097-0.494-0.129l0.003,0.407l-0.386-0.061l0.105,0.214
			c-0.111,0.114-0.339,0.342-0.453,0.453l-0.205-0.114l0.012,0.377c-0.091,0.006-0.278,0.012-0.369,0.018
			c-0.225,0.243-0.45,0.486-0.679,0.728l-0.056,0.137l-0.342-0.035l0.02,0.342l-0.19,0.018c-0.252,0.26-0.506,0.521-0.763,0.778
			c-0.073,0.07-0.216,0.208-0.29,0.278c-0.424,0.491-0.863,0.971-1.263,1.483l-0.091,0.015c-0.143,0.316-0.29,0.632-0.427,0.951
			l-0.196-0.099c-0.041,0.915-0.07,1.834-0.064,2.752l-0.225-0.152c0.003,0.886-0.018,1.772-0.076,2.662l-0.363-0.62
			c0.328,2.001,0.097,4.013,0.102,6.025l-0.211-0.117c0.047,2.273-0.108,4.545-0.114,6.82l-0.211-0.149
			c0.018,1.012,0,2.027-0.047,3.039l-0.371-0.135l0.132,0.36c-0.225,0.026-0.676,0.079-0.904,0.105
			c-0.009,0.325-0.018,0.652-0.023,0.983c0.187,0.354,0.369,0.714,0.55,1.073c0.006,0.772,0.02,1.544,0.032,2.319l0.275-0.079
			c0.082,0.892,0.117,1.793,0.044,2.688l-0.398-0.181l0.085,0.29c-0.257,0.097-0.772,0.292-1.032,0.389
			c-1.413,0.196-2.837,0.152-4.255,0.061l0.05,0.202c-0.798,0.547-1.626,1.041-2.471,1.509c-0.076,0.02-0.231,0.064-0.31,0.085
			c-0.439,0.149-0.886,0.263-1.337,0.366l0.023,0.111c-0.696,0.018-1.392,0.056-2.088,0.085c0.012,0.058,0.032,0.175,0.044,0.231
			c-0.895,0.012-1.787,0.009-2.679-0.003c0.012-0.064,0.032-0.196,0.044-0.26c-0.234-0.006-0.702-0.018-0.933-0.026l0.085-0.246
			c-0.243-0.009-0.722-0.029-0.962-0.038l0.114-0.374l-0.339,0.167c0-0.175,0-0.524-0.003-0.699l0.33,0.097l-0.079-0.389
			c0.137,0.009,0.409,0.023,0.547,0.032c0.035-0.404,0.064-0.807,0.094-1.208l0.281,0.009c-0.038-0.137-0.117-0.415-0.155-0.556
			l0.436,0.091l-0.067-0.354c0.249-0.006,0.74-0.018,0.986-0.023l-0.111-0.158c0.38-0.135,0.758-0.281,1.132-0.433
			c0.088,0.018,0.263,0.053,0.351,0.07v-0.339c0.152-0.012,0.462-0.032,0.614-0.044c0.26-0.225,0.521-0.45,0.781-0.67
			c0.591-1.05,1.492-1.854,2.29-2.735l0.184-0.044l-0.064-0.363l0.231,0.091c0.108-0.102,0.322-0.31,0.43-0.415l-0.041-0.231
			c0.143,0.006,0.43,0.018,0.573,0.023c0.009-0.266,0.026-0.798,0.035-1.065c-0.307-0.17-0.611-0.336-0.915-0.503
			c-0.023-1.065,0.018-2.126,0.041-3.188l0.234,0.149c0.029-1.03,0.088-2.059,0.064-3.089l0.211,0.158
			c0.009-1.296,0.07-2.591,0.114-3.887l0.313,1.755c-0.298-1.96-0.012-3.937-0.05-5.908l0.216,0.14
			c0.079-1.193,0.035-2.384-0.058-3.574c0.105,0.801,0.205,1.603,0.295,2.41c0.061-1.495,0.102-2.986,0.146-4.478l0.178,0.015
			c0.006-1.085,0.041-2.17,0.076-3.252l0.211,0.047c0.035-0.494,0.07-0.989,0.108-1.483l0.216,0.029
			c0.023-0.263,0.05-0.521,0.076-0.781c0.17-0.38,0.333-0.76,0.497-1.141c0.269-0.582,0.538-1.164,0.807-1.746
			c0.532-0.845,1.114-1.652,1.693-2.463l0.211,0.006l0.029-0.199c0.88-0.793,1.723-1.629,2.588-2.439
			c0.316-0.316,0.635-0.632,0.953-0.945c0.111,0.003,0.336,0.015,0.447,0.02c0.018-0.143,0.053-0.433,0.07-0.576
			c0.137,0.009,0.409,0.026,0.544,0.032l-0.035-0.383l0.363,0.094c-0.009-0.097-0.023-0.292-0.032-0.389
			c0.132,0.009,0.398,0.026,0.532,0.035c0.006-0.135,0.02-0.409,0.026-0.544l0.36,0.032l-0.053-0.231
			c0.532-0.401,1.053-0.816,1.594-1.205c0.453-0.366,0.886-0.76,1.29-1.182c0.085-0.009,0.254-0.029,0.339-0.038l0.038-0.208
			c0.374-0.266,0.74-0.547,1.117-0.81l0.038-0.222c0.14,0.006,0.427,0.02,0.57,0.026c-0.015-0.418-0.029-0.836-0.064-1.252
			c-0.137-0.146-0.415-0.439-0.553-0.585c0.018-0.117,0.053-0.348,0.073-0.465L23.31,56.62c0.023-0.132,0.076-0.398,0.102-0.529
			l-0.389-0.056c0.023-0.137,0.073-0.409,0.097-0.547l-0.401-0.029c0.032-0.137,0.097-0.412,0.129-0.55l-0.407-0.044
			c0.032-0.14,0.094-0.418,0.126-0.559l-0.409-0.02c0.026-0.137,0.079-0.409,0.105-0.547l-0.407-0.05
			c0.029-0.137,0.088-0.409,0.114-0.544l-0.392-0.044c0.029-0.137,0.085-0.409,0.114-0.547l-0.36-0.032
			c0.003-0.102,0.009-0.313,0.012-0.415c-0.462-0.763-0.863-1.562-1.261-2.357c-0.173-0.269-0.342-0.535-0.515-0.801
			c-0.126-0.357-0.257-0.714-0.377-1.073l-0.243,0.035l0.082-0.348l-0.237-0.02c-0.167-0.48-0.348-0.951-0.503-1.433l-0.287-0.041
			l0.193-0.471c-0.12-0.029-0.354-0.088-0.471-0.117l0.143-0.465c-0.102-0.023-0.307-0.073-0.407-0.099
			c-0.003-0.064-0.003-0.196-0.006-0.26c-0.082-0.415-0.252-1.243-0.333-1.655c0.784,0.971,1.977,1.442,2.931,2.214
			c0.088,0,0.266,0.003,0.357,0.006l0.026,0.328l0.363-0.073l-0.023,0.38c0.135-0.023,0.401-0.067,0.532-0.088l0.035,0.407
			c0.135-0.023,0.401-0.076,0.532-0.099l0.058,0.424l0.503-0.126c0.006,0.102,0.015,0.307,0.02,0.409l0.348-0.12l0.003,0.377
			c0.135-0.02,0.401-0.058,0.535-0.079l-0.015,0.366l0.193-0.009c0.57,0.386,1.182,0.705,1.778,1.047
			c0.807,0.17,1.696,0.278,2.401-0.254c0.143-0.392,0.316-0.775,0.468-1.161l0.161,0.132c-0.015-0.541-0.023-1.079-0.029-1.62
			l-0.231,0.17c-0.026-0.567-0.064-1.138-0.105-1.705c-0.439-0.129-0.874-0.266-1.302-0.421l-0.175-0.026
			c-0.36-0.155-0.722-0.298-1.085-0.43c0.073-0.573-0.196-1.392,0.588-1.612l-0.532,0.05c-0.018-0.819-0.006-1.641-0.012-2.46
			l0.246,0.07c-0.003-0.155-0.009-0.462-0.012-0.617c0.152,0.023,0.459,0.067,0.614,0.091l0.044-0.363l0.538,0.085
			c0-0.325,0.003-0.971,0.003-1.296l-0.263,0.085c-0.02-0.521-0.041-1.041-0.053-1.559l-0.184,0.041
			c-0.029-0.611-0.067-1.22-0.088-1.828L26.1,33.825c-0.02-0.722-0.064-1.442-0.094-2.161l-0.208,0.155
			c-0.032-0.699-0.085-1.395-0.137-2.091l-0.208,0.05c-0.009-0.816-0.053-1.632-0.079-2.451L25.2,27.457
			c-0.023-1.217-0.401-2.387-0.427-3.603c-0.038,0.015-0.117,0.041-0.158,0.053c-0.07-0.535-0.14-1.07-0.263-1.597
			c-0.061-0.652-0.117-1.304-0.161-1.957l-0.31-0.012l0.132-0.407c-0.216-0.304-0.427-0.611-0.646-0.915l0.085-0.363l-0.412-0.064
			c0.029-0.137,0.082-0.409,0.108-0.544l-0.392-0.047c0.02-0.135,0.061-0.404,0.082-0.538l-0.24-0.047
			c-0.164-0.471-0.348-0.933-0.509-1.404l-0.266-0.032c0.029-0.129,0.094-0.389,0.123-0.521l-0.263-0.026
			c-0.155-0.345-0.313-0.69-0.474-1.032c-0.225-0.421-0.439-0.848-0.632-1.287l-0.161-0.07c0.082-0.225,0.167-0.447,0.252-0.67
			c-0.006-0.915,0.044-1.834,0.214-2.735c0.041,0.216,0.12,0.649,0.158,0.866l0.357-0.167l-0.108,0.401l0.38-0.02
			c-0.009,0.14-0.032,0.421-0.041,0.562c0.143,0.018,0.43,0.05,0.576,0.064c-0.018,0.14-0.05,0.418-0.064,0.556l0.24-0.053
			c0.105,0.114,0.319,0.342,0.424,0.456l-0.044,0.149c0.404,0.02,0.804,0.041,1.208,0.064c0.003,0.234,0.009,0.699,0.012,0.933
			l0.36-0.167l-0.085,0.436c0.14-0.047,0.421-0.137,0.559-0.184l-0.041,0.418l0.366,0.018c-0.02,0.143-0.058,0.43-0.079,0.57
			c0.225,0.009,0.676,0.026,0.901,0.035c0.02,0.216,0.061,0.649,0.085,0.866l0.36-0.058l-0.135,0.456
			c0.135-0.044,0.404-0.129,0.538-0.173c0.035,0.383,0.07,0.766,0.102,1.152c0.354,0.035,0.711,0.073,1.065,0.111
			c0.015,0.29,0.029,0.582,0.047,0.874l-0.351-0.129c0.032,0.161,0.099,0.477,0.135,0.638c-0.155,0.012-0.465,0.038-0.617,0.05
			c-0.018,0.088-0.047,0.263-0.061,0.348c-1,0.629-0.351,2.006-0.398,2.939c0.167-0.342,0.295-0.699,0.462-1.038
			c-0.129,1.009-0.07,2.021,0.003,3.033l0.252-0.073c0.009,0.427,0.023,0.854,0.032,1.284l0.231-0.126
			c0.006,0.541,0.02,1.085,0.023,1.626l0.216-0.205c0.058,0.755,0.175,2.264,0.234,3.018l0.354-2.205
			c-0.056,0.699-0.117,1.398-0.187,2.097c0.167,0.632,0.29,1.275,0.354,1.927l0.126-0.105c0.085,1.132,0.336,2.237,0.521,3.355
			c0.132,0.389,0.252,0.784,0.392,1.173c0.056,0.409,0.111,0.819,0.17,1.231c0.114,0.421,0.199,0.848,0.287,1.278
			c0.19,0.018,0.57,0.05,0.758,0.067c0.012,0.173,0.02,0.345,0.029,0.521c0.143-0.006,0.43-0.02,0.57-0.026
			c0.006,0.725-0.015,1.454-0.044,2.179c0.313-0.05,0.626-0.099,0.939-0.149c-0.009-0.082-0.02-0.243-0.029-0.325
			c0.129-0.307,0.369-0.588,0.354-0.939c0.02-1.512-0.012-3.024-0.006-4.536l0.181,0.061c0.246-0.953,0.518-1.898,0.857-2.822
			c0.158-0.395,0.325-0.784,0.491-1.176c0.193-0.591,0.36-1.193,0.535-1.79c0.085-0.26,0.254-0.781,0.339-1.041l0.175,0.05
			c0.009-0.304,0.018-0.605,0.026-0.91l0.26,0.038c0.009-0.231,0.026-0.699,0.032-0.933l0.26,0.035
			c0.006-0.31,0.015-0.62,0.02-0.927l0.26,0.091c0.018-0.415,0.038-0.831,0.058-1.246l0.336,0.018
			c-0.038-0.132-0.108-0.401-0.143-0.535l0.415,0.009l-0.111-0.407l0.231,0.123c0.117-0.108,0.354-0.322,0.471-0.43l-0.088-0.114
			c0.658-0.351,1.334-0.69,2.079-0.801l-0.038-0.137c0.5-0.02,1-0.044,1.497-0.064l-0.035-0.205
			c0.544-0.032,1.088-0.067,1.629-0.117c0.433-0.137,0.875-0.243,1.319-0.342l-0.006-0.123c0.257-0.032,0.512-0.064,0.769-0.099
			c0.249-0.094,0.749-0.284,1-0.377l-0.009-0.228c0.161,0.026,0.483,0.079,0.641,0.105c-0.009-0.515-0.023-1.03-0.041-1.541
			l-0.284,0.097c-0.006-0.325-0.012-0.646-0.018-0.971l-0.389,0.026c0.058-0.146,0.175-0.439,0.234-0.585l-0.33,0.02
			c-0.032-0.62-0.073-1.24-0.099-1.86l-0.211,0.111c-0.064-1.579-0.105-3.162-0.023-4.741c0.058,0.029,0.173,0.088,0.228,0.117
			c0.006-0.524,0.02-1.044,0.035-1.568l0.26,0.085c0.006-0.249,0.018-0.749,0.023-0.997l0.263,0.132
			c0.009-0.24,0.026-0.714,0.035-0.953l0.348-0.006c-0.041-0.132-0.123-0.395-0.164-0.526l0.415-0.05
			c-0.009-0.129-0.023-0.392-0.032-0.521l0.351-0.015l-0.073-0.345l0.202-0.018c0.175-0.33,0.357-0.658,0.538-0.989
			c0.38-0.354,0.76-0.708,1.141-1.062l0.447,0.056l-0.018-0.363c0.099,0.029,0.295,0.085,0.395,0.114L49.39,3.779
			c1.31-0.439,2.694-0.38,4.054-0.304c0.722,0.252,1.427,0.556,2.118,0.889l0.05,0.079c0.325,0.284,0.641,0.579,0.953,0.877
			c0.275,0.307,0.55,0.611,0.822,0.924c0.436,0.559,0.872,1.117,1.269,1.705c0.105,0.152,0.316,0.456,0.421,0.608L59.01,8.935
			c0.099,0.006,0.298,0.015,0.398,0.02l-0.152,0.386l0.287-0.123c0.231,0.503,0.193,1.693,0.977,1.556
			c0.076-0.86,0.272-1.974-0.632-2.477c0.003-0.214,0.003-0.638,0.006-0.851L59.627,7.61c0-0.33,0-0.664,0.003-0.994l-0.304,0.076
			c0-0.246,0-0.74,0-0.986c-0.07,0.029-0.208,0.088-0.275,0.117c0-0.243-0.003-0.725-0.003-0.968l-0.284,0.076l-0.009-0.933
			c0.231-0.003,0.696-0.012,0.93-0.015l-0.082,0.383l0.421-0.061c-0.056,0.143-0.167,0.433-0.222,0.576l0.401-0.038
			c0.006,0.237,0.015,0.711,0.018,0.951l0.263-0.07c0.009,0.228,0.029,0.687,0.038,0.915c0.243-0.003,0.486-0.009,0.728-0.015
			C61.692,5.49,63.09,6.195,63.982,6.072z M62.3,43.854c0.146-0.038,0.433-0.12,0.579-0.161c-0.02,0.187-0.058,0.559-0.076,0.743
			l0.424-0.175l-0.143,0.424c0.307-0.012,0.921-0.035,1.228-0.047c-0.167-0.073-0.503-0.214-0.673-0.287l0.047-0.29
			c-0.149,0.015-0.445,0.041-0.591,0.056c0.02-0.158,0.064-0.474,0.088-0.632L62.756,43.5c0.023-0.105,0.07-0.322,0.097-0.43
			c-0.222-0.164-0.667-0.494-0.886-0.658C62.072,42.891,62.186,43.374,62.3,43.854z"/>
	</g>
</g>
</svg>
