<?xml version="1.0" encoding="utf-8"?>
<!-- Generator: Adobe Illustrator 18.0.0, SVG Export Plug-In . SVG Version: 6.00 Build 0)  -->
<svg version="1.2" baseProfile="tiny" id="Layer_1" xmlns="http://www.w3.org/2000/svg" xmlns:xlink="http://www.w3.org/1999/xlink"
	 x="0px" y="0px" viewBox="0 0 142.94 269.555" xml:space="preserve">
<rect x="0.016" y="0" fill="none" width="142.907" height="269.555"/>
<g>
	<path fill="#E63B3B" d="M71.483,52.564c14.521,0,26.281-11.759,26.281-26.277C97.763,11.759,86.003,0,71.483,0
		C56.954,0,45.188,11.759,45.188,26.287C45.188,40.805,56.954,52.564,71.483,52.564L71.483,52.564z M71.483,52.564"/>
	<path fill="#E63B3B" d="M104.433,64.353c-1.851-4.067-5.842-6.408-10.034-6.491l-45.867-0.003
		c-4.192,0.086-8.161,2.427-10.005,6.494L1.039,146.476c-2.586,5.651-0.095,12.318,5.546,14.897
		c1.519,0.685,3.112,1.019,4.669,1.019c4.265,0,8.351-2.443,10.231-6.58l11.664-25.558l-10.158,47.822
		c-0.344,1.612,0.064,3.287,1.096,4.568c1.038,1.28,2.595,2.022,4.239,2.022h11.256v71.396c0,7.453,6.04,13.493,13.489,13.493
		c7.45,0,13.489-6.04,13.489-13.493v-71.396h9.849v71.396c0,7.453,6.039,13.493,13.486,13.493c7.45,0,13.489-6.04,13.489-13.493
		v-71.396h11.218c1.644,0,3.201-0.742,4.234-2.022c1.038-1.278,1.446-2.956,1.102-4.565l-10.183-47.943l11.715,25.676
		c1.883,4.134,5.966,6.58,10.237,6.58c1.561,0,3.143-0.334,4.663-1.019c5.644-2.58,8.131-9.247,5.548-14.897L104.433,64.353z
		 M104.433,64.353"/>
</g>
</svg>
