<?xml version="1.0" encoding="utf-8"?>
<!-- Generator: Adobe Illustrator 18.0.0, SVG Export Plug-In . SVG Version: 6.00 Build 0)  -->
<svg version="1.2" baseProfile="tiny" id="Layer_1" xmlns="http://www.w3.org/2000/svg" xmlns:xlink="http://www.w3.org/1999/xlink"
	 x="0px" y="0px" viewBox="0 0 49.352 104.94" xml:space="preserve">
<path fill="#FD9A00" d="M41.025,0.174c-1.277,1.015-2.794,1.643-4.164,2.51c-0.922,2.008-2.619,3.618-2.854,5.927
	c-1.075-1.397-1.255-3.16-1.272-4.851c-0.83-1.528-2.832-2.276-4.355-1.266c-3.815,2.843-4.939,7.864-8.273,11.122
	c-1.457,3.067-3.34,5.981-5.555,8.562c-0.775,1.997-2.292,3.585-3.269,5.479c0.502-1.517,0.786-3.165,1.861-4.415
	c0.677-0.731,0.84-1.85,0.251-2.69c-1.959-1.353-4.644-0.731-6.62,0.295c-1.932,0.911-3.471,3.105-2.587,5.266
	c0.333,0.213,0.988,0.638,1.321,0.851c-1.441,4.246-5.283,7.586-5.501,12.241c-0.191,2.881,2.783,5.206,5.545,4.366
	c2.614-1.201,3.853-4.017,5.539-6.183c1.954,0.802,3.411,2.499,5.474,2.958c-2.778,3.645-4.344,7.984-6.505,11.984
	c-2.227,5.386-3.869,11.029-4.6,16.819c0.071,3.695,1.146,7.247,1.877,10.838c1.282,4.197,3.558,7.973,5.659,11.799
	c0.093,1.239,0.327,2.461,0.595,3.678c-1.282,2.221-2.723,4.36-4.6,6.128c-0.922,0.78-0.333,2.396,0.857,2.461
	c3.231,0.475,6.636-0.404,9.141-2.532c0.082-0.235,0.246-0.699,0.327-0.933c1.855-0.142,3.143-1.413,4.371-2.663
	c0-0.835,0.033-1.67-0.016-2.505c-1.403-4.371-3.531-8.502-4.437-13.026c-0.699-3.383-2.952-6.128-4.077-9.305
	c-0.349-0.982-0.415-2.025-0.518-3.056c3.187-3.274,6.156-6.762,8.459-10.723c0.513,3.847,1.086,7.717,2.254,11.427
	c0.458,1.408-0.082,3.001,0.622,4.349c2.609,4.306,4.862,8.808,7.564,13.059c2.172,3.056,3.165,6.843,3.291,10.56
	c-0.202,1.828-0.9,3.667-0.229,5.49c2.308,1.162,5.19,0.999,7.187-0.715c1.113-1.834-0.087-3.978-0.104-5.943
	c0.453-0.349,0.911-0.688,1.37-1.031c-3.001-6.194-3.444-13.267-6.543-19.422c-0.731-1.632-1.806-3.078-2.565-4.693
	c-0.136-8.208,2.614-16.317,1.397-24.525c0.175-1.293,0.879-2.445,1.228-3.695c0.224-0.186,0.671-0.557,0.895-0.742
	c0.164-2.423,2.145-3.826,3.809-5.283c1.146-1.577,2.303-3.171,3.902-4.333c1.337-0.813,1.741-2.379,2.128-3.782
	c0.191-2.832-0.235-5.659-0.48-8.475c-0.562-1.348-1.828-2.237-2.472-3.536c-0.862-1.261-0.791-2.914-1.779-4.109
	c1.173-1.615,3.029-2.783,3.607-4.781c0.606-2.297,0.518-5.053-1.217-6.86C45.375,0.823,43.252-0.481,41.025,0.174z M29.718,6.788
	c1.473-0.797,1.528,1.151,2.046,2.046c0.284,0.9,1.141,1.397,1.817,1.976c-0.076,0.42-0.235,1.261-0.317,1.681
	c0.524,1.321,2.134,1.452,3.231,2.09c-2.265,0.649-4.573,1.119-6.816,1.823c-0.988,0.704-1.364,2.019-2.117,2.952
	c-1.075-1.468-1.965-3.056-3.04-4.524C26.291,12.174,27.688,9.255,29.718,6.788z M20.795,21.484
	c1.735,0.578,2.827,1.986,3.722,3.504c-1.184,2.123-1.588,4.53-2.123,6.865c-0.851,1.021-1.795,1.959-2.641,2.98
	c-1.151-0.213-2.287-0.497-3.4-0.868c-0.595-0.917-1.212-1.823-1.839-2.723c0.775-1.102,1.692-2.085,2.707-2.963
	c-0.022-0.262-0.071-0.786-0.093-1.048C18.209,25.228,19.578,23.405,20.795,21.484z"/>
</svg>
