<?xml version="1.0" encoding="utf-8"?>
<!-- Generator: Adobe Illustrator 18.0.0, SVG Export Plug-In . SVG Version: 6.00 Build 0)  -->
<svg version="1.2" baseProfile="tiny" id="Layer_1" xmlns="http://www.w3.org/2000/svg" xmlns:xlink="http://www.w3.org/1999/xlink"
	 x="0px" y="0px" viewBox="0 0 20.999 52.924" xml:space="preserve">
<g>
	<path fill="#FD9A00" d="M18.482,0.09c0.005-0.002,0.01-0.005,0.015-0.007C18.469,0.093,18.355,0.139,18.482,0.09z"/>
	<path fill="#FD9A00" d="M20.88,2.532c0.027-0.124,0.097-0.236,0.119-0.361c-0.021-0.103-0.01-0.217-0.062-0.311
		c-0.06-0.079-0.133-0.148-0.198-0.223c-0.112,0.036-0.224,0.076-0.337,0.108c-0.034-0.163-0.081-0.326-0.179-0.463
		c-0.074-0.035-0.153-0.061-0.233-0.075c-0.102,0.02-0.189,0.081-0.284,0.119c-0.068-0.126-0.169-0.233-0.319-0.251
		c-0.169,0.037-0.314,0.139-0.396,0.292c-0.17,0.13-0.215,0.358-0.182,0.561c-0.053-0.02-0.106-0.041-0.159-0.061
		c0.02-0.082,0.048-0.165,0.043-0.25c-0.004-0.148,0.075-0.29,0.035-0.438c-0.035-0.166,0.128-0.288,0.138-0.448
		c-0.003-0.073-0.024-0.144-0.025-0.217c0.02-0.107,0.082-0.205,0.086-0.314c-0.028-0.075-0.069-0.157-0.151-0.182
		c-0.097-0.054-0.191,0.023-0.279,0.064c0.009-0.003,0.009-0.003-0.015,0.007c-0.169,0.065-0.125,0.289-0.239,0.403
		c-0.379,0.461-0.102,1.083-0.315,1.565c-0.033,0.079-0.008,0.163-0.006,0.245c-0.026,0.142-0.095,0.272-0.134,0.41
		c-0.027,0.097,0.025,0.199-0.005,0.295c-0.063,0.206-0.158,0.401-0.217,0.608c-0.209-0.082-0.342-0.27-0.465-0.448
		c-0.095-0.147-0.268-0.205-0.379-0.334c-0.131-0.124-0.319-0.045-0.474-0.027c-0.116,0.014-0.151,0.131-0.185,0.224
		c0.084,0.147,0.213,0.258,0.329,0.379c0.079,0.127,0.126,0.271,0.205,0.397c0.282,0.138,0.463,0.413,0.617,0.677
		c0.082,0.061,0.17,0.114,0.245,0.186c0.112,0.096,0.277,0.097,0.381,0.205c0.056,0.048,0.12,0.087,0.174,0.139
		c0.121,0.15,0.331,0.161,0.501,0.223c-0.011,0.114-0.017,0.229-0.021,0.344c-0.095,0.257-0.018,0.54-0.088,0.804
		c-0.078,0.286,0.001,0.591-0.096,0.874c-0.066,0.262-0.161,0.515-0.267,0.764c-0.139,0.319-0.179,0.668-0.235,1.009
		c-0.116,0.679-0.544,1.244-0.716,1.906c-0.144,0.302-0.258,0.618-0.388,0.926c-0.228,0.301-0.386,0.656-0.411,1.036
		c0.003,0.209-0.184,0.356-0.197,0.562c0.005,0.299-0.257,0.5-0.32,0.783c-0.065,0.463-0.577,0.609-0.829,0.948
		c-0.146-0.076-0.297-0.144-0.458-0.185c0.159-0.498,0.027-1.025,0.099-1.532c0.037-0.248,0.268-0.38,0.388-0.583
		c0.353-0.559,0.333-1.326-0.053-1.864c-0.106-0.146-0.256-0.257-0.349-0.411c-0.112-0.395-0.162-0.883-0.538-1.121
		c-0.245-0.302-0.5-0.603-0.809-0.84c-0.567-0.348-1.233-0.565-1.903-0.518c-0.66-0.048-1.28,0.252-1.82,0.601
		C8.853,9.173,8.44,9.9,8.337,10.669c-0.195,0.37-0.121,0.807-0.072,1.206c-0.102,0.288-0.269,0.568-0.254,0.885
		c0.003,0.028,0.007,0.056,0.011,0.083c-0.01,0.01-0.019,0.019-0.029,0.029C7.89,12.95,7.78,13.019,7.67,13.085
		c-0.106,0.077-0.195,0.19-0.222,0.319c0.014,0.176-0.068,0.199-0.154,0.348c-0.092,0.203-0.125,0.287-0.232,0.485
		c-0.084,0.135-0.241,0.179-0.375,0.247c-0.043,0.006-0.087,0.005-0.13,0.01c-0.129,0.06-0.267,0.09-0.4,0.142
		c-0.105,0.052-0.228,0.033-0.332,0.087c-0.095,0.018-0.192-0.004-0.287,0.011c-0.065,0.02-0.122,0.068-0.192,0.064
		c-0.359,0.007-0.719,0.133-1.078,0.147c-0.213,0.125-0.468,0.162-0.695,0.22c-0.115,0.061-0.248,0.005-0.368,0.044
		c-0.223,0.076-0.454,0.12-0.673,0.21c-0.338,0.118-0.653,0.285-0.974,0.441c-0.299,0.107-0.572,0.268-0.86,0.398
		c-0.216,0.065-0.439,0.166-0.566,0.362C0.047,16.792-0.066,17,0.049,17.186c-0.01,0.152,0.059,0.287,0.091,0.433
		c0.049,0.071,0.096,0.143,0.134,0.22c0.113,0.126,0.235,0.245,0.359,0.36C1,18.444,1.423,18.587,1.839,18.724
		c0.26,0.048,0.506,0.154,0.764,0.208c0.462,0.173,0.938,0.302,1.415,0.422C4.1,19.4,4.192,19.399,4.283,19.408
		c0.138,0.095,0.313,0.012,0.463,0.06c0.127,0.084,0.283,0.029,0.425,0.05c0.071,0.036,0.109,0.135,0.2,0.123
		c0.143,0.022,0.299-0.034,0.428,0.047c0.159-0.007,0.311,0.073,0.417,0.189c0.122,0.128,0.252,0.249,0.374,0.377
		c0.067,0.067,0.086,0.167,0.16,0.228c0.213,0.186,0.32,0.454,0.441,0.701c0.04,0.176,0.132,0.338,0.145,0.52
		c0.053,0.102,0.02,0.226,0.099,0.319c-0.005,0.147,0.071,0.277,0.064,0.424c0.072,0.116,0.052,0.258,0.11,0.379
		c0.011,0.09-0.016,0.19,0.041,0.269c0.031,0.047,0.036,0.099,0.036,0.152c-0.005,0.046-0.009,0.091-0.015,0.137
		c-0.008,0.305,0.013,0.613-0.055,0.914c-0.031,0.728-0.117,1.455-0.246,2.172c-0.078,0.326,0.165,0.603,0.25,0.901
		c0.03,0.168,0.187,0.239,0.318,0.318c0.032,0.36,0.002,0.765-0.242,1.05c-0.099,0.266-0.17,0.544-0.258,0.815
		c0.052,0.472-0.265,0.884-0.259,1.352c0.009,0.167-0.125,0.286-0.2,0.422c-0.128,0.191-0.03,0.439-0.11,0.647
		c-0.152,0.447-0.266,0.907-0.452,1.342c-0.38,0.827-0.426,1.752-0.703,2.611c-0.178,0.523-0.355,1.053-0.389,1.609
		c-0.015,0.399-0.1,0.792-0.204,1.175c-0.155,0.535-0.048,1.097-0.085,1.644c-0.055,0.293-0.087,0.594-0.05,0.892
		c0.063,0.258,0.257,0.459,0.328,0.714c0.023,0.244-0.011,0.491,0.017,0.735c0.073,0.288,0.215,0.555,0.368,0.809
		c0.179,0.238,0.369,0.473,0.497,0.744c0.252,0.518,0.643,0.967,0.843,1.508c-0.008,0.851,0.252,1.679,0.586,2.453
		c0.099,0.176-0.02,0.366-0.047,0.546c-0.079,0.384-0.157,0.845-0.529,1.059c-0.475,0.294-0.874,0.687-1.261,1.085
		c-0.108,0.125-0.302,0.23-0.261,0.424c0.075,0.233,0.303,0.364,0.503,0.477c0.333,0.174,0.726,0.061,1.041-0.099
		c0.346-0.19,0.753-0.266,1.059-0.525c0.265-0.268,0.581-0.478,0.834-0.758c0.21-0.226,0.535-0.232,0.818-0.282
		c0.226-0.109,0.366-0.33,0.574-0.465c0.281-0.182,0.469-0.464,0.676-0.719c0.066-0.293-0.081-0.587-0.105-0.879
		c-0.068-0.745-0.336-1.447-0.524-2.165c-0.218-0.757-0.391-1.526-0.617-2.281c-0.17-0.52-0.275-1.064-0.511-1.56
		c-0.057-0.342-0.195-0.66-0.405-0.934c0.106-0.008,0.211-0.015,0.317-0.022c0.124-0.302,0.213-0.627,0.207-0.956
		c-0.009-0.362,0.077-0.73,0.268-1.039c0.204-0.34,0.438-0.676,0.516-1.072c0.185-0.877,0.689-1.635,0.985-2.472
		c0.139,0.576,0.081,1.19,0.309,1.746c0.073,0.218,0.216,0.411,0.268,0.635c-0.02,0.412-0.146,0.816-0.139,1.231
		c0.003,0.669,0.001,1.339,0.001,2.008c-0.017,0.171,0.099,0.307,0.173,0.45c0.11,0.197,0.145,0.424,0.181,0.644
		c0.024,0.182,0.139,0.333,0.196,0.505c0.014,0.205-0.079,0.4-0.07,0.605c-0.026,0.308,0.101,0.597,0.138,0.898
		c-0.035,0.254-0.142,0.497-0.134,0.758c0.006,0.233-0.015,0.464-0.055,0.694c-0.063,0.963,0.063,1.936-0.083,2.892
		c-0.06,0.438,0.094,0.85,0.164,1.275c0.224,0.199,0.17,0.501,0.244,0.765c-0.096,0.099-0.2,0.199-0.243,0.335
		c-0.161,0.469-0.303,0.944-0.436,1.421c0.035,0.092,0.069,0.196,0.152,0.259c0.255,0.13,0.55,0.135,0.818,0.226h0.34
		c0.237-0.07,0.484-0.093,0.718-0.173c0.344-0.104,0.594-0.377,0.896-0.558c0.188-0.1,0.273-0.318,0.313-0.513
		c-0.04-0.253-0.082-0.504-0.088-0.76c0.175-0.178,0.311-0.389,0.49-0.563c0.116-0.119,0.251-0.242,0.275-0.416
		c0.029-0.298,0.186-0.574,0.155-0.878c-0.034-0.36-0.114-0.714-0.19-1.067c-0.056-0.207,0.067-0.402,0.116-0.598
		c0.19-0.555,0.141-1.145,0.133-1.721c-0.009-0.377,0.048-0.759-0.036-1.13c-0.072-0.412,0.026-0.836-0.061-1.246
		c-0.054-0.234-0.015-0.475-0.052-0.71c-0.071-0.429-0.246-0.833-0.324-1.261c0.088-0.418,0.175-0.861,0.449-1.203
		c0.442-0.738,0.47-1.624,0.581-2.453c-0.013-0.432,0.061-0.857,0.096-1.286c0.133-0.547,0.306-1.087,0.354-1.651
		c0.078-0.244-0.045-0.547,0.15-0.744c0.388-0.441,0.517-1.081,0.386-1.646c-0.069-0.778-0.259-1.565-0.099-2.345
		c0.069-0.513-0.161-1.032-0.023-1.539c0.126-0.153,0.101-0.341,0.066-0.52c0.038-0.115,0.117-0.219,0.112-0.344
		c0.044-0.226-0.188-0.342-0.313-0.489c0.081-0.139,0.181-0.266,0.241-0.416c-0.05-0.343-0.177-0.678-0.141-1.03
		c0.042-0.486,0.14-0.967,0.205-1.45c0.019-0.48-0.012-0.96,0.01-1.439c0.057-0.317,0.139-0.631,0.151-0.954
		c0.111-0.489-0.016-0.998,0.103-1.486c0.106-0.594,0.135-1.201,0.279-1.789c0.115-0.649,0.423-1.237,0.618-1.861
		c0.138-0.45,0.282-0.9,0.37-1.363c0.189-0.494,0.483-0.941,0.727-1.409c0.216-0.529,0.403-1.076,0.494-1.642
		c0.066-0.442-0.09-0.918,0.122-1.332c0.214-0.464,0.208-0.983,0.319-1.473c0.118-0.531,0.179-1.072,0.251-1.61
		C20.82,7.512,20.72,7.175,20.709,6.83c0.026-0.253,0.097-0.503,0.073-0.76c0.015-0.297-0.216-0.574-0.125-0.868h-0.051
		c0.03-0.086,0.044-0.171,0.028-0.256c0.062-0.367,0.31-0.701,0.291-1.082c0.038-0.195,0.022-0.394,0.02-0.592
		C20.983,3.023,20.902,2.778,20.88,2.532z M7.104,16.286c-0.122-0.01-0.245-0.006-0.366-0.02c-0.147,0.026-0.306-0.026-0.443,0.05
		c-0.123,0.058-0.239-0.038-0.354-0.068c0.077-0.05,0.174-0.026,0.254-0.066c0.069-0.026,0.147-0.019,0.216-0.048
		c0.147-0.058,0.303-0.09,0.446-0.16c0.078-0.011,0.164,0.015,0.234-0.03c0.087-0.044,0.178-0.079,0.276-0.09
		c0.183-0.061,0.357-0.147,0.541-0.207c0.121-0.043,0.228-0.122,0.353-0.155c0.128-0.039,0.244-0.107,0.363-0.166
		c0.094-0.038,0.156-0.122,0.229-0.189c0.132-0.135,0.333-0.155,0.475-0.275c0.125-0.055,0.258-0.086,0.384-0.14
		c0.06-0.02,0.126-0.006,0.189-0.012c0.075-0.012,0.135-0.055,0.195-0.099c0.045,0.111,0.099,0.218,0.172,0.314
		c0.115,0.181,0.295,0.321,0.362,0.531c0.057,0.152,0.081,0.313,0.097,0.474c-0.112,0.002-0.223,0.004-0.334,0.006
		c-0.034,0.101-0.085,0.194-0.149,0.275c-0.107-0.001-0.214-0.008-0.321,0.001c-0.088,0.073-0.17,0.174-0.152,0.296
		c-0.073,0.007-0.146,0.021-0.205,0.067c-0.075-0.062-0.173-0.062-0.265-0.059c-0.107-0.01-0.188,0.073-0.276,0.12
		c-0.107-0.17-0.353-0.128-0.466-0.294c-0.088,0.052-0.189,0.073-0.279,0.121c-0.065-0.037-0.13-0.086-0.207-0.085
		c-0.139,0.01-0.29,0.041-0.42-0.026C7.472,16.321,7.268,16.399,7.104,16.286z M9.941,14.268c0.01-0.007,0.021-0.012,0.031-0.019
		c0.017,0.057,0.035,0.115,0.054,0.173L9.941,14.268z M13.529,10.014c-0.159-0.399-0.564-0.609-0.907-0.827
		C12.436,9.025,12.185,8.973,12,8.81c-0.161-0.028-0.321-0.066-0.478-0.109c-0.433,0.052-0.876,0.146-1.243,0.394
		c-0.208,0.167-0.455,0.275-0.662,0.443c-0.394,0.372-0.643,0.874-0.733,1.407c-0.092,0.219,0.019,0.437,0.042,0.658
		c-0.152-0.004-0.297-0.042-0.437-0.096c-0.023-0.199,0.045-0.372,0.15-0.534c-0.188-0.509,0.035-1.054,0.291-1.497
		C9.114,9.11,9.493,8.925,9.817,8.703c0.736-0.483,1.677-0.552,2.515-0.331c0.62,0.175,1.139,0.609,1.501,1.132
		c0.114,0.155-0.044,0.417,0.147,0.531c0.148,0.093,0.177,0.275,0.235,0.427c-0.229,0.025-0.449,0.102-0.68,0.103
		C13.531,10.381,13.54,10.198,13.529,10.014z M14.443,14.348c-0.07,0.282,0.101,0.64-0.133,0.861
		c-0.613-0.324-0.51-1.116-0.737-1.674c0.282-0.081,0.571,0.029,0.845-0.099C14.453,13.74,14.519,14.046,14.443,14.348z
		 M17.138,28.013c0.095,0.016,0.15,0.226,0.046,0.271C17.055,28.279,17.035,28.069,17.138,28.013z"/>
</g>
</svg>
