<?xml version="1.0" encoding="utf-8"?>
<!-- Generator: Adobe Illustrator 18.0.0, SVG Export Plug-In . SVG Version: 6.00 Build 0)  -->
<svg version="1.2" baseProfile="tiny" id="Layer_1" xmlns="http://www.w3.org/2000/svg" xmlns:xlink="http://www.w3.org/1999/xlink"
	 x="0px" y="0px" viewBox="0 0 51.566 107.215" xml:space="preserve">
<path fill="#3BE8B0" d="M9.453,0.13C9.007,0.119,8.567-0.073,8.118,0.03C7.296,0.22,6.483,0.466,5.726,0.841
	c-0.853,0.46-1.509,1.188-2.179,1.872C3.04,3.238,2.709,3.899,2.478,4.585c-0.283,0.88-0.792,1.723-0.718,2.681
	c0.067,1.244-0.094,2.516,0.265,3.728c0.204,0.923,0.784,1.693,1.094,2.573c0.033,0.883,0.26,1.757,0.15,2.643
	c-0.159,0.501-0.463,0.938-0.698,1.403c-0.377,0.698-0.589,1.474-0.996,2.155c-0.395,0.669-0.842,1.329-1.006,2.102
	c-0.15,0.674-0.401,1.32-0.536,1.996C-0.018,24.548,0,25.234,0.02,25.917c0.117,0.954,0.44,1.871,0.559,2.825
	c0.076,0.388,0.087,0.786,0.196,1.167c0.819,2.244,2.044,4.331,3.572,6.167c0.924,1.17,2.259,1.898,3.334,2.909
	c1.057,1.063,2.428,1.723,3.59,2.655c0.838,0.655,1.455,1.557,2.357,2.138c0.582,0.457,1.37,0.574,1.874,1.143
	c-0.143,0.235-0.286,0.472-0.429,0.709c0.286,0.561,0.401,1.234,0.906,1.657c0.31,0.355,0.818,0.674,0.769,1.207
	c-0.014,0.721,0.139,1.434,0.31,2.131c0.373,0.865,0.872,1.671,1.256,2.531c0.475,1.131,1.26,2.134,2.248,2.86
	c0.514,0.395,0.988,0.837,1.471,1.267c0.4,0.355,0.75,0.855,1.312,0.943c0.616-0.039,0.816-0.904,0.445-1.323
	c-0.237-0.325-0.576-0.57-0.761-0.933c-0.018-0.676-0.248-1.34-0.146-2.019c0.158-0.468,0.467-0.861,0.754-1.255
	c0.391,0.329,0,0.777-0.061,1.167c-0.075,0.539-0.027,1.089-0.034,1.632c0.381,0.146,0.87,0.162,1.113,0.533
	c0.339,0.499,0.763,1.023,0.683,1.667c-0.382,0.279-0.774,0.544-1.166,0.811c0.235,0.695,0.789,1.246,0.924,1.983
	c0.129,0.453-0.005,0.959,0.235,1.384c0.263,0.536,0.622,1.026,0.795,1.603c0.245,0.769,0.441,1.554,0.762,2.297
	c0.525,1.553,0.947,3.154,1.695,4.621c0.215,0.367,0.214,0.818,0.136,1.226c-0.22,0.535-0.635,1.033-0.546,1.651
	c-0.007,0.853,0.871,1.252,1.197,1.951c-0.395,0.005-0.792,0.02-1.166,0.158c-0.09,0.348-0.118,0.74-0.355,1.03
	c-0.385,0.366-0.92,0.527-1.289,0.914c-0.374,0.386-0.17,1.055-0.608,1.403c-0.501,0.463-1.041,0.902-1.402,1.493
	c-0.392,0.635-1.007,1.082-1.44,1.683c-0.416,0.554-0.669,1.207-1.084,1.761c-0.342,0.453-0.615,0.95-0.909,1.433
	c-0.314,0.57-1.071,0.591-1.475,1.068c-0.369,0.464-0.827,0.897-0.976,1.493c0.552,0.574,1.246,0.961,1.999,1.207
	c-0.14,0.656-0.723,1.052-1.074,1.588c-0.503,0.75-1.241,1.321-1.659,2.132c-0.199,0.385-0.418,0.784-0.804,1.011
	c-0.551,0.342-0.955,0.853-1.402,1.312c-0.322,0.342-0.656,0.684-0.878,1.104c0.204,0.52,0.54,0.995,0.944,1.38
	c0.483,0.344,1.049,0.565,1.504,0.957c-0.005,0.2-0.01,0.4-0.016,0.603c-0.484-0.167-0.995-0.212-1.504-0.193
	c-0.216,0.34-0.371,0.763-0.212,1.159c0.265,0.532,0.797,0.85,1.157,1.31c0.078,0.414-0.082,0.921,0.287,1.233
	c0.738,0.622,1.29,1.421,1.988,2.085c0.434,0.407,0.542,1.014,0.827,1.512c0.49,0.325,1.083,0.469,1.619,0.71
	c1.588,0.464,3.263,0.245,4.893,0.325c0.987,0.155,2.071,0.237,2.998-0.195c0.155-0.361,0.101-0.811-0.097-1.151
	c-0.124-0.288-0.38-0.603-0.229-0.925c0.26-0.12,0.562-0.155,0.786-0.337c0.589-0.812,0.751-1.833,1.187-2.723
	c0.486-1.022,0.944-2.055,1.397-3.092c0.905-1.9,1.98-3.72,2.739-5.686c0.532-1.124,1.236-2.159,1.747-3.294
	c0.637-1.053,0.977-2.247,1.58-3.317c0.303-0.596,0.64-1.173,1.018-1.724c0.437-0.629,0.739-1.336,1.112-2
	c0.857-1.603,1.683-3.232,2.228-4.971c0.815-1.796,0.876-3.841,0.616-5.768c-0.035-1.029-0.521-1.958-0.769-2.941
	c-0.214-0.874-0.607-1.686-0.855-2.547c-0.675-2.204-1.702-4.3-2.143-6.574c-0.437-1.882-1.174-3.674-1.636-5.549
	c-0.32-1.124-0.733-2.218-1.154-3.307c-0.26-0.767-0.498-1.569-1.036-2.198c-0.997-1.204-1.847-2.534-2.453-3.977
	c-0.151-0.465-0.259-0.951-0.52-1.373c-0.708-1.181-1.391-2.389-2.302-3.429c-0.336-0.488,0.405-0.988,0.15-1.497
	c-0.43-0.845-1.276-1.334-1.917-1.995c-0.476-0.518-1.023-0.973-1.422-1.561c-0.312-0.457-0.831-0.743-1.091-1.236
	c-0.073-0.46,0.161-0.884,0.308-1.304c0.248-0.584,0.44-1.195,0.509-1.827c0.188-1.357,0.668-2.648,0.891-3.998
	c0.044-0.301,0.18-0.607,0.456-0.759c0.419,0.039,0.799,0.252,1.208,0.337c0.339-0.503,0.469-1.153,0.965-1.542
	c0.259-0.205,0.539-0.461,0.893-0.429c0.727,0.016,1.437,0.241,2.1,0.529c0.509,0.263,1.091,0.086,1.636,0.158
	c1.187,0.233,2.403,0.829,3.62,0.412c0.803,0.053,1.528,0.625,2.351,0.544c1.249-0.653,2.26-1.736,2.787-3.048
	c0.159-0.491,0.604-0.894,1.131-0.91c0.493-0.046,0.898,0.286,1.34,0.442c1.146,0.392,2.164,1.197,2.781,2.242
	c0.083,0.468-0.122,1.08,0.384,1.359c0.604-0.142,0.735-0.807,0.991-1.279c0.55-1.038,0.776-2.21,0.92-3.364
	c0.031-0.958,0.03-1.916,0.012-2.874c-0.011-0.503-0.2-0.977-0.435-1.414c-0.864,0.125-1.29,0.972-2.032,1.328
	c-0.924,0.501-1.972,0.713-3.017,0.727c-1.818,0.03-3.636-0.027-5.454-0.003c-0.705,0.038-1.35-0.288-2.033-0.399
	c-0.588-0.041-1.181-0.012-1.765-0.113c-0.75-0.116-1.55,0.118-2.271-0.106c-0.763-0.418-0.288-1.308-0.239-1.969
	c-0.244,0.022-0.517-0.035-0.729,0.117c-0.514,0.35-0.887,0.87-1.393,1.233c-0.256,0.037-0.514,0.011-0.773,0.011
	c-0.133-0.512,0.274-0.846,0.516-1.234c0.056-0.29,0.016-0.589,0.065-0.88c0.211-0.339,0.497-0.635,0.638-1.014
	c0.116-0.377-0.367-0.857-0.724-0.62c-0.396,0.367-0.585,0.893-0.886,1.331c-0.133-0.005-0.401-0.018-0.535-0.024
	c-0.02-0.322-0.091-0.638-0.156-0.954c-0.529-0.234-0.988,0.133-1.412,0.399c-0.43,0.067-0.872-0.042-1.298,0.046
	c-0.774,0.361-0.98,1.267-1.449,1.902c-0.197,0.331-0.62,0.244-0.94,0.215c-0.664-0.147-1.342-0.239-2.022-0.257
	c-0.373-0.004-0.697-0.229-1.061-0.274c-0.328,0.083-0.622,0.295-0.972,0.29c-0.912,0.035-1.823-0.031-2.734-0.003
	c-0.634-0.004-1.361,0.078-1.861-0.4c-0.362-0.218-0.253-0.674-0.267-1.029c-0.039-0.57,0.48-0.935,0.68-1.423
	c-0.082-0.46-0.416-0.848-0.425-1.324c-0.035-0.42,0.216-0.781,0.322-1.172c0.101-0.359,0.197-0.721,0.253-1.09
	c0.075-0.456-0.199-0.864-0.248-1.306c-0.044-0.533,0.03-1.071-0.034-1.603c-0.2-0.721-0.804-1.335-0.709-2.127
	c-0.067-0.716,1.012-0.917,0.853-1.657c-0.103-0.763-0.897-1.095-1.486-1.438c-0.698-0.354-1.223-0.967-1.934-1.302
	c-0.542-0.25-1.078-0.566-1.683-0.622c-0.461-0.044-0.912-0.156-1.37-0.218C10.177,0.086,9.818,0.156,9.453,0.13z M16.277,89.736
	c-0.88,0.803-1.596,1.762-2.464,2.577c-0.201,0.178-0.321,0.422-0.395,0.678c0.619-0.173,0.944-0.77,1.415-1.157
	c0.891-0.786,1.772-1.587,2.576-2.463c0.259-0.283,0.433-0.637,0.478-1.018C17.152,88.53,16.804,89.267,16.277,89.736z
	 M19.234,17.518c0.318,0.11,0.558,0.425,0.912,0.425c0.84,0.029,1.641,0.32,2.472,0.407c0.667,0.041,1.434,0.012,1.921,0.552
	c-0.035,0.638-0.626,1.027-0.918,1.554c-0.22,0.427-0.733,0.34-1.119,0.487c-0.403,0.132-0.743,0.471-1.192,0.431
	c-0.542-0.008-1.086,0.015-1.625-0.049c-0.97-0.418-1.176-1.546-1.338-2.47c-0.116,0.018-0.348,0.054-0.465,0.072
	c-0.578,1.144,0.166,2.664,1.335,3.109c0.614,0.403,1.368,0.174,2.027,0.415c0.366,0.121,0.672,0.369,1.025,0.521
	c0.374,0.102,0.721-0.107,1.055-0.248c0.396,0.211,0.804,0.397,1.216,0.572c-0.729,1.723-1.514,3.433-2.528,5.01
	c-0.396,0.003-0.792,0.007-1.188,0.012c-0.293-0.527-0.434-1.159-0.909-1.568c-0.503-0.484-1.214-0.665-1.727-1.136
	c-0.516-0.483-0.408-1.369-1.022-1.77c-0.506-0.192-1.125-0.131-1.527-0.554c-0.698-0.686-1.542-1.193-2.251-1.868
	c-0.547-0.509-1.299-0.652-1.974-0.917c-0.016-0.354,0.034-0.781,0.422-0.912c0.797-0.071,1.599,0.093,2.395-0.005
	c0.803-0.637,1.004-1.916,2.033-2.311c0.78,0.016,1.554,0.235,2.172,0.723C18.692,17.833,18.902,17.513,19.234,17.518z
	 M39.94,21.326c1.018,0.027,2.083,0.166,2.968,0.703c-0.01,0.607,0.011,1.218-0.067,1.821c-0.287,0.566-0.833,1.162-1.528,1.056
	c-0.423-0.033-0.902,0.08-1.274-0.18c-0.253-0.259-0.37-0.618-0.625-0.874c-0.348-0.336-0.796-0.567-1.083-0.967
	c-0.199-0.278-0.365-0.577-0.546-0.867c-0.376,0.088-0.758,0.136-1.142,0.18c-0.449,0.139-0.767,0.512-1.157,0.758
	c-0.37,0.079-0.811,0.078-1.087-0.223c-0.525-0.352,0.035-1.133-0.388-1.521c-0.536-0.109-1.242,0.26-1.623-0.264
	c-0.249-0.256-0.106-0.653-0.142-0.972c1.993,0.02,3.879,0.884,5.878,0.835C38.762,20.856,39.302,21.281,39.94,21.326z
	 M25.388,59.455c-0.152-0.106-0.301-0.218-0.445-0.336c0.193-0.136,0.385-0.271,0.578-0.403c0.147,0.137,0.294,0.276,0.441,0.416
	C25.772,59.231,25.622,59.468,25.388,59.455z M20.804,100.381c-0.397,0.015-0.81,0.093-1.199-0.012
	c-0.468-0.204-0.95-0.384-1.402-0.622c-0.239-0.102-0.238-0.38-0.286-0.596c0.42,0.019,0.799,0.211,1.133,0.453
	C19.56,100.046,20.416,99.741,20.804,100.381z M25.537,103.03c-0.777,0.09-1.027-0.776-1.531-1.178
	c-0.622-0.399-1.343-0.601-2.038-0.829c-0.239-0.067-0.393-0.272-0.57-0.43c0.342-0.15,0.744-0.276,1.099-0.095
	c0.879,0.442,1.68,1.027,2.433,1.66C25.214,102.383,25.394,102.704,25.537,103.03z"/>
</svg>
