<?xml version="1.0" encoding="utf-8"?>
<!-- Generator: Adobe Illustrator 18.0.0, SVG Export Plug-In . SVG Version: 6.00 Build 0)  -->
<svg version="1.2" baseProfile="tiny" id="Layer_1" xmlns="http://www.w3.org/2000/svg" xmlns:xlink="http://www.w3.org/1999/xlink"
	 x="0px" y="0px" viewBox="0 0 46.854 110.665" xml:space="preserve">
<g>
	<g>
		<path fill="#02CEFF" d="M25.884,0.754c1.015,0.519,1.993,1.191,2.634,2.154c0.474,0.708,0.734,1.532,0.908,2.36
			c0.094,0.45-0.012,0.905-0.136,1.337c-0.186,0.643-0.309,1.311-0.611,1.913c-0.178,0.384-0.405,0.805-0.265,1.24
			c0.178,0.579,0.499,1.1,0.692,1.673c0.235,0.693,0.856,1.152,1.149,1.815c0.271,0.582,0.721,1.126,1.346,1.333
			c1.056,0.219,2.212-0.234,3.204,0.303c0.498,0.252,1.071,0.244,1.596,0.4c0.408,0.154,0.719,0.48,0.986,0.812
			c0.625,0.849,1.139,1.771,1.709,2.657c0.527,0.854,0.878,1.803,1.102,2.779c0.334,0.814,0.432,1.699,0.793,2.502
			c0.406,1.11,0.92,2.179,1.484,3.217c0.457,0.885,0.455,1.913,0.856,2.817c0.251,0.677,0.464,1.374,0.599,2.082
			c0.075,0.334-0.176,0.605-0.371,0.841c-0.556,0.605-1.166,1.158-1.735,1.751c0.149,0.303,0.326,0.593,0.455,0.908
			c0.191,0.512,0.141,1.081,0.335,1.593c0.147,0.415,0.393,0.805,0.418,1.255c0.036,0.56-0.032,1.13,0.086,1.686
			c0.117,0.556,0.271,1.102,0.35,1.665c0.312,1.774,0.08,3.58,0.174,5.366c0.049,0.638,0.322,1.227,0.48,1.841
			c0.135,0.495,0.054,1.034,0.27,1.51c0.654,1.387,1.268,2.795,1.797,4.234c0.302,0.688,0.603,1.394,0.653,2.154
			c0.035,0.251-0.136,0.454-0.265,0.651c-0.762,1.065-1.702,1.995-2.737,2.791c-0.673,0.476-0.944,1.378-1.781,1.643
			c-0.426-1.287-0.004-2.673-0.284-3.986c-0.158-0.606-0.572-1.144-1.156-1.393c-0.139,1.065,0.585,2.09,0.152,3.14
			c-0.157,0.001-0.471,0.003-0.63,0.004c-0.276-0.421-0.572-0.85-0.667-1.353c-0.1-0.641,0.015-1.294-0.078-1.934
			c-0.122-0.425-0.426-0.769-0.558-1.188c-0.059-0.382-0.038-0.773,0.01-1.155c0.093-0.653,0.566-1.201,0.564-1.874
			c-0.012-2.234,0.03-4.466-0.009-6.7c-0.019-0.624-0.403-1.147-0.538-1.741c-0.096-0.682-0.057-1.406-0.379-2.037
			c-0.328-0.667-0.281-1.427-0.396-2.145c-0.325,0.171-0.728,0.318-0.847,0.705c-0.3,0.837-0.254,1.744-0.254,2.62
			c0.012,1.018-0.023,2.038-0.004,3.058c0.016,0.918,0.503,1.733,0.634,2.63c0.113,0.754-0.029,1.522,0.077,2.277
			c0.135,0.598,0.556,1.114,0.561,1.745c0.015,0.474,0.015,0.969-0.168,1.416c-0.168,0.441-0.463,0.856-0.447,1.348
			c-0.033,0.387,0.194,0.717,0.35,1.052c0.254,0.49,0.225,1.068,0.451,1.57c0.129,0.338,0.335,0.657,0.38,1.023
			c-0.019,0.419-0.168,0.825-0.155,1.247c0.305,2.375,0.112,4.777,0.177,7.164c0.08,0.879-0.647,1.57-0.621,2.44
			c-0.004,0.506-0.062,1.044,0.155,1.519c0.328,0.727,0.619,1.487,1.139,2.105c0.532,0.628,1.178,1.146,1.784,1.7
			c0.257,0.244,0.544,0.528,0.543,0.911c0.029,1.046-0.061,2.1,0.091,3.14c0.135,0.769,0.339,1.525,0.454,2.298
			c0.144,0.799,0.029,1.614,0.059,2.421c0.012,0.592,0.345,1.107,0.484,1.671c0.202,0.722,0.039,1.48,0.141,2.215
			c0.077,0.422,0.244,0.821,0.357,1.236c0.384,1.256,0.099,2.581,0.194,3.867c0.059,0.532,0.448,0.952,0.577,1.465
			c0.094,0.709-0.045,1.429,0.046,2.14c0.106,0.389,0.408,0.682,0.672,0.973c0.609,0.622,1.237,1.252,1.646,2.031
			c0.131,0.251,0.205,0.608-0.023,0.83c-0.308,0.366-0.68,0.67-1.024,1.001c0.187,0.432,0.366,0.869,0.532,1.311
			c0.206,0.564,0.583,1.078,0.606,1.7c0.03,0.605,0.26,1.203,0.18,1.812c-0.294,0.608-0.943,0.968-1.221,1.59
			c-0.161,0.4-0.094,0.878-0.313,1.256c-0.396,0.377-0.879,0.675-1.39,0.87c-0.811,0.165-1.673-0.123-2.463,0.18
			c-0.531,0.205-1.063,0.464-1.648,0.442c-0.775-0.017-1.6,0.11-2.319-0.251c-0.37-0.181-0.77-0.339-1.065-0.637
			c-0.091-0.444-0.045-0.902-0.052-1.352c0.015-0.408-0.035-0.85,0.202-1.207c0.527-0.84,0.941-1.741,1.404-2.617
			c0.35-0.602,0.302-1.323,0.384-1.992c-0.055-0.643-0.048-1.419-0.606-1.855c-0.495-0.422-0.989-0.847-1.442-1.317
			c-0.434-0.451-0.966-0.87-1.134-1.501c-0.186-0.733-0.574-1.41-0.602-2.177c-0.032-0.712-0.509-1.297-0.606-1.993
			c-0.067-0.463-0.161-0.923-0.38-1.337c-0.31-0.574-0.183-1.269-0.495-1.841c-0.229-0.447-0.329-0.94-0.386-1.435
			c-0.078-0.711-0.54-1.32-0.547-2.044c-0.007-0.847-0.473-1.581-0.619-2.398c-0.178-0.927-0.735-1.709-1.197-2.511
			c-0.872-1.406-1.657-2.865-2.589-4.231c-0.664-1.174-1.11-2.454-1.588-3.711c-0.184-0.67-0.469-1.308-0.857-1.886
			c-0.73,0.836-1.59,1.614-2.041,2.647c-0.254,0.94-0.519,1.886-0.953,2.762c-0.509,0.792-1.06,1.562-1.478,2.409
			c-0.267,0.759,0.004,1.587-0.161,2.364c-0.131,0.429-0.392,0.807-0.515,1.239c-0.284,1.146-0.756,2.232-1.158,3.339
			c-0.138,0.519-0.213,1.056-0.426,1.554c-0.455,0.976,0.02,2.105-0.416,3.085c-0.486,1.075-0.889,2.187-1.382,3.261
			c-0.254,0.56-0.618,1.071-0.818,1.654c0.032,0.467,0.197,0.934,0.097,1.407c-0.139,0.679-0.244,1.381-0.139,2.076
			c0.12,0.464,0.463,0.847,0.531,1.329c0.046,0.323,0.033,0.653,0.081,0.976c0.084,0.387,0.319,0.724,0.399,1.113
			c-0.3,0.84-1.201,1.124-1.921,1.497c-0.553,0.271-1.182,0.177-1.774,0.225c-0.471,0.023-0.883,0.28-1.333,0.395
			c-0.505,0.11-1.037-0.019-1.538,0.12c-1.878,0.802-3.708,1.948-5.807,2.018c-0.915,0.086-1.865,0.614-2.769,0.206
			c-0.624-0.306-1.288-0.65-1.677-1.249c-0.276-0.411,0.033-0.894,0.249-1.255c0.518-0.878,1.511-1.263,2.399-1.655
			c0.712-0.302,1.185-0.94,1.751-1.438c0.412-0.38,0.931-0.612,1.371-0.953c0.405-0.315,0.664-0.764,0.939-1.188
			c-0.273-0.447-0.669-0.882-0.631-1.442c0.029-0.525-0.136-1.223,0.376-1.568c0.522-0.09,0.84,0.419,1.207,0.696
			c0.528-0.426,0.901-0.999,1.211-1.596c-0.532-0.543-1.159-1.047-1.467-1.761c-0.202-0.995,0.377-1.909,0.431-2.885
			c0.062-1.02-0.015-2.041,0.026-3.059c0.022-0.576,0.395-1.046,0.57-1.577c0.197-0.556,0.052-1.159,0.181-1.725
			c0.119-0.438,0.331-0.849,0.402-1.298c0.091-0.541,0.126-1.097,0.334-1.61c0.328-0.807,0.325-1.709,0.719-2.492
			c0.226-0.437,0.218-0.934,0.292-1.407c0.132-0.515,0.492-0.949,0.544-1.487c0.071-0.87,0.638-1.581,0.789-2.43
			c0.309-1.102,0.135-2.254,0.308-3.373c0.115-0.939,0.001-1.89,0.165-2.824c0.147-0.85-0.129-1.69-0.107-2.54
			c0.012-0.779-0.01-1.558,0.009-2.337c0.009-0.624,0.371-1.156,0.538-1.739c0.147-0.725,0.039-1.487,0.276-2.196
			c0.113-0.424,0.309-0.833,0.331-1.274c-0.074-0.383-0.366-0.698-0.677-0.912c-0.966-0.135-1.948,0.019-2.92-0.07
			c-0.08-0.836-0.001-1.673-0.003-2.508c0.001-0.741,0.228-1.452,0.366-2.173c0.161-0.918-0.161-1.826-0.116-2.746
			c-0.015-0.892,0.408-1.719,0.435-2.607c0.026-0.634-0.035-1.269,0.022-1.902c0.061-0.618,0.482-1.126,0.574-1.733
			c0.078-0.763-0.061-1.533,0.055-2.293c0.102-0.657,0.55-1.221,0.543-1.9c0.028-0.78-0.044-1.561,0.004-2.34
			c0.042-0.616,0.416-1.14,0.543-1.735c0.107-0.788-0.059-1.593,0.139-2.37c0.17-0.708,0.332-1.48,0.064-2.183
			c-0.128-0.244-0.264-0.599-0.592-0.596c-0.474-0.041-0.954-0.016-1.43,0.007c-0.709,0.016-1.298,0.512-2.005,0.54
			c-0.685,0.028-1.369,0.004-2.055,0.012c-0.717,0.033-1.336-0.373-1.976-0.632c-0.296-0.148-0.714-0.326-0.701-0.719
			c-0.071-1.143,0.676-2.102,0.801-3.209c0.174-0.825,0.548-1.591,0.717-2.42c0.647-1.725,1.591-3.325,2.592-4.864
			c0.867-1.455,1.604-3,2.048-4.637c0.112-0.36,0.048-0.869-0.354-1.012c-0.949-0.157-1.931-0.035-2.842,0.264
			c-0.828,0.276-1.719,0.36-2.585,0.251c-0.514-0.309-0.635-0.994-0.516-1.541c0.783-0.406,1.626-0.82,2.53-0.791
			c1.072-0.007,2.144,0.028,3.214,0.013c0.348-0.02,0.769-0.025,0.998-0.335c0.287-0.351,0.524-0.74,0.791-1.105
			c0.912,0.147,1.732-0.322,2.611-0.454c0.899-0.155,1.719-0.576,2.562-0.902C15.711,7.752,14.602,7.25,14.1,6.266
			c-0.102-0.318-0.058-0.66-0.09-0.988C14,4.743,13.728,4.266,13.534,3.782c0.341-0.232,0.679-0.509,1.1-0.57
			c0.937-0.106,1.883-0.036,2.823-0.045c0.438,0.004,0.82-0.239,1.159-0.489c0.688-0.515,1.369-1.042,2.029-1.591
			c0.432-0.363,0.988-0.509,1.488-0.748C22.449,0.206,22.76,0.025,23.106,0c0.495,0.052,0.931,0.319,1.404,0.455
			C24.959,0.599,25.443,0.586,25.884,0.754z M15.91,10.318c0.013,0.178,0.026,0.357,0.036,0.535c0.178,0.009,0.355,0.02,0.531,0.032
			c0.003-0.178,0.015-0.36-0.029-0.535C16.271,10.318,16.09,10.312,15.91,10.318z M16.673,12.694
			c-0.308,0.538-0.531,1.14-0.959,1.599c-0.834,0.643-2.028,0.773-2.668,1.675c-1.037,1.364-1.896,2.866-2.556,4.446
			c-0.165,0.793-0.879,1.471-0.663,2.324c0.479,0.725,1.645,0.644,2.219,0.075c0.84-0.812,1.883-1.416,3.013-1.716
			c0.627-0.199,1.102-0.679,1.638-1.039c0.653-0.458,1.409-0.73,2.109-1.104c0.042-0.505-0.035-1.105,0.373-1.49
			c0.564-0.654,1.426-0.895,2.103-1.395c0.052-0.319,0.017-0.643,0.003-0.963c-0.988-0.046-1.98,0.061-2.966-0.015
			c-0.265-0.004-0.464-0.205-0.611-0.405c-0.125-0.538,0.007-1.12-0.22-1.636C17.334,12.751,16.957,12.764,16.673,12.694z"/>
	</g>
</g>
</svg>
