<?xml version="1.0" encoding="utf-8"?>
<!-- Generator: Adobe Illustrator 18.0.0, SVG Export Plug-In . SVG Version: 6.00 Build 0)  -->
<svg version="1.2" baseProfile="tiny" id="Layer_1" xmlns="http://www.w3.org/2000/svg" xmlns:xlink="http://www.w3.org/1999/xlink"
	 x="0px" y="0px" viewBox="0 0 81.991 65.555" xml:space="preserve">
<g id="XMLID_612_">
	<polygon fill="#FFB6C8" points="32.185,49.627 26.693,49.627 26.693,34.36 24.763,34.36 24.763,25.915 0.676,25.915 0.676,34.36 
		0.676,34.946 0.676,65.555 26.693,65.555 26.693,64.203 32.185,64.203 	"/>
	<polygon fill="#FFE87F" points="44.165,15.945 44.165,25.495 24.763,25.495 24.763,49.627 32.185,49.627 32.185,64.203 
		61.196,64.203 61.196,49.627 61.196,15.945 	"/>
	<g id="XMLID_543_">
		<rect id="XMLID_156_" x="15.207" y="1.363" fill="#80E6FF" width="28.958" height="24.132"/>
		<path id="XMLID_157_" fill="#273347" d="M44.406,25.737H14.965V1.122h29.441V25.737z M15.448,25.254h28.476V1.605H15.448V25.254z"
			/>
	</g>
	<g id="XMLID_548_">
		<rect id="XMLID_152_" x="61.196" y="1.466" fill="#80E6FF" width="19.401" height="28.958"/>
		<path id="XMLID_153_" fill="#273347" d="M80.838,30.666H60.954V1.225h19.884V30.666z M61.437,30.183h18.918V1.707H61.437V30.183z"
			/>
	</g>
	<g id="XMLID_545_">
		<rect id="XMLID_148_" x="44.165" y="1.363" fill="#D0BBFF" width="17.031" height="14.582"/>
		<path id="XMLID_149_" fill="#273347" d="M61.437,16.187H43.924V1.122h17.513V16.187z M44.406,15.704h16.548V1.605H44.406V15.704z"
			/>
	</g>
	<g id="XMLID_547_">
		<rect x="0.676" y="1.363" fill="#9DFBE8" width="14.531" height="25.117"/>
	</g>
	<polygon fill="#9DFBE8" points="69.442,31.312 69.442,31.279 62.02,31.279 62.02,31.312 62.02,48.67 62.02,48.67 62.02,48.67 
		62.02,64.203 80.597,64.203 80.597,49.627 80.597,48.67 80.597,31.312 	"/>
	<g id="XMLID_619_">
		<path fill="#273347" d="M80.597,1.363v0.103v28.958H61.196v19.203v14.576H32.185V49.627h-7.422V25.495h-9.556V1.363h28.958H80.597
			 M81.948,0.012h-1.351H44.165H15.207h-1.351v1.351v24.132v1.351h1.351h8.205v22.781v1.351h1.351h6.071v13.224v1.351h1.351h29.011
			h1.351v-1.351V49.627V31.776h18.05h1.351v-1.351V1.466V1.363V0.012L81.948,0.012z"/>
	</g>
	<g id="XMLID_649_">
		<g id="XMLID_651_">
			<path id="XMLID_146_" fill="#D0BBFF" d="M45.374,15.945V9.977h0c3.296,0,5.969,2.672,5.969,5.969v0"/>
			<path id="XMLID_147_" fill="#273347" d="M51.439,15.945h-0.193c0-3.206-2.582-5.82-5.776-5.871v5.871h-0.193V9.88h0.097
				C48.719,9.88,51.439,12.601,51.439,15.945z"/>
		</g>
		<g id="XMLID_650_">
			<polyline id="XMLID_144_" fill="#FFFFFF" points="45.374,15.945 45.374,9.778 45.374,9.778 			"/>
			<rect id="XMLID_145_" x="45.036" y="9.778" fill="#273347" width="0.676" height="6.168"/>
		</g>
	</g>
	<g id="XMLID_1213_">
		<g id="XMLID_1215_">
			<path id="XMLID_142_" fill="#80E6FF" d="M44.165,23.664h-5.969v0c0-3.296,2.672-5.969,5.969-5.969l0,0"/>
			<path id="XMLID_143_" fill="#273347" d="M44.165,23.761H38.1v-0.097c0-3.344,2.721-6.065,6.065-6.065v0.193
				c-3.206,0-5.82,2.582-5.871,5.776h5.871V23.761z"/>
		</g>
		<g id="XMLID_1214_">
			<polyline id="XMLID_140_" fill="#FFFFFF" points="44.165,23.664 37.997,23.664 37.997,23.664 			"/>
			<rect id="XMLID_141_" x="37.997" y="23.326" fill="#273347" width="6.168" height="0.676"/>
		</g>
	</g>
	<g id="XMLID_530_">
		<g id="XMLID_532_">
			<path id="XMLID_138_" fill="#FFE87F" d="M23.754,27.118h5.969l0,0c0,3.296-2.672,5.969-5.969,5.969l0,0"/>
			<path id="XMLID_139_" fill="#273347" d="M23.754,33.183V32.99c3.206,0,5.82-2.582,5.871-5.776h-5.871v-0.193h6.065v0.097
				C29.819,30.463,27.098,33.183,23.754,33.183z"/>
		</g>
		<g id="XMLID_531_">
			<polyline id="XMLID_136_" fill="#FFFFFF" points="23.754,27.118 29.922,27.118 29.922,27.118 			"/>
			<rect id="XMLID_137_" x="23.754" y="26.78" fill="#273347" width="6.168" height="0.676"/>
		</g>
	</g>
	<g id="XMLID_658_">
		<g id="XMLID_660_">
			<path id="XMLID_134_" fill="#FFE87F" d="M31.187,51.548h5.969l0,0c0,3.296-2.672,5.969-5.969,5.969h0"/>
			<path id="XMLID_135_" fill="#273347" d="M31.187,57.613V57.42c3.206,0,5.82-2.582,5.871-5.776h-5.871v-0.193h6.065v0.097
				C37.252,54.892,34.531,57.613,31.187,57.613z"/>
		</g>
		<g id="XMLID_659_">
			<polyline id="XMLID_132_" fill="#FFFFFF" points="31.187,51.548 37.355,51.548 37.355,51.548 			"/>
			<rect id="XMLID_133_" x="31.187" y="51.21" fill="#273347" width="6.168" height="0.676"/>
		</g>
	</g>
	<g id="XMLID_421_">
		<g id="XMLID_422_">
			<g id="XMLID_519_">
				<path id="XMLID_130_" fill="#9DFBE8" d="M61.441,45.769h5.969v0c0-3.296-2.672-5.969-5.969-5.969l0,0"/>
				<path id="XMLID_131_" fill="#273347" d="M67.506,45.866h-6.065v-0.193h5.871c-0.052-3.194-2.666-5.776-5.871-5.776v-0.193
					c3.344,0,6.065,2.721,6.065,6.065V45.866z"/>
			</g>
			<g id="XMLID_423_">
				<polyline id="XMLID_128_" fill="#FFFFFF" points="61.345,45.769 67.512,45.769 67.609,45.769 				"/>
				<rect id="XMLID_129_" x="61.345" y="45.431" fill="#273347" width="6.264" height="0.676"/>
			</g>
		</g>
		<g id="XMLID_526_">
			<g id="XMLID_528_">
				<path id="XMLID_126_" fill="#9DFBE8" d="M61.441,33.612h5.969l0,0c0,3.296-2.672,5.969-5.969,5.969l0,0"/>
				<path id="XMLID_127_" fill="#273347" d="M61.441,39.677v-0.193c3.206,0,5.82-2.582,5.871-5.776h-5.871v-0.193h6.065v0.097
					C67.506,36.956,64.785,39.677,61.441,39.677z"/>
			</g>
			<g id="XMLID_527_">
				<polyline id="XMLID_124_" fill="#FFFFFF" points="61.441,33.612 67.609,33.612 67.609,33.612 				"/>
				<rect id="XMLID_125_" x="61.441" y="33.274" fill="#273347" width="6.168" height="0.676"/>
			</g>
		</g>
	</g>
	<g id="XMLID_1216_">
		<g id="XMLID_1218_">
			<path id="XMLID_122_" fill="#80E6FF" d="M61.196,28.48h5.969l0,0c0-3.296-2.672-5.969-5.969-5.969l0,0"/>
			<path id="XMLID_123_" fill="#273347" d="M67.261,28.576h-6.065v-0.193h5.871c-0.052-3.194-2.666-5.776-5.871-5.776v-0.193
				c3.344,0,6.065,2.721,6.065,6.065V28.576z"/>
		</g>
		<g id="XMLID_1217_">
			<polyline id="XMLID_120_" fill="#FFFFFF" points="61.196,28.48 67.363,28.48 67.363,28.48 			"/>
			<rect id="XMLID_121_" x="61.196" y="28.142" fill="#273347" width="6.168" height="0.676"/>
		</g>
	</g>
	<g id="XMLID_555_">
		<g id="XMLID_557_">
			<rect id="XMLID_100_" x="14.09" y="6.19" fill="#FFFFFF" width="1.075" height="7.24"/>
			<path id="XMLID_101_" fill="#273347" d="M15.406,13.671h-1.558V5.948h1.558V13.671z M14.331,13.188h0.593V6.431h-0.593V13.188z"
				/>
		</g>
		<g id="XMLID_556_">
			<rect id="XMLID_96_" x="14.09" y="13.429" fill="#FFFFFF" width="1.075" height="7.24"/>
			<path id="XMLID_97_" fill="#273347" d="M15.406,20.91h-1.558v-7.722h1.558V20.91z M14.331,20.428h0.593v-6.757h-0.593V20.428z"/>
		</g>
	</g>
	<g id="XMLID_574_">
		<g id="XMLID_576_">
			<rect id="XMLID_92_" x="23.506" y="34.191" fill="#FFFFFF" width="1.075" height="7.24"/>
			<path id="XMLID_93_" fill="#273347" d="M24.823,41.672h-1.558V33.95h1.558V41.672z M23.747,41.189h0.593v-6.757h-0.593V41.189z"
				/>
		</g>
		<g id="XMLID_575_">
			<rect id="XMLID_88_" x="23.506" y="41.431" fill="#FFFFFF" width="1.075" height="7.24"/>
			<path id="XMLID_89_" fill="#273347" d="M24.823,48.911h-1.558v-7.722h1.558V48.911z M23.747,48.429h0.593v-6.757h-0.593V48.429z"
				/>
		</g>
	</g>
	<g id="XMLID_579_">
		<rect id="XMLID_84_" x="67.898" y="30.451" fill="#FFFFFF" width="7.24" height="1.075"/>
		<path id="XMLID_85_" fill="#273347" d="M75.379,31.768h-7.722V30.21h7.722V31.768z M68.14,31.285h6.757v-0.593H68.14V31.285z"/>
	</g>
	<g id="XMLID_578_">
		<rect id="XMLID_28_" x="61.483" y="50.542" fill="#FFFFFF" width="1.075" height="7.24"/>
		<path id="XMLID_81_" fill="#273347" d="M62.799,58.023h-1.558v-7.722h1.558V58.023z M61.724,57.54h0.593v-6.757h-0.593V57.54z"/>
	</g>
	<g id="XMLID_1274_">
		<line id="XMLID_14_" fill="#A4DBDF" x1="30.308" y1="49.82" x2="44.165" y2="49.82"/>
	</g>
	<g id="XMLID_941_">
		<polygon id="XMLID_19_" fill="#273347" points="81.991,65.547 61.924,65.547 61.924,64.196 80.64,64.196 80.64,30.989 
			81.991,30.989 		"/>
	</g>
	<g id="XMLID_942_">
		<polygon id="XMLID_22_" fill="#273347" points="1.351,65.547 0,65.547 0.056,0 14.683,0 14.627,1.407 1.351,1.407 		"/>
	</g>
	<g id="XMLID_944_">
		<rect id="XMLID_17_" x="23.506" y="64.196" fill="#273347" width="7.681" height="1.351"/>
	</g>
	<rect x="1.334" y="26.31" fill="#273347" width="12.521" height="0.537"/>
	<g id="XMLID_1_">
		<g id="XMLID_9_">
			<g id="XMLID_13_">
				<path id="XMLID_21_" fill="#9DFBE8" d="M13.526,26.72v-5.823h0c-3.216,0-5.823,2.607-5.823,5.823l0,0"/>
				<path id="XMLID_20_" fill="#273347" d="M13.62,20.803v5.917h-0.188v-5.728c-3.116,0.05-5.635,2.601-5.635,5.728H7.608
					c0-3.263,2.655-5.917,5.917-5.917H13.62z"/>
			</g>
			<g id="XMLID_10_">
				<polyline id="XMLID_12_" fill="#FFFFFF" points="13.526,26.814 13.526,20.797 13.526,20.703 				"/>
				<rect id="XMLID_11_" x="13.196" y="20.703" fill="#273347" width="0.659" height="6.112"/>
			</g>
		</g>
		<g id="XMLID_2_">
			<g id="XMLID_6_">
				<path id="XMLID_8_" fill="#9DFBE8" d="M1.664,26.72v-5.823l0,0c3.216,0,5.823,2.607,5.823,5.823l0,0"/>
				<path id="XMLID_7_" fill="#273347" d="M7.582,26.72H7.393c0-3.128-2.519-5.678-5.635-5.728v5.728H1.57v-5.917h0.094
					C4.927,20.803,7.582,23.457,7.582,26.72z"/>
			</g>
			<g id="XMLID_3_">
				<polyline id="XMLID_5_" fill="#FFFFFF" points="1.664,26.72 1.664,20.703 1.664,20.703 				"/>
				<rect id="XMLID_4_" x="1.334" y="20.703" fill="#273347" width="0.659" height="6.017"/>
			</g>
		</g>
	</g>
</g>
</svg>
