<?xml version="1.0" encoding="utf-8"?>
<!-- Generator: Adobe Illustrator 18.0.0, SVG Export Plug-In . SVG Version: 6.00 Build 0)  -->
<svg version="1.2" baseProfile="tiny" id="Layer_1" xmlns="http://www.w3.org/2000/svg" xmlns:xlink="http://www.w3.org/1999/xlink"
	 x="0px" y="0px" viewBox="0 0 104.786 35.679" xml:space="preserve">
<path fill="#273347" d="M32.57,7.088C37.64,4.435,42.855,2.043,48.198,0c2.747,3.211,5.971,5.952,9.245,8.604
	c2.214,1.58,4.359,3.261,6.656,4.727c4.118,2.868,8.471,5.355,12.817,7.843c4.911-0.222,9.759,0.635,14.594,1.326
	c4.277,0.958,9.093,1.739,12.253,5.038c2.291,2.379,0.336,5.052-1.954,6.582c-4.499,1.561-38.709,1.695-42.843,1.478
	c-3.858-0.184-8.571,0.017-12.365-0.604c-4.567-0.882-6.797-1.958-10.655-3.804c0.019,1.897,0.013,1.989-0.025,3.887
	C23.947,35.121,11.973,35.114,0,35.082C1.536,24.841,3.135,14.619,4.549,4.359c7.157,2.538,14.549,5.298,22.265,4.93
	C28.959,9.27,30.78,8.122,32.57,7.088z"/>
</svg>
