<?xml version="1.0" encoding="utf-8"?>
<!-- Generator: Adobe Illustrator 18.0.0, SVG Export Plug-In . SVG Version: 6.00 Build 0)  -->
<svg version="1.2" baseProfile="tiny" id="Layer_1" xmlns="http://www.w3.org/2000/svg" xmlns:xlink="http://www.w3.org/1999/xlink"
	 x="0px" y="0px" viewBox="0 0 96.677 45.086" xml:space="preserve">
<path fill="#273347" d="M6.352,0.46c2.684-1.155,4.83,0.239,7.686,0.138c6.575,1.465,25.544,0.92,29.312,0.046
	c2.227-0.146,3.877,1.701,5.254,3.204c5.209,6.352,8.909,13.813,14.131,20.14c8.173,3.192,17.291,4.908,25.907,3.893
	c1.548-0.596,3.109,0.273,4.226,1.332c2.189,1.923,3.953,4.638,3.801,7.659c-0.412,0.514-0.819,1.034-1.212,1.555
	c-8.192,5.114-17.817,6.006-27.411,6.659c-13.756-0.019-27.519-0.336-41.275-0.127c-5.076-0.495-10.146,0.355-15.216-0.089
	c-3.801,0.279-7.614,0.184-11.421,0.203c-0.444-5.831,0.368-11.631,0.387-17.456c0.317-3.414,3.075-17.123,3.209-21.681
	C3.665,4.102,4.905,1.92,6.352,0.46z"/>
</svg>
