<?xml version="1.0" encoding="utf-8"?>
<!-- Generator: Adobe Illustrator 18.0.0, SVG Export Plug-In . SVG Version: 6.00 Build 0)  -->
<svg version="1.2" baseProfile="tiny" id="Layer_1" xmlns="http://www.w3.org/2000/svg" xmlns:xlink="http://www.w3.org/1999/xlink"
	 x="0px" y="0px" viewBox="0 0 81.899 21.273" xml:space="preserve">
<path fill="#273347" d="M3.188,17.364C-0.293,12.313-1.173,5.502,1.8,0c12.646,1.538,24.999,4.805,37.248,8.254
	c6.406,1.427,12.741,3.219,19.29,3.925c3.37,0.119,7.326,0.198,9.903-2.355c5.193,0.23,9.622-0.864,13.657,3.322
	c0,4.225-5.342,5.252-9.655,6.427c-8.472,2.308-17.617,1.891-26.291,0.163c-8.69-1.419-17.045-2.332-25.917-1.5
	c-0.095,0.991-0.19,1.974-0.285,2.965c-5.479,0.095-10.965,0.095-16.444,0.008C3.275,19.925,3.243,18.64,3.188,17.364z"/>
</svg>
