<?xml version="1.0" encoding="utf-8"?>
<!-- Generator: Adobe Illustrator 18.0.0, SVG Export Plug-In . SVG Version: 6.00 Build 0)  -->
<svg version="1.2" baseProfile="tiny" id="Layer_1" xmlns="http://www.w3.org/2000/svg" xmlns:xlink="http://www.w3.org/1999/xlink"
	 x="0px" y="0px" viewBox="0 0 90.781 39.767" xml:space="preserve">
<path fill="#273347" d="M33.589,10.686C31.242,7.344,32.067,3.121,34.477,0C42.604,4.085,51,7.753,59.016,12.011
	c2.45,1.255,4.821,2.663,7.461,3.613c2.831,0.846,5.709,1.553,8.65,2.067c3.718,0.194,7.461,0.298,11.171,0.721
	c2.926,0.312,3.948,3.19,4.305,5.374c0.658,3.252-0.492,6.928-3.79,8.8c-12.737,7.642-30.945,9.627-45.201,3.8
	c-3.615-1.935-7.691-0.243-11.33,0.687c-4.535,1.172-9.173,2.476-13.954,2.379c-6.034-0.506-11.853-2.836-16.269-6.463
	c-0.468-3.093,1.95-5.534,3.481-8.093c0.468-2.046-0.761-4.071-0.523-6.13c0.404-4.23,2.49-8.335,5.701-11.505
	c1.728-1.838,5.502-1.685,6.866,0.423c1.491,1.872,1.966,4.84,4.94,5.402C24.947,13.946,30.061,13.308,33.589,10.686z"/>
</svg>
