<?xml version="1.0" encoding="utf-8"?>
<!-- Generator: Adobe Illustrator 18.0.0, SVG Export Plug-In . SVG Version: 6.00 Build 0)  -->
<svg version="1.2" baseProfile="tiny" id="Layer_1" xmlns="http://www.w3.org/2000/svg" xmlns:xlink="http://www.w3.org/1999/xlink"
	 x="0px" y="0px" viewBox="0 0 98.473 29.575" xml:space="preserve">
<path fill="#273347" d="M38.042,1.052c1.104-1.567,3.395-1.193,4.714-0.114c1.39,1.104,2.551,2.468,3.813,3.712
	c2.456,2.392,5.152,4.518,7.773,6.72c3.997,2.982,8.325,5.895,13.363,6.65c8.534,0.609,17.069,1.371,25.634,1.053
	c2.005-0.247,4.956,0.431,5.133,2.874c-0.692,3.547-4.239,5.33-7.36,6.345c-4.886,1.161-9.937,0.78-14.911,0.914
	c-10.146-0.121-20.279,0.489-30.419,0.349c-14.93,0.063-29.848-0.121-44.759,0c-1.371-2.062-0.99-4.632-0.933-6.973
	c0.463-4.175,1.136-8.331,2.03-12.443C3.004,7.86,4.914,6.191,6.741,4.649c1.967,0.387,3.832,1.168,5.685,1.916
	c4.48,1.485,9.131,2.303,13.794,2.963c3.173,0.114,6.345,0,9.524,0.038c0.679-0.78,1.415-1.536,1.967-2.424
	C38.48,5.138,36.367,2.784,38.042,1.052z"/>
</svg>
