<?xml version="1.0" encoding="utf-8"?>
<!-- Generator: Adobe Illustrator 18.0.0, SVG Export Plug-In . SVG Version: 6.00 Build 0)  -->
<svg version="1.2" baseProfile="tiny" id="Layer_1" xmlns="http://www.w3.org/2000/svg" xmlns:xlink="http://www.w3.org/1999/xlink"
	 x="0px" y="0px" viewBox="0 0 100.942 33.188" xml:space="preserve">
<path fill="#273347" d="M99.912,20.779c0.628,1.77,1.726,3.978,0.412,5.704c-1.872,2.532-12.49,4.638-21.532,5.511
	c-18.316,1.59-47.059,1.149-54.667,1.105c-7.709-0.444-15.527-0.034-22.881-2.661c-0.254-0.368-0.755-1.104-1.003-1.472
	c-0.349-2.798-0.387-5.679,0.33-8.42c0.876-4.34,1.542-8.725,2.481-13.052c1.631,0.082,3.369-0.197,4.879,0.59
	c5.425,2.189,11.516,3.68,17.316,2.176C31.657,8.433,36.117,3.56,41.302,0c4.251,0.292,8.192,2.151,12.062,3.794
	c8.566,3.648,14.769,7.552,23.271,11.328c3.892,0.886,9.787,2.719,13.791,3.036C90.426,18.158,97.488,18.691,99.912,20.779z"/>
</svg>
