<?xml version="1.0" encoding="utf-8"?>
<!-- Generator: Adobe Illustrator 18.0.0, SVG Export Plug-In . SVG Version: 6.00 Build 0)  -->
<svg version="1.2" baseProfile="tiny" id="Layer_1" xmlns="http://www.w3.org/2000/svg" xmlns:xlink="http://www.w3.org/1999/xlink"
	 x="0px" y="0px" viewBox="0 0 81.742 47.028" xml:space="preserve">
<path fill="#273347" d="M6.753,0c8.19,2.505,16.269,6.597,21.978,13.154c5.439,6.176,10.196,13.431,17.76,17.221
	c4.559,2.672,10.402,2.91,15.215,0.785c3.679,0.143,7.144,1.721,10.688,2.577c3.746,1.01,6.176,2.43,9.348,4.024
	c-1.261,3.687-5.501,4.642-8.539,6.18c-2.727,1.38-10.878,3.088-26.83,3.088c-4.083-0.032-7.548-2.248-10.616-4.682
	c-4.083-3.481-7.849-7.326-12.036-10.696c-1.903-1.514-4.543-3.053-6.93-1.61c-2.347,1.808-2.537,4.916-3.14,7.58
	c-0.777,2.981-0.476,6.073-0.571,9.126c-0.928,0-1.847,0-2.759,0c-1.086-5.169-0.222-10.577-1.966-15.611
	c-2.434-4.646-6.898-8.19-8.246-13.399C-0.747,11.1,3.621,5.431,6.753,0z"/>
</svg>
