<?xml version="1.0" encoding="utf-8"?>
<!-- Generator: Adobe Illustrator 18.0.0, SVG Export Plug-In . SVG Version: 6.00 Build 0)  -->
<svg version="1.2" baseProfile="tiny" id="Layer_1" xmlns="http://www.w3.org/2000/svg" xmlns:xlink="http://www.w3.org/1999/xlink"
	 x="0px" y="0px" viewBox="0 0 80.925 46.487" xml:space="preserve">
<path fill="#273347" d="M41.34,1.558c2.72-0.848,5.495-1.617,8.373-1.554c0.658,6.081,0.999,12.48,4.083,17.927
	c1.546,2.767,3.219,5.907,6.287,7.207c6.501,1.078,11.485,3.226,18.002,3.955c0.499,0.666,1.875,1.051,2.39,1.725
	c0.381,3.877,1.062,6.216-0.73,9.776c-2.743,2.624-6.628,2.807-10.133,3.901c-9.11,2.276-18.466,2.235-27.98,1.666
	c-8.024-0.481-10.478-0.683-16.42-2.112c-1.854-0.446-3.152-0.853-5.019,0.262c-1.713,1.023-2.609,1.688-2.609,1.688
	c-4.63,0.254-9.284,0.151-13.907,0.016c0.119-6.367,0.349-12.789-0.864-19.076C2.323,21.086,0.523,15.441,0,9.613
	c6.779,0.333,13.415,2.085,19.695,4.622C25.475,7.98,33.371,4.206,41.34,1.558z"/>
</svg>
