<?xml version="1.0" encoding="utf-8"?>
<!-- Generator: Adobe Illustrator 18.0.0, SVG Export Plug-In . SVG Version: 6.00 Build 0)  -->
<svg version="1.2" baseProfile="tiny" id="Layer_1" xmlns="http://www.w3.org/2000/svg" xmlns:xlink="http://www.w3.org/1999/xlink"
	 x="0px" y="0px" viewBox="0 0 66.484 66.484" xml:space="preserve">
<g>
	<g>
		<g>
			<path fill="#FFFFFF" d="M32.118,13.678c-1.221,0.191-2.382,0.848-3.134,1.839c-1.043,1.283-1.323,3.122-0.758,4.671
				c0.609,1.772,2.327,3.092,4.198,3.226c1.584,0.147,3.219-0.54,4.21-1.788c1.092-1.294,1.394-3.184,0.808-4.768
				c-0.551-1.576-1.967-2.766-3.585-3.135C33.286,13.616,32.696,13.69,32.118,13.678z M16.367,26.507
				c0.056,0.533,0.594,0.773,0.973,1.059c0.302,0.186,0.559,0.464,0.905,0.562c0.539-0.067,0.299-0.666,0.183-0.998
				c-0.223-0.557-0.217-1.401-0.917-1.591C16.93,25.335,16.263,25.897,16.367,26.507z M11.568,25.887
				c-0.276,0.354-0.225,0.914,0.123,1.201c0.207,0.195,0.497,0.239,0.758,0.312c0.397,0.095,0.787,0.212,1.186,0.294
				c0.269,0.071,0.545-0.287,0.37-0.517c-0.213-0.331-0.478-0.625-0.711-0.942c-0.186-0.227-0.344-0.502-0.622-0.63
				C12.298,25.431,11.81,25.548,11.568,25.887z M19.407,30.54c-0.431,0.471-0.411,1.265,0.053,1.708
				c0.686,0.659,1.428,1.26,2.102,1.931c0.171,0.509,0.208,1.054,0.379,1.563c0.15,0.435,0.532,0.716,0.856,1.016
				c0.834,0.737,1.644,1.501,2.488,2.227c-0.144-0.948,0.433-1.905,1.244-2.367c0.748-0.38,1.599-0.478,2.396-0.714
				c-1.131-1.035-2.271-2.062-3.415-3.082c-0.45-0.415-1.094-0.399-1.663-0.469c-0.237-0.043-0.516,0.005-0.7-0.182
				c-0.651-0.584-1.297-1.173-1.951-1.754C20.697,29.96,19.838,30.013,19.407,30.54z M14.942,31.353
				c-0.181,0.539,0.28,1.172,0.855,1.135c0.594-0.052,1.171-0.224,1.753-0.346c0.311-0.063,0.381-0.52,0.09-0.661
				c-0.446-0.242-0.915-0.439-1.371-0.663C15.783,30.527,15.072,30.787,14.942,31.353z"/>
		</g>
	</g>
	<g>
		<path fill="#FFFFFF" d="M33.856,13.723c-0.57-0.106-1.16-0.033-1.738-0.044c-1.221,0.191-2.382,0.848-3.134,1.839
			c-1.043,1.283-1.323,3.122-0.758,4.671c0.609,1.772,2.327,3.092,4.198,3.226c1.584,0.147,3.219-0.54,4.21-1.788
			c1.092-1.294,1.394-3.184,0.808-4.768C36.891,15.281,35.474,14.091,33.856,13.723z"/>
		<path fill="#FFFFFF" d="M41.235,23.488c-0.831-0.348-1.788-0.289-2.615,0.039c-1.764,0.675-3.53,1.348-5.293,2.024
			c-0.909,0.326-1.56,1.126-1.941,1.987c-0.432,0.983-0.834,1.979-1.256,2.966c-0.511,1.457-1.274,2.817-1.779,4.275
			c0.346,0.305,0.69,0.612,1.032,0.922c1.154-0.296,2.303-0.608,3.457-0.905c0.12-0.048,0.291-0.039,0.346-0.18
			c0.329-0.641,0.631-1.296,0.952-1.942c0.188,0.436,0.382,0.869,0.56,1.31c0.59-1.725,1.214-3.439,1.823-5.158
			c0.051-0.251,0.296-0.335,0.52-0.365c0.009,0.156,0.029,0.317-0.039,0.465c-0.651,1.863-1.302,3.726-1.945,5.592
			c-0.054,0.101-0.052,0.272-0.191,0.299c-2.461,0.642-4.931,1.262-7.392,1.908c-1.007,0.237-1.752,1.25-1.665,2.283
			c0.001,0.668,0.489,1.221,1.046,1.531c0.746,0.403,1.637,0.706,2.48,0.437c2.634-0.734,5.273-1.451,7.904-2.194
			c0.73-0.195,1.309-0.781,1.543-1.493c0.715-2.035,1.422-4.074,2.13-6.111c0.04-0.161,0.144-0.289,0.315-0.316
			c0.029,0.277,0.115,0.568,0.005,0.839c-0.635,1.911-1.267,3.823-1.897,5.736c-0.168,0.648-0.587,1.294-1.236,1.535
			c-0.261,0.122-0.52,0.248-0.78,0.374c0.01,0.195,0.02,0.39,0.028,0.587c-1.745,2.098-3.466,4.215-5.204,6.32
			c-0.289,0.308-0.469,0.696-0.741,1.018c-0.53,0.646-1.049,1.299-1.578,1.947c-0.28,0.364-0.547,0.756-0.658,1.209
			c-0.155,0.6-0.083,1.243,0.146,1.815c1.63,4.046,3.264,8.09,4.894,12.136c0.183,0.477,0.398,0.96,0.776,1.317
			c0.475,0.492,1.149,0.727,1.818,0.788h0.082c0.781-0.066,1.566-0.392,2.039-1.04c0.608-0.773,0.715-1.873,0.343-2.772
			c-1.471-3.665-2.959-7.323-4.433-10.987c-0.077-0.135,0.065-0.237,0.131-0.337c2.006-2.405,4-4.818,6.003-7.225
			c0.09-0.113,0.221-0.177,0.341-0.25c0.092,0.046,0.184,0.093,0.276,0.139c0.03,0.064,0.09,0.192,0.12,0.256
			c-0.167,0.363-0.408,0.683-0.627,1.014c-1.03,1.552-2.062,3.102-3.09,4.654c-0.405,0.599-0.608,1.368-0.426,2.079
			c0.088,0.452,0.333,0.848,0.544,1.25c2.017,3.765,4.035,7.53,6.053,11.295c0.251,0.482,0.509,0.992,0.969,1.311
			c0.462,0.398,1.066,0.537,1.655,0.611h0.012c0.36-0.066,0.731-0.104,1.066-0.263c0.977-0.413,1.631-1.469,1.565-2.527
			c0.004-0.683-0.373-1.272-0.681-1.853c-1.814-3.385-3.631-6.767-5.441-10.153c1.86-2.533,3.715-5.068,5.571-7.603
			c0.587-0.761,0.697-1.835,0.324-2.715c-2.011-5.285-4.03-10.569-6.05-15.854C42.821,24.614,42.132,23.841,41.235,23.488z"/>
		<path fill="#FFFFFF" d="M17.511,25.539c-0.58-0.203-1.248,0.358-1.143,0.968c0.056,0.533,0.594,0.773,0.973,1.059
			c0.302,0.186,0.559,0.464,0.905,0.562c0.539-0.067,0.299-0.666,0.183-0.998C18.205,26.573,18.211,25.729,17.511,25.539z"/>
		<path fill="#FFFFFF" d="M12.672,25.605c-0.374-0.174-0.861-0.057-1.104,0.282c-0.276,0.354-0.225,0.914,0.123,1.201
			c0.207,0.195,0.497,0.239,0.758,0.312c0.397,0.095,0.787,0.212,1.186,0.294c0.269,0.071,0.545-0.287,0.37-0.517
			c-0.213-0.331-0.478-0.625-0.711-0.942C13.108,26.008,12.95,25.733,12.672,25.605z"/>
		<path fill="#FFFFFF" d="M21.196,30.418c-0.499-0.458-1.358-0.405-1.789,0.122c-0.431,0.471-0.411,1.265,0.053,1.708
			c0.686,0.659,1.428,1.26,2.102,1.931c0.171,0.509,0.208,1.054,0.379,1.563c0.15,0.435,0.532,0.716,0.856,1.016
			c0.834,0.737,1.644,1.501,2.488,2.227c-0.144-0.948,0.433-1.905,1.244-2.367c0.748-0.38,1.599-0.478,2.396-0.714
			c-1.131-1.035-2.271-2.062-3.415-3.082c-0.45-0.415-1.094-0.399-1.663-0.469c-0.237-0.043-0.516,0.005-0.7-0.182
			C22.496,31.588,21.85,30.998,21.196,30.418z"/>
		<path fill="#FFFFFF" d="M16.269,30.818c-0.486-0.29-1.197-0.031-1.327,0.535c-0.181,0.539,0.28,1.172,0.855,1.135
			c0.594-0.052,1.171-0.224,1.753-0.346c0.311-0.063,0.381-0.52,0.09-0.661C17.194,31.239,16.725,31.042,16.269,30.818z"/>
	</g>
</g>
<rect x="0" y="0" fill="none" width="66.484" height="66.484"/>
</svg>
