<?xml version="1.0" encoding="utf-8"?>
<!-- Generator: Adobe Illustrator 18.0.0, SVG Export Plug-In . SVG Version: 6.00 Build 0)  -->
<svg version="1.2" baseProfile="tiny" id="Layer_1" xmlns="http://www.w3.org/2000/svg" xmlns:xlink="http://www.w3.org/1999/xlink"
	 x="0px" y="0px" viewBox="0 0 66.484 66.484" xml:space="preserve">
<g>
	<g>
		<path fill="#FFFFFF" d="M33.202,13.263c1.079-0.195,2.183,0.101,3.144,0.586c1.835,0.966,2.917,3.11,2.718,5.159
			c-0.157,1.66-1.207,3.21-2.676,4.003c-1.085,0.633-2.412,0.779-3.63,0.528c-2.052-0.458-3.785-2.271-3.962-4.393
			c-0.125-1.063-0.022-2.208,0.594-3.113C30.048,14.503,31.6,13.533,33.202,13.263z"/>
		<path fill="#FFFFFF" d="M44.403,22.495c0.662-1.406,2.779-1.681,3.825-0.565c0.765,0.732,0.837,1.961,0.392,2.881
			c-1.295,2.977-2.579,5.958-3.871,8.934c-0.417,1.079-1.632,1.827-2.783,1.557c-0.819-0.229-1.434-0.847-2.115-1.321
			c-0.765-0.52-1.449-1.158-2.259-1.607c-0.647,2.777-1.22,5.57-1.863,8.349c-0.148,1.014-0.587,2.005-0.509,3.041
			c1.155,2.481,2.409,4.917,3.614,7.376c0.934,1.619,1.045,3.526,1.532,5.296c0.241,1.309,0.625,2.585,0.845,3.898
			c0.276,0.91,0.389,1.86,0.663,2.77c0.167,0.498,0.131,1.033,0.101,1.549c-0.236,0.765-0.848,1.409-1.59,1.71
			c-1.126,0.385-2.503-0.179-2.972-1.293c-0.336-0.983-0.44-2.028-0.727-3.027c-0.263-0.92-0.377-1.873-0.608-2.801
			c-0.26-0.845-0.349-1.731-0.614-2.575c-0.247-1.114-0.37-2.279-0.909-3.304c-1.346-2.667-2.619-5.374-4.003-8.02
			c-0.075-0.006-0.222-0.016-0.295-0.021c-0.47,2.21-1.036,4.4-1.428,6.629c-0.208,0.687-0.338,1.393-0.502,2.09
			c-0.244,0.772-0.699,1.45-1.01,2.193c-1.01,2.058-2.02,4.117-3.018,6.182c-0.525,0.914-0.828,1.957-1.48,2.798
			c-0.439,0.387-0.985,0.763-1.6,0.715c-1.513,0.201-2.87-1.427-2.529-2.881c0.22-0.602,0.496-1.182,0.793-1.75
			c1.113-2.307,2.256-4.599,3.348-6.915c0.432-0.944,1.051-1.846,1.102-2.917c0.339-1.029,0.389-2.124,0.715-3.157
			c0.191-1.413,0.663-2.771,0.828-4.191c0.87-3.78,1.664-7.577,2.542-11.355c0.037-0.734,0.451-1.4,0.323-2.147
			c-1.764,0.44-3.558,0.756-5.294,1.299c0.236,1.064,0.712,2.065,0.904,3.147c0.432,1.096,0.669,2.256,1.052,3.37
			c0.332,0.749,0.367,1.618,0.181,2.406c-0.338,0.581-0.816,1.14-1.472,1.362c-1.192,0.477-2.717-0.282-3.049-1.525
			c-1.048-3.314-2.015-6.652-3.034-9.974c-0.047-0.57-0.126-1.202,0.211-1.704c0.368-0.787,1.212-1.233,2.04-1.356
			c3.389-0.788,6.774-1.609,10.166-2.382c1.598-0.411,3.278-0.848,4.929-0.487c0.975,0.274,1.751,0.958,2.561,1.532
			c1.264,0.941,2.555,1.845,3.809,2.801c0.069-0.07,0.208-0.211,0.277-0.282C42.577,26.727,43.441,24.588,44.403,22.495z"/>
	</g>
	<path fill="#FFFFFF" d="M47.153,20.826l-2.509,0.283c-0.169,0.019-0.321-0.102-0.34-0.271l-0.531-4.704
		c-0.019-0.169,0.102-0.321,0.271-0.34l2.509-0.283c0.169-0.019,0.321,0.102,0.34,0.271l0.531,4.704
		C47.444,20.654,47.322,20.807,47.153,20.826z"/>
</g>
<rect x="0" y="0" fill="none" width="66.484" height="66.484"/>
</svg>
