<?xml version="1.0" encoding="utf-8"?>
<!-- Generator: Adobe Illustrator 18.0.0, SVG Export Plug-In . SVG Version: 6.00 Build 0)  -->
<svg version="1.2" baseProfile="tiny" id="Layer_1" xmlns="http://www.w3.org/2000/svg" xmlns:xlink="http://www.w3.org/1999/xlink"
	 x="0px" y="0px" viewBox="0 0 66.484 66.484" xml:space="preserve">
<g>
	<path fill="#FFFFFF" d="M31.093,4.455c1.373-0.271,2.893-0.053,4.002,0.847c0.591,0.554,1.226,1.113,1.515,1.894
		c0.294,0.586,0.334,1.24,0.461,1.871c-0.085,1.052-0.345,2.136-1.028,2.972c-0.835,1.171-2.235,1.808-3.642,1.947
		c-1.502-0.005-3.036-0.643-3.96-1.857c-1.307-1.59-1.393-4.042-0.196-5.717C28.956,5.483,29.924,4.707,31.093,4.455z"/>
	<g>
		<path fill="#FFFFFF" d="M16.039,9.973c0.461-0.34,1.075-0.676,1.659-0.475c0.594,0.119,1.037,0.599,1.327,1.101
			c0.995,1.765,1.987,3.531,2.983,5.294c1.046-0.494,1.964-1.213,2.959-1.801c0.865-0.526,1.701-1.099,2.561-1.632
			c0.337-0.21,0.57,0.212,0.786,0.401c0.783,0.875,1.897,1.366,3.012,1.638c0.534,0.016,1.069,0.008,1.602,0.005
			c2.02-0.282,3.847-1.785,4.429-3.758c0.058-0.384,0.127-0.772,0.412-1.059c2.871,0.014,5.744-0.01,8.616,0.01
			c0.668,0.165,1.244,0.746,1.295,1.456c0.019,0.382,0.085,0.757,0.143,1.135c0.093,0.916-0.08,1.852,0.138,2.759
			c0.133,0.985-0.039,1.988,0.108,2.975c0.156,0.952,0.101,1.921,0.093,2.881c-0.234,0.777-0.948,1.385-1.759,1.47
			c-0.451-0.066-0.889-0.244-1.247-0.53c-0.461-0.451-0.575-1.106-0.661-1.717c-0.093-1.39,0.13-2.802-0.162-4.174
			c-0.063-0.908,0.159-1.929-0.337-2.744c-0.815,0.159-1.64-0.066-2.451,0.101c-0.671,0.058-1.345,0.03-2.016,0.072
			c0.794,3.824,1.675,7.632,2.494,11.453c0.144,0.782,0.465,1.552,0.342,2.359c-0.215,2.661-0.103,5.331-0.14,7.997
			c3.393,1.163,6.844,2.154,10.261,3.246c1.17,0.307,2,1.505,1.948,2.702c-0.058,1.658-1.939,3.073-3.527,2.417
			c-3.518-1.078-7.023-2.195-10.54-3.274c-0.958-0.345-2.041-0.483-2.831-1.18c-0.351-0.432-0.658-0.942-0.756-1.494
			c-0.011-1.659-0.006-3.32-0.002-4.98c0.075-0.924,0.191-1.849,0.148-2.776c-0.465,0.152-0.687,0.648-1.109,0.87
			c-0.497,0.268-1.062,0.356-1.606,0.478c-2.922,0.663-5.854,1.279-8.77,1.972c-1.037,0.652-1.735,1.703-2.725,2.417
			c-0.652,0.576-1.244,1.22-1.934,1.754c-0.733,0.656-1.362,1.428-2.16,2.012c-0.849,0.759-1.587,1.642-2.54,2.28
			c-0.672,0.504-1.665,0.663-2.356,0.276c-0.732-0.409-1.541-0.964-1.663-1.89c0.047-0.555-0.189-1.231,0.263-1.666
			c0.223-0.316,0.392-0.669,0.629-0.976c1.164-1.142,10.071-9.167,11.124-9.407c0.559-0.095,5.074-1.125,6.233-1.411
			c-0.225-0.74-0.378-1.482-0.634-2.226c-0.358-1.04-1.276-5.819-1.783-7.796c-1.537,0.903-3.012,1.915-4.527,2.855
			c-0.669,0.398-1.319,1.025-2.16,0.895c-0.555,0.047-0.987-0.387-1.318-0.777c-1.139-1.972-2.202-3.989-3.36-5.952
			c-0.38-0.754-0.865-1.464-1.106-2.279C15.535,10.815,15.761,10.362,16.039,9.973z"/>
	</g>
	<path fill="#FFFFFF" d="M30.506,39.695c-0.011-0.238,0.037-0.509,0.332-0.504c0.151,0.196,0.294,0.422,0.266,0.682
		c-0.003,3.258-0.006,6.515,0.003,9.773c-0.014,0.538,0.109,1.104-0.112,1.616c-0.12-0.003-0.363-0.006-0.483-0.008
		C30.503,47.403,30.533,43.548,30.506,39.695z"/>
	<path fill="#FFFFFF" d="M33.573,41.76c0.246,0.01,0.648,0.035,0.632,0.371c0.008,3.782,0.01,7.565-0.002,11.347
		c0.016,0.327-0.358,0.367-0.603,0.335C33.53,49.797,33.583,45.778,33.573,41.76z"/>
	<path fill="#FFFFFF" d="M32.316,43.906c0.072,0.04,0.217,0.12,0.287,0.159c0,5.724,0.006,11.447-0.003,17.171
		c-0.239,0.026-0.451-0.077-0.645-0.202c0.021-5.604-0.003-11.208,0.011-16.812C32.085,44.118,32.201,44.012,32.316,43.906z"/>
</g>
<rect x="0" y="0" fill="none" width="66.484" height="66.484"/>
</svg>
