<?xml version="1.0" encoding="utf-8"?>
<!-- Generator: Adobe Illustrator 18.0.0, SVG Export Plug-In . SVG Version: 6.00 Build 0)  -->
<svg version="1.2" baseProfile="tiny" id="Layer_1" xmlns="http://www.w3.org/2000/svg" xmlns:xlink="http://www.w3.org/1999/xlink"
	 x="0px" y="0px" viewBox="0 0 66.484 66.484" xml:space="preserve">
<g>
	<g>
		<g>
			<path fill="#3BE8B0" d="M29.879,28.375c0.013,0.125,0.025,0.251,0.036,0.376c0.964,0.07,1.931,0.269,2.824,0.646
				c0.895,0.378,1.486,1.256,1.705,2.178c0.156,1.087-0.52,2.151-1.408,2.728c-0.754,0.504-1.734,0.419-2.555,0.139
				c-1.083-0.362-0.247-0.241-1.366-0.407c-0.779-0.008-1.59-0.107-2.342,0.145c-0.321,0.16-0.495,0.503-0.686,0.79
				c-0.572,0.994-1.086,2.021-1.563,3.064c-0.744,1.805-1.291,3.685-1.78,5.574c-0.071,0.612-0.055,1.233-0.019,1.847
				c0.169,1.263,0.864,2.481,1.95,3.172c0.386,0.28,0.863,0.474,1.122,0.894c0.754,1.222,1.939,3.164,2.732,4.362
				c0.261,0.446,0.673,0.871,0.567,1.43c-3.025,1.533-7.141,3.505-10.164,5.04c-0.766,0.378-2.413,1.229-3.05,1.871
				c-1.042,1.049-1.36,1.757-0.574,3.08c0.664,1.12,1.981,1.207,3.22,0.899c1.152-0.457,2.235-1.067,3.346-1.612
				c3.369-1.71,6.75-3.398,10.118-5.114c0.931-0.471,2.002-0.863,2.581-1.792c0.771-1.144,0.706-2.712-0.035-3.853
				c-1.465-2.371-2.889-4.766-4.357-7.134c-0.202-0.284-0.19-0.664-0.093-0.983c1.249-3.395,3.166-6.483,5.157-9.482
				c0.386-0.561,0.686-1.188,1.176-1.672c1.468,0.858,2.927,1.735,4.401,2.584c0.876,0.525,1.854,1.307,2.935,0.872
				c2.683-0.948,5.239-2.213,7.886-3.256c0.8-0.37,1.811-0.531,2.298-1.35c0.689-1.002,0.348-2.551-0.736-3.123
				c-0.648-0.397-1.463-0.356-2.154-0.106c-2.418,1.037-4.868,1.996-7.293,3.014c-0.28,0.103-0.621,0.322-0.885,0.065
				c-2.149-1.372-4.427-2.537-6.554-3.94c-0.863-0.921-2.102-1.38-3.341-1.468C31.916,27.791,30.891,28.102,29.879,28.375z
				 M24.52,29.077c-3.834,0.329-7.543,2.069-10.198,4.864c-0.73,0.765-1.463,1.565-1.938,2.521c-0.4,0.722-0.152,1.626,0.357,2.225
				c0.847,1.067,2.718,1,3.48-0.137c0.928-1.282,2.04-2.434,3.385-3.281c0.959-0.576,1.766-1.107,4.77-1.754
				c0.902-0.193,1.833-0.122,2.751-0.131c1.421-0.019,2.816,0.318,4.172,0.713c0.678,0.22,1.369-0.156,1.876-0.583
				c0.876-0.759,0.909-2.228,0.114-3.055c-0.583-0.648-1.489-0.785-2.293-0.98c-0.762-0.126-1.503-0.387-2.284-0.379
				C27.324,28.943,25.909,28.891,24.52,29.077z M30.809,45.57c-0.392,0.597-0.023-0.129-0.279,0.531
				c0.773,1.571,1.792,3.006,2.665,4.521c0.337,0.496,0.548,1.105,1.038,1.478c0.906,0.409,2.514,0.435,3.402,0.894
				c-0.035,0.266-0.04,0.539-0.125,0.797c-0.817,2.426-1.579,4.869-2.328,7.316c-0.205,0.676-0.507,1.303-0.597,2.073
				c-0.582,2.298,0.408,3.453,2.507,3.288c1.041-0.082,2.16-1.327,2.533-2.424c1.168-3.809,1.849-6.178,3.046-9.98
				c0.294-0.951,0.781-1.993,0.34-2.977c-0.414-1.362-1.535-2.438-2.905-2.68C36.621,47.444,34.283,46.57,30.809,45.57z"/>
		</g>
	</g>
	<g>
		<path fill="#3BE8B0" d="M36.367,17.683c0.624-0.1,1.266-0.077,1.895-0.042c1.32,0.248,2.601,0.972,3.32,2.131
			c0.695,1.002,0.979,2.257,0.854,3.465c-0.201,1.191-0.769,2.337-1.691,3.133c-0.684,0.559-1.491,0.997-2.363,1.165
			c-0.972,0.054-2.003,0.134-2.909-0.297c-1.318-0.523-2.323-1.668-2.801-2.988c-0.476-1.361-0.331-2.924,0.401-4.167
			C33.748,18.844,35.001,17.986,36.367,17.683z"/>
	</g>
</g>
<rect x="0" y="0" fill="none" width="66.484" height="66.484"/>
</svg>
