<?xml version="1.0" encoding="utf-8"?>
<!-- Generator: Adobe Illustrator 18.0.0, SVG Export Plug-In . SVG Version: 6.00 Build 0)  -->
<svg version="1.2" baseProfile="tiny" id="Layer_1" xmlns="http://www.w3.org/2000/svg" xmlns:xlink="http://www.w3.org/1999/xlink"
	 x="0px" y="0px" viewBox="0 0 66.484 66.484" xml:space="preserve">
<rect x="0" y="0" fill="none" width="66.484" height="66.484"/>
<g>
	<g>
		<g>
			<g>
				<path fill="#3BE8B0" d="M36.3,62.686c0.002-0.288,0.003-0.585,0.021-0.875c0.471-6.499,2.335-12.737,5.391-18.04
					c0.201-0.365,0.435-0.721,0.661-1.065c0.458-0.698,0.89-1.357,1.109-2.129c0.292-1.2,0.567-2.427,0.834-3.613
					c0.118-0.527,0.237-1.054,0.357-1.581c0.17-0.799,0.272-1.629,0.37-2.432c0.061-0.493,0.123-1.003,0.201-1.504
					c0.222-2.354-0.095-4.668-0.47-6.819c-0.078-0.445-0.026-0.928,0.158-1.475c0.466-1.433-0.228-2.92-0.683-3.679
					c-1.133-1.963-3.079-3.345-4.796-4.565c-2.795-1.839-5.948-3.488-9.369-4.9l-0.013-0.006c-0.161-0.081-0.339-0.122-0.528-0.122
					c-0.388,0-0.827,0.18-1.173,0.482c-0.391,0.345-0.576,0.925-0.483,1.513c0.085,0.538,0.384,0.955,0.821,1.144
					c0.37,0.17,0.736,0.336,1.103,0.503c1.394,0.632,2.835,1.286,4.201,2.044c2.465,1.35,4.836,2.73,6.729,4.748l0.01,0.012
					c0.041,0.051,0.083,0.103,0.126,0.155c0.396,0.484,0.845,1.033,0.841,1.729l-0.001,0.173l-0.171,0.027
					c-0.463,0.074-0.931,0.179-1.383,0.281c-0.343,0.077-0.698,0.157-1.052,0.224c-0.128,0.029-0.268,0.055-0.404,0.08
					c-0.548,0.102-1.066,0.197-1.424,0.577c-0.982,0.982-2.42,1.592-3.951,1.679c-0.057,0.006-0.116,0.009-0.175,0.009
					c-0.26,0-0.512-0.059-0.756-0.115c-0.229-0.053-0.445-0.103-0.653-0.103c-0.145,0-0.274,0.025-0.392,0.077
					c-2.546,1.454-5.544,2.192-8.912,2.192c-1.162,0-2.357-0.092-3.551-0.272c-0.2-0.028-0.402-0.066-0.598-0.104
					c-0.364-0.07-0.708-0.136-1.06-0.139c-0.485,0.004-0.966,0.275-1.284,0.726c-0.307,0.436-0.399,0.962-0.246,1.407
					c0.14,0.333,0.46,0.91,1.046,1.093c1.549,0.394,3.278,0.578,5.441,0.578c0.955,0,1.918-0.034,2.817-0.072
					c2.546-0.317,4.536-0.838,6.261-1.638c0.332-0.164,0.624-0.262,0.915-0.307l0.136-0.021l0.07,0.118
					c0.872,1.463,1.44,2.934,1.689,4.373l0.002,0.02c0.097,1.349,0.157,3.361-0.437,5.243l-0.009,0.029l-0.017,0.025
					c-0.141,0.206-0.359,0.29-0.55,0.364c-0.047,0.018-0.094,0.036-0.138,0.056l-0.018,0.007c-1.625,0.544-3.272,1.118-4.864,1.673
					c-1.309,0.456-2.663,0.928-3.999,1.381c-0.1,0.038-0.208,0.076-0.316,0.114c-0.455,0.16-0.925,0.326-1.259,0.657l-0.007,0.006
					c-0.548,0.494-0.856,1.244-0.846,2.057c0.01,0.787,0.325,1.503,0.864,1.964c1.306,1.063,2.643,2.142,3.936,3.185
					c1.245,1.005,2.533,2.043,3.796,3.071c0.072,0.057,0.144,0.119,0.217,0.18c0.234,0.198,0.456,0.387,0.716,0.479
					c0.086-0.306,0.171-0.612,0.256-0.919c0.364-1.313,0.741-2.67,1.204-3.98c0.01-0.039,0.022-0.08,0.033-0.121
					c0.063-0.225,0.128-0.457,0.048-0.627c-0.313-0.306-0.673-0.581-1.022-0.846c-0.512-0.39-1.042-0.794-1.457-1.318l-0.177-0.224
					l0.27-0.095c0.517-0.182,1.045-0.356,1.556-0.524c0.777-0.256,1.58-0.52,2.353-0.816l0.023-0.007
					c0.218-0.055,0.333-0.307,0.455-0.573c0.149-0.326,0.334-0.731,0.788-0.731c0.087,0,0.182,0.016,0.28,0.048l0.227,0.073
					l-0.108,0.213c-2.717,5.371-4.423,11.494-4.933,17.708l-0.003,0.021c-0.122,0.652-0.125,1.335-0.127,1.997
					c-0.001,0.27-0.002,0.548-0.011,0.823l-0.001,0.012c-0.06,0.663,0.193,1.358,0.693,1.905c0.523,0.572,1.227,0.9,1.931,0.9
					c0.016,0,0.033,0,0.049-0.001l0.006,0l0.006,0c0.961,0.041,1.954-0.568,2.455-1.489C36.291,64.285,36.295,63.508,36.3,62.686z"
					/>
				<path fill="#3BE8B0" d="M33.284,24.33c0.065,0,0.13-0.001,0.194-0.004c1.303-0.031,2.636-0.67,3.569-1.71
					c0.865-0.964,1.291-2.137,1.204-3.308c-0.091-0.155-0.253-0.27-0.425-0.391c-0.064-0.045-0.13-0.092-0.193-0.141
					c-2.183-1.534-4.535-2.746-6.548-3.73c-0.054-0.02-0.106-0.045-0.157-0.07C30.855,14.94,30.771,14.9,30.72,14.9
					c-0.013,0-0.027,0.002-0.049,0.023l-0.03,0.023c-0.72,0.451-1.32,1.059-1.735,1.757c-1.046,1.76-0.877,4.177,0.401,5.746
					C30.199,23.611,31.721,24.33,33.284,24.33z"/>
			</g>
		</g>
	</g>
</g>
</svg>
