<?xml version="1.0" encoding="utf-8"?>
<!-- Generator: Adobe Illustrator 18.0.0, SVG Export Plug-In . SVG Version: 6.00 Build 0)  -->
<svg version="1.2" baseProfile="tiny" id="Layer_1" xmlns="http://www.w3.org/2000/svg" xmlns:xlink="http://www.w3.org/1999/xlink"
	 x="0px" y="0px" viewBox="0 0 66.484 66.484" xml:space="preserve">
<g>
	<path fill="#FFFFFF" d="M48.737,25.695l-3.306-9.756c-0.367-1.081-1.54-1.66-2.62-1.294c-1.081,0.366-1.66,1.54-1.294,2.62
		l2.381,6.991H22.834l2.381-7.027c0.366-1.081-0.213-2.254-1.294-2.62c-1.081-0.366-2.254,0.213-2.62,1.294l-3.306,9.756
		c-0.214,0.631-0.11,1.326,0.278,1.867c0.388,0.541,1.013,0.862,1.679,0.862h8v10.723l-8.463,2.218
		c-0.68,0.178-1.252,0.636-1.574,1.26c-0.323,0.624-0.365,1.356-0.118,2.013l3.366,8.933c0.374,0.994,1.318,1.606,2.321,1.606
		c0.29,0,0.586-0.051,0.874-0.16c1.282-0.483,1.929-1.913,1.446-3.195l-2.396-6.357l5.092-1.334h5.624l2.512,7.294l-2.598,12.093
		c-0.288,1.339,0.565,2.657,1.904,2.945c0.176,0.038,0.351,0.056,0.523,0.056c1.144,0,2.172-0.796,2.422-1.959l2.743-12.769
		c0.095-0.442,0.067-0.901-0.08-1.328l-2.653-7.705V28.425h7.884c0.666,0,1.291-0.321,1.679-0.862
		C48.848,27.021,48.951,26.326,48.737,25.695z"/>
	<circle fill="#FFFFFF" cx="33.446" cy="18.644" r="4.283"/>
</g>
<rect x="0" y="0" fill="none" width="66.484" height="66.484"/>
</svg>
