<?xml version="1.0" encoding="utf-8"?>
<!-- Generator: Adobe Illustrator 18.0.0, SVG Export Plug-In . SVG Version: 6.00 Build 0)  -->
<svg version="1.2" baseProfile="tiny" id="Layer_1" xmlns="http://www.w3.org/2000/svg" xmlns:xlink="http://www.w3.org/1999/xlink"
	 x="0px" y="0px" viewBox="0 0 66.484 66.484" xml:space="preserve">
<g>
	<path fill="#FFFFFF" d="M43.906,9.042c0.513-0.403,1.135-0.733,1.808-0.681c1.009-0.094,1.993,0.565,2.431,1.454
		c0.9,2.128,1.363,4.407,1.752,6.673c0.087,1.612,0.081,3.228,0.025,4.84c-0.438,4.024-2.279,7.919-5.254,10.688
		c-0.305,0.294-0.705,0.509-0.911,0.893c-0.217,1.347-0.298,2.709-0.433,4.063c-0.249,2.657-0.768,5.311-1.787,7.787
		c-0.348,0.952-0.884,1.817-1.289,2.742c-0.002,1.112-0.133,2.219-0.203,3.328c-0.24,1.251-0.414,2.511-0.646,3.763
		c-0.787,3.659-1.736,7.29-2.944,10.836c-0.363,1.039-1.86,1.411-2.666,0.662c-0.474-0.427-0.847-1.139-0.571-1.773
		c1.26-3.993,2.42-8.03,3.102-12.169c0.141-1.012,0.362-2.027,0.29-3.055c-0.463-0.69-0.59-1.538-1.051-2.23
		c-0.963-1.547-2.768-2.584-4.607-2.469c-0.541-0.036-1.054,0.19-1.59,0.187c-0.617-0.408-0.951-1.112-1.492-1.608
		c-0.574-0.528-1.068-1.246-1.86-1.452c-0.027,0.336-0.044,0.674-0.097,1.009c-0.244,1.382-0.016,2.788-0.095,4.178
		c-0.149,0.749-0.916,1.333-1.687,1.235c-0.839,0.113-1.627-0.62-1.684-1.443c-0.203-1.423-0.159-2.88,0.022-4.304
		c0.117-1.325,0.551-2.745,1.63-3.602c0.744-0.657,1.838-0.8,2.766-0.503c1.292,0.409,2.366,1.292,3.294,2.252
		c1.347-1.209,2.596-2.617,3.209-4.35c0.292-0.911,0.628-1.839,0.543-2.814c-3.915-1.119-7.698-2.693-11.275-4.635
		c-2.571-1.411-5.005-3.082-7.209-5.016c-0.765-0.733-1.804-1.49-1.725-2.679c-0.132-1.074,0.53-2.12,1.485-2.579
		c0.501-0.294,1.106-0.244,1.662-0.213c0.862,0.111,1.457,0.793,2.05,1.358c2.003,1.757,4.226,3.252,6.562,4.532
		c3.896,2.08,8.055,3.671,12.351,4.705c0.462,0.081,0.833,0.375,1.206,0.636c0.144,0.122,0.36,0.078,0.498-0.029
		c2.136-1.506,3.815-3.683,4.574-6.199c1.093-3.601,0.441-7.471-0.814-10.942C42.88,11.089,43.061,9.804,43.906,9.042z"/>
	<path fill="#FFFFFF" d="M30.242,44.893c0.895-0.262,1.834-0.036,2.69,0.268c1.865,0.741,3.12,2.73,3.028,4.727
		c-0.078,2.42-2.234,4.616-4.685,4.566c-1.679,0.117-3.385-0.789-4.259-2.223c-0.459-0.806-0.805-1.72-0.757-2.661
		C26.27,47.333,28.006,45.221,30.242,44.893z"/>
</g>
<rect x="0" y="0" fill="none" width="66.484" height="66.484"/>
</svg>
