<?xml version="1.0" encoding="utf-8"?>
<!-- Generator: Adobe Illustrator 18.0.0, SVG Export Plug-In . SVG Version: 6.00 Build 0)  -->
<svg version="1.2" baseProfile="tiny" id="Layer_1" xmlns="http://www.w3.org/2000/svg" xmlns:xlink="http://www.w3.org/1999/xlink"
	 x="0px" y="0px" viewBox="0 0 66.484 66.484" xml:space="preserve">
<rect x="0" y="0" fill="none" width="66.484" height="66.484"/>
<g>
	<g>
		<path fill="#FC636B" d="M24.538,35.819H23.19c-0.222,0-0.401-0.113-0.401-0.325c0-0.212,0.179-0.325,0.401-0.325h2.036
			c0.198,0,0.358,0.085,0.358,0.354c0,0.094-0.038,0.198-0.108,0.278l-1.777,2.112h1.508c0.222,0,0.401,0.113,0.401,0.325
			s-0.179,0.325-0.401,0.325H23.11c-0.283,0-0.448-0.094-0.448-0.382c0-0.122,0.057-0.212,0.127-0.297L24.538,35.819z"/>
	</g>
	<g>
		<path fill="#FC636B" d="M28.846,32.865h-1.611c-0.265,0-0.479-0.135-0.479-0.389s0.214-0.389,0.479-0.389h2.433
			c0.237,0,0.428,0.101,0.428,0.422c0,0.113-0.045,0.237-0.129,0.332l-2.123,2.523h1.802c0.265,0,0.479,0.135,0.479,0.389
			c0,0.254-0.214,0.389-0.479,0.389h-2.506c-0.338,0-0.535-0.113-0.535-0.456c0-0.146,0.068-0.253,0.152-0.355L28.846,32.865z"/>
	</g>
	<g>
		<path fill="#FC636B" d="M8.146,50.632c0.95-0.823,2.494-0.82,3.438,0.009c0.643,0.543,0.935,1.402,0.932,2.226
			c0.005,5.471-0.001-2.719,0.003,2.751c13.796,0.001,27.592,0.001,41.388,0c0.003-3.186-0.003,0.284,0.003-2.902
			c0.005-0.903,0.355-1.845,1.093-2.401c0.922-0.724,2.333-0.704,3.235,0.044c0.708,0.564,1.026,1.487,1.042,2.369v13.698
			c-1.772-0.001-3.543,0.001-5.315-0.001c0-2.624,0.001-2.952-0.001-5.576c-13.775-0.001-27.551-0.001-41.326,0
			c-0.001,2.642,0,2.989-0.001,5.632c-1.811,0.002-3.623,0.001-5.434,0.001v-13.77C7.241,51.936,7.535,51.139,8.146,50.632z"/>
		<path fill="#FC636B" d="M17.592,39.847c0.998-0.148,2.041,0.018,2.937,0.482c0.96,0.491,1.747,1.31,2.197,2.29
			c0.476,1.023,0.575,2.215,0.28,3.303c-0.265,0.997-0.862,1.899-1.67,2.539c-0.81,0.648-1.833,1.025-2.871,1.054
			c-0.956,0.033-1.92-0.225-2.73-0.734c-0.92-0.572-1.639-1.459-2.004-2.479c-0.415-1.148-0.376-2.453,0.112-3.573
			C14.488,41.208,15.956,40.075,17.592,39.847z"/>
		<path fill="#FC636B" d="M24.317,43.756c0.723-0.686,1.911-0.784,2.743-0.242c0.744,0.461,1.108,1.355,1.109,2.206
			c0.006,2.147,0.001,4.294,0.003,6.441c0.006,0.611-0.184,1.232-0.579,1.704c-0.327,0.398-0.799,0.672-1.308,0.76
			c-0.24,0.044-0.485,0.04-0.728,0.04c-3.189-0.001-6.377,0.002-9.566-0.001c-0.786-0.002-1.614-0.271-2.132-0.889
			c-0.654-0.747-0.695-1.94-0.099-2.734c0.503-0.702,1.39-1.021,2.23-1.023c2.509-0.003,5.019,0,7.529-0.002
			c0.001-1.408-0.003-2.816,0.001-4.224C23.517,45.049,23.755,44.268,24.317,43.756z"/>
		<path fill="#FC636B" d="M28.812,43.277c6.467-0.001,12.934-0.001,19.4,0c1.005-0.007,2.038,0.223,2.871,0.806
			c0.818,0.559,1.381,1.451,1.588,2.416c0.152,0.641,0.108,1.302,0.115,1.954c-0.001,2.05,0,4.1-0.001,6.15
			c-7.991,0.001-15.982,0.001-23.973,0C28.812,50.828,28.812,47.053,28.812,43.277z"/>
	</g>
</g>
</svg>
