<?xml version="1.0" encoding="utf-8"?>
<!-- Generator: Adobe Illustrator 18.0.0, SVG Export Plug-In . SVG Version: 6.00 Build 0)  -->
<svg version="1.2" baseProfile="tiny" id="Layer_1" xmlns="http://www.w3.org/2000/svg" xmlns:xlink="http://www.w3.org/1999/xlink"
	 x="0px" y="0px" viewBox="0 0 31.807 117.14" xml:space="preserve">
<g>
	<path fill="#273347" d="M14.958,0.056c1.034-0.051,2.39-0.145,3.39,0.148c0.719,0.105,1.381,0.42,2.077,0.593
		c0.374,0.24,0.831,0.389,1.082,0.779c0.103,0.206,0.279,0.383,0.309,0.619c0.064,0.343,0.248,0.663,0.212,1.021
		c0.041,0.665-0.224,1.298-0.222,1.959c0.002,0.434-0.342,0.792-0.299,1.231c0.029,0.82-0.077,1.653,0.109,2.461
		c-0.249,0.796-0.119,1.677,0.278,2.402c0.169,0.274,0.15,0.61,0.225,0.915c0.108,0.694-0.255,1.315-0.549,1.911
		c-0.094,0.302-0.221,0.589-0.363,0.87c-0.017,1.233,0.001,2.467-0.008,3.7c-0.014,0.377,0.113,0.738,0.129,1.112
		c0.169,0.707-0.168,1.634,0.141,2.315c0.164,0.81,0.113,1.703,0.23,2.532c0.226,1.594,0.276,3.22,0.442,4.819
		c0.063,0.244,0.2,0.473,0.189,0.734c-0.075,1.64,0.553,3.371,0.72,4.995c0.097,0.944,0.408,1.885,0.572,2.824
		c0.143,0.821,0.255,1.707,0.542,2.504c0.11,0.277,0.123,0.572,0.145,0.866c0.254,0.424,0.21,0.94,0.39,1.39
		c0.223,0.556,0.49,1.191,0.543,1.8c0.448,0.952,0.623,2.021,0.927,3.015c0.333,1.088,0.735,2.166,1.085,3.26
		c0.155,0.485,0.303,0.968,0.452,1.454c0.166,0.54,0.559,1.07,0.604,1.648c0.011,0.191,0.182,0.316,0.218,0.501
		c0.123,0.477,0.379,0.916,0.426,1.413c0.296,0.442,0.214,1.021,0.512,1.462c0.142,1.005,0.466,2.014,0.713,2.993
		c0.148,0.769,0.34,1.521,0.48,2.284c0.079,0.432,0.087,0.873,0.148,1.308c0.128,0.448,0.276,0.901,0.271,1.373
		c-0.056,0.895,0.265,1.816,0.306,2.711c0.02,0.441-0.041,0.893,0.009,1.332c0.05,0.438,0.218,0.86,0.205,1.306
		c0.137,0.719,0.101,1.453,0.09,2.18c-0.012,0.774,0.25,1.629,0.032,2.38c-0.153,0.698,0.058,1.589,0.046,2.313
		c-0.015,0.932-0.033,1.865-0.048,2.797c-0.055,3.542-0.02,7.085-0.023,10.627c-0.004,3.411-0.044,6.821-0.075,10.231
		c-0.016,1.722-0.029,3.445-0.039,5.167c-0.01,1.724,0.188,3.556,0.01,5.266c0.039,0.695-0.433,1.441-0.554,2.116
		c-0.374,0.688-0.776,1.415-1.481,1.816c-0.621,0.292-1.248,0.603-1.927,0.737c-0.45,0.224-0.962,0.229-1.445,0.321
		c-0.933,0.35-2.049,0.287-3.028,0.35c-1.074,0.07-2.219,0.252-3.289,0.216c-2.473-0.002-4.948-0.033-7.421,0
		c-0.916,0.012-2.034,0.008-2.936-0.159c-1.06-0.223-2.223,0.044-3.264-0.226c-0.845-0.064-1.789-0.345-2.598-0.576
		c-0.852-0.371-1.787-0.678-2.388-1.435c-0.309-0.532-0.706-1.054-0.773-1.689c-0.137-0.305-0.279-0.623-0.279-0.964
		c0.008-0.38-0.14-0.741-0.11-1.121c-0.048-0.758,0.109-1.551,0.108-2.316c-0.002-1.028-0.008-2.057-0.026-3.085
		c-0.017-0.921-0.148-1.978-0.009-2.879c0.076-0.495-0.122-0.954-0.054-1.459c0.066-0.491,0.133-0.948,0.066-1.449
		c-0.274-2.047-0.083-4.235-0.079-6.304c0.004-2.115,0.007-4.231-0.014-6.346C0.047,82.979,0,78.834,0,74.685
		c0-1.863,0.05-3.752,0.213-5.606c0.082-0.938,0.307-1.88,0.3-2.818c-0.006-0.848,0.363-1.684,0.314-2.53
		c0.14-1.642,0.788-3.23,1.009-4.862c-0.011-0.704,0.531-1.467,0.563-2.195c0.31-0.493,0.447-1.199,0.608-1.754
		c0.186-0.639,0.475-1.236,0.669-1.869c0.414-1.352,0.826-2.898,1.438-4.173c0.034-0.515,0.336-0.955,0.369-1.465
		c0.091-0.22,0.273-0.406,0.28-0.654c0.069-0.76,0.461-1.546,0.672-2.277c0.227-0.784,0.433-1.605,0.709-2.37
		c0.272-0.756,0.384-1.569,0.547-2.35c0.181-0.862,0.579-1.794,0.541-2.673c-0.024-0.213,0.242-0.322,0.204-0.541
		c-0.011-0.378,0.126-0.739,0.105-1.116c-0.016-0.503,0.324-0.939,0.308-1.441c-0.024-0.35,0.121-0.679,0.108-1.028
		c0.003-0.32,0.235-0.595,0.201-0.92c-0.059-1.159,0.262-2.533,0.431-3.683c0.203-1.383,0.481-2.882,0.499-4.294
		c0.017-1.39,0.333-2.756,0.307-4.141c-0.028-1.482,0.086-2.973,0.104-4.46c0.033-0.834-0.603-1.442-0.747-2.231
		c-0.407-0.778-0.109-1.715,0.318-2.422c-0.038-0.422,0.138-0.825,0.113-1.246c-0.034-0.572-0.16-1.043-0.005-1.621
		c0.02-0.515,0.046-1.038-0.077-1.544c-0.012-0.662-0.19-1.306-0.318-1.952C9.771,3.77,9.766,3.089,9.784,2.412
		c0.191-0.54,0.456-1.128,1.031-1.347c0.533-0.306,1.099-0.597,1.727-0.639c0.382-0.1,0.754-0.246,1.15-0.288
		C14.114,0.118,14.545,0.178,14.958,0.056C15.665,0.021,14.545,0.178,14.958,0.056z"/>
</g>
<g>
	<path fill="#3BE8B0" d="M5.764,46.758c-0.007,0.248-0.189,0.434-0.28,0.654c-0.033,0.51-0.336,0.951-0.369,1.465
		c-0.613,1.274-1.025,2.82-1.438,4.173c-0.194,0.633-0.483,1.23-0.669,1.869c-0.161,0.556-0.299,1.261-0.608,1.754
		c-0.032,0.728-0.574,1.491-0.563,2.195c-0.222,1.632-0.869,3.22-1.009,4.862c0.049,0.846-0.319,1.682-0.314,2.53
		c0.006,0.938-0.218,1.88-0.3,2.818C0.05,70.932,0,72.822,0,74.685c0,4.149,0.047,8.294,0.089,12.443
		c0.022,2.115,0.018,4.231,0.014,6.346c-0.004,2.069-0.195,4.257,0.079,6.304c0.067,0.501,0.001,0.958-0.066,1.449
		c-0.068,0.505,0.13,0.964,0.054,1.458c-0.139,0.901-0.008,1.958,0.009,2.879c0.019,1.028,0.024,2.056,0.026,3.085
		c0.002,0.765-0.156,1.558-0.108,2.316c-0.03,0.38,0.118,0.741,0.11,1.121c0,0.342,0.142,0.66,0.279,0.964
		c0.067,0.635,0.464,1.157,0.773,1.689c0.601,0.757,1.536,1.064,2.388,1.435c0.81,0.231,1.753,0.512,2.598,0.576
		c1.041,0.27,2.204,0.004,3.264,0.226c0.901,0.167,2.019,0.171,2.935,0.159c2.473-0.033,4.948-0.003,7.421,0
		c1.07,0.036,2.214-0.146,3.289-0.216c0.979-0.063,2.096,0,3.028-0.35c0.483-0.092,0.995-0.097,1.445-0.321
		c0.679-0.134,1.307-0.445,1.927-0.737c0.705-0.401,1.107-1.128,1.481-1.816c0.12-0.674,0.593-1.421,0.554-2.116
		c0.178-1.71-0.02-3.542-0.01-5.266c0.01-1.722,0.024-3.445,0.039-5.167c0.031-3.41,0.071-6.821,0.075-10.231
		c0.004-3.542-0.031-7.085,0.023-10.627c0.014-0.932,0.033-1.865,0.048-2.797c0.012-0.724-0.199-1.615-0.046-2.313
		c0.218-0.752-0.044-1.606-0.032-2.38c0.011-0.727,0.046-1.462-0.091-2.18c0.013-0.446-0.155-0.867-0.205-1.306
		c-0.05-0.439,0.011-0.891-0.009-1.332c-0.041-0.895-0.361-1.816-0.306-2.711c0.005-0.472-0.143-0.925-0.271-1.373
		c-0.061-0.435-0.068-0.875-0.148-1.308c-0.14-0.763-0.333-1.514-0.48-2.284c-0.247-0.979-0.571-1.988-0.713-2.993
		c-0.299-0.441-0.216-1.02-0.512-1.462c-0.047-0.497-0.303-0.936-0.426-1.413c-0.036-0.185-0.207-0.31-0.218-0.501
		c-0.045-0.578-0.438-1.108-0.604-1.648c-0.15-0.486-0.297-0.97-0.452-1.454c-0.35-1.094-0.752-2.172-1.085-3.26
		c-0.217-0.707-0.371-1.451-0.602-2.165H6.119C5.958,45.856,5.805,46.311,5.764,46.758z"/>
	<ellipse fill="#3BE8B0" cx="15.842" cy="45.407" rx="9.723" ry="0.859"/>
</g>
</svg>
