<?xml version="1.0" encoding="utf-8"?>
<!-- Generator: Adobe Illustrator 18.0.0, SVG Export Plug-In . SVG Version: 6.00 Build 0)  -->
<svg version="1.2" baseProfile="tiny" id="Layer_1" xmlns="http://www.w3.org/2000/svg" xmlns:xlink="http://www.w3.org/1999/xlink"
	 x="0px" y="0px" viewBox="0 0 142.94 269.555" xml:space="preserve">
<rect x="0.016" y="0" fill="none" width="142.907" height="269.555"/>
<g>
	<path fill="#4F4DA7" d="M71.456,52.564c14.527,0,26.3-11.759,26.3-26.277C97.756,11.759,85.984,0,71.456,0
		C56.938,0,45.175,11.759,45.175,26.287C45.175,40.805,56.938,52.564,71.456,52.564L71.456,52.564z M71.456,52.564"/>
	<path fill="#4F4DA7" d="M141.903,146.476L104.41,64.35c-2.026-4.469-6.615-6.403-11.266-6.403c-16.19,0-25.58-0.007-43.369-0.007
		c-4.65,0-9.237,1.933-11.269,6.409L1.022,146.476c-2.586,5.651-0.095,12.318,5.549,14.897c1.516,0.685,3.102,1.019,4.659,1.019
		c4.272,0,8.355-2.443,10.237-6.58l18.124-39.719v42.786c0,0.073-0.038,0.14-0.038,0.214v96.97c0,7.453,6.039,13.492,13.489,13.492
		c7.45,0,13.486-6.04,13.486-13.492v-80.391h9.852v80.391c0,7.453,6.036,13.492,13.486,13.492s13.489-6.04,13.489-13.492v-96.97
		c0-0.057-0.029-0.099-0.029-0.159v-42.841l18.126,39.719c1.879,4.134,5.966,6.58,10.231,6.58c1.557,0,3.15-0.334,4.67-1.019
		C141.995,158.794,144.486,152.127,141.903,146.476L141.903,146.476z M141.903,146.476"/>
</g>
</svg>
