<?xml version="1.0" encoding="utf-8"?>
<!-- Generator: Adobe Illustrator 18.0.0, SVG Export Plug-In . SVG Version: 6.00 Build 0)  -->
<svg version="1.2" baseProfile="tiny" id="Layer_1" xmlns="http://www.w3.org/2000/svg" xmlns:xlink="http://www.w3.org/1999/xlink"
	 x="0px" y="0px" viewBox="0 0 85.039 42.52" xml:space="preserve">
<rect x="0" y="0" fill="none" width="85.039" height="42.52"/>
<g>
	<path fill="#FFB900" d="M10.938,8.378C11,8.446,11.069,8.511,11.11,8.595c0.106,0.145,0.144,0.325,0.159,0.5
		c0.018,0.308-0.065,0.611-0.18,0.894c-0.025,0.052-0.051,0.104-0.07,0.158c-0.027,0.061-0.064,0.116-0.092,0.177
		c-0.033,0.073-0.081,0.138-0.122,0.208c-0.068,0.139-0.175,0.253-0.254,0.385c-0.092,0.124-0.191,0.242-0.283,0.364
		c-0.155,0.182-0.325,0.351-0.518,0.492c-0.053,0.037-0.106,0.076-0.165,0.104c-0.093,0.044-0.182,0.1-0.281,0.13
		c-0.068,0.022-0.133,0.051-0.202,0.071c-0.09,0.02-0.169,0.071-0.252,0.108c-0.078,0.033-0.147,0.082-0.217,0.129
		c-0.215,0.151-0.41,0.329-0.608,0.502c-0.018,0.018-0.046,0.002-0.064-0.009c-0.093-0.064-0.18-0.136-0.278-0.194
		c-0.075-0.048-0.146-0.103-0.219-0.154c-0.143-0.081-0.268-0.189-0.41-0.27C6.911,12.085,6.756,12,6.616,11.893
		c-0.022-0.015-0.013-0.044-0.015-0.066c0.004-0.1,0.025-0.199,0.059-0.292c0.013-0.073,0.053-0.136,0.076-0.206
		c0.021-0.063,0.059-0.118,0.083-0.18c0.035-0.086,0.09-0.162,0.131-0.245c0.037-0.079,0.09-0.149,0.133-0.226
		c0.055-0.107,0.133-0.2,0.196-0.302c0.053-0.096,0.125-0.179,0.187-0.269c0.107-0.173,0.25-0.319,0.365-0.487
		c0.122-0.149,0.254-0.289,0.38-0.433c0.084-0.08,0.155-0.177,0.258-0.236c0.049-0.033,0.087-0.079,0.138-0.109
		C8.786,8.698,8.969,8.555,9.164,8.43C9.291,8.364,9.409,8.282,9.54,8.225C9.628,8.195,9.71,8.149,9.801,8.13
		c0.25-0.081,0.531-0.092,0.776,0.01c0.102,0.034,0.189,0.101,0.272,0.168C10.877,8.333,10.913,8.349,10.938,8.378z"/>
	<path fill="#FFB900" d="M7.365,13.19c0.097,0.046,0.183,0.114,0.283,0.154c-0.009,0.074-0.045,0.142-0.061,0.214
		c-0.033,0.091-0.06,0.184-0.103,0.271c-0.029,0.057-0.046,0.118-0.078,0.173c-0.028,0.048-0.053,0.099-0.078,0.149
		c-0.065,0.11-0.146,0.209-0.218,0.314c-0.11,0.13-0.237,0.246-0.379,0.341c-0.096,0.049-0.189,0.105-0.292,0.14
		c-0.084,0.021-0.168,0.047-0.256,0.047c-0.068,0.01-0.135-0.001-0.203-0.007c-0.074-0.016-0.15-0.028-0.216-0.066
		c-0.073-0.041-0.148-0.08-0.208-0.139c-0.107-0.096-0.168-0.23-0.216-0.363c-0.073-0.266-0.036-0.552,0.058-0.808
		c0.019-0.082,0.069-0.153,0.094-0.232c0.033-0.069,0.076-0.133,0.112-0.201c0.041-0.082,0.099-0.154,0.151-0.229
		c0.116-0.178,0.262-0.334,0.409-0.485c0.055,0.031,0.106,0.069,0.162,0.098c0.071,0.034,0.134,0.081,0.2,0.122
		c0.059,0.042,0.127,0.07,0.186,0.111c0.047,0.03,0.093,0.063,0.142,0.089c0.087,0.045,0.165,0.104,0.249,0.153
		C7.197,13.076,7.275,13.143,7.365,13.19z"/>
</g>
<g>
	<path fill="#FFB900" d="M24.415,2.517c0.017,0.09,0.042,0.182,0.033,0.275c0.015,0.179-0.048,0.352-0.127,0.509
		c-0.146,0.272-0.376,0.486-0.622,0.667c-0.049,0.031-0.098,0.062-0.143,0.098c-0.055,0.037-0.116,0.065-0.171,0.102
		c-0.067,0.045-0.142,0.075-0.213,0.113c-0.131,0.082-0.282,0.123-0.418,0.195c-0.143,0.057-0.289,0.106-0.432,0.161
		c-0.227,0.074-0.461,0.128-0.699,0.148c-0.065,0.004-0.13,0.009-0.195,0.002c-0.103-0.011-0.207-0.01-0.307-0.037
		c-0.069-0.017-0.14-0.027-0.209-0.045c-0.087-0.031-0.181-0.028-0.272-0.04c-0.083-0.012-0.168-0.007-0.252-0.004
		c-0.263,0.016-0.521,0.066-0.781,0.108c-0.025,0.006-0.04-0.022-0.05-0.041c-0.045-0.104-0.082-0.211-0.135-0.311
		c-0.039-0.08-0.07-0.164-0.106-0.246c-0.079-0.144-0.128-0.302-0.208-0.445c-0.066-0.164-0.154-0.317-0.217-0.482
		c-0.011-0.024,0.012-0.044,0.022-0.064c0.056-0.083,0.125-0.156,0.203-0.218c0.049-0.055,0.117-0.088,0.172-0.136
		c0.051-0.043,0.112-0.07,0.165-0.11c0.075-0.055,0.162-0.09,0.24-0.14c0.073-0.048,0.155-0.08,0.231-0.123
		c0.103-0.062,0.218-0.1,0.325-0.154c0.095-0.054,0.2-0.087,0.3-0.131c0.182-0.091,0.38-0.14,0.565-0.223
		c0.182-0.063,0.367-0.113,0.551-0.17c0.114-0.025,0.225-0.07,0.343-0.065c0.059-0.003,0.116-0.022,0.175-0.02
		c0.23-0.028,0.46-0.054,0.692-0.059c0.142,0.011,0.286,0.003,0.427,0.023c0.09,0.02,0.184,0.024,0.272,0.056
		c0.255,0.062,0.5,0.2,0.655,0.416c0.069,0.083,0.108,0.185,0.143,0.286C24.387,2.447,24.409,2.479,24.415,2.517z"/>
	<path fill="#FFB900" d="M18.849,4.742c0.058,0.09,0.096,0.193,0.16,0.279c-0.047,0.059-0.112,0.097-0.164,0.15
		c-0.076,0.06-0.148,0.125-0.229,0.177c-0.054,0.033-0.101,0.076-0.157,0.106c-0.05,0.026-0.097,0.057-0.145,0.086
		c-0.113,0.06-0.233,0.102-0.35,0.153c-0.162,0.053-0.331,0.086-0.501,0.092c-0.107-0.008-0.216-0.01-0.322-0.034
		c-0.083-0.027-0.168-0.049-0.243-0.094c-0.063-0.027-0.115-0.072-0.169-0.112c-0.054-0.052-0.113-0.103-0.149-0.17
		c-0.041-0.073-0.084-0.146-0.104-0.227c-0.041-0.138-0.022-0.284,0.006-0.422c0.077-0.265,0.258-0.489,0.473-0.658
		c0.059-0.06,0.138-0.094,0.202-0.148c0.064-0.042,0.135-0.073,0.201-0.112c0.078-0.049,0.165-0.079,0.249-0.115
		c0.192-0.091,0.398-0.147,0.603-0.199c0.03,0.055,0.054,0.114,0.086,0.168c0.042,0.066,0.072,0.139,0.106,0.209
		c0.029,0.067,0.072,0.126,0.101,0.192c0.025,0.05,0.046,0.102,0.074,0.151c0.05,0.084,0.086,0.175,0.132,0.261
		C18.766,4.557,18.797,4.655,18.849,4.742z"/>
</g>
<g>
	<path fill="#FFB900" d="M38.674,3.998c-0.037,0.085-0.067,0.175-0.127,0.246C38.459,4.4,38.31,4.508,38.156,4.593
		c-0.273,0.143-0.584,0.191-0.889,0.202c-0.058-0.002-0.116-0.004-0.173,0.001c-0.067,0-0.132-0.011-0.199-0.012
		c-0.081,0-0.16-0.018-0.239-0.026C36.5,4.752,36.353,4.701,36.2,4.684c-0.15-0.033-0.298-0.075-0.448-0.11
		c-0.229-0.067-0.453-0.153-0.661-0.271c-0.056-0.033-0.113-0.066-0.162-0.108c-0.079-0.067-0.165-0.125-0.233-0.203
		c-0.048-0.053-0.101-0.101-0.148-0.155c-0.055-0.074-0.134-0.125-0.202-0.186c-0.062-0.057-0.135-0.101-0.206-0.145
		c-0.226-0.135-0.468-0.239-0.706-0.35c-0.024-0.009-0.021-0.041-0.018-0.062c0.021-0.111,0.051-0.22,0.063-0.333
		c0.013-0.088,0.035-0.175,0.05-0.263c0.015-0.163,0.063-0.322,0.079-0.485c0.037-0.172,0.051-0.349,0.092-0.521
		c0.004-0.026,0.035-0.03,0.054-0.041c0.093-0.037,0.191-0.059,0.291-0.066c0.072-0.018,0.146-0.007,0.219-0.015
		c0.066-0.007,0.132,0.006,0.198,0.002c0.093-0.004,0.184,0.016,0.277,0.019c0.088,0.001,0.173,0.021,0.26,0.028
		c0.12,0.006,0.237,0.04,0.356,0.056c0.109,0.009,0.215,0.04,0.322,0.06c0.201,0.027,0.393,0.098,0.593,0.134
		c0.185,0.05,0.367,0.113,0.551,0.17c0.108,0.044,0.225,0.069,0.321,0.139c0.05,0.031,0.108,0.047,0.156,0.082
		c0.206,0.106,0.411,0.214,0.605,0.341c0.111,0.089,0.235,0.163,0.34,0.26c0.063,0.067,0.139,0.123,0.193,0.199
		c0.176,0.195,0.301,0.446,0.308,0.712c0.011,0.107-0.015,0.214-0.042,0.317C38.691,3.925,38.691,3.963,38.674,3.998z"/>
	<path fill="#FFB900" d="M32.822,2.707c-0.003,0.107-0.029,0.213-0.025,0.321c-0.072,0.022-0.147,0.017-0.22,0.032
		c-0.096,0.007-0.192,0.02-0.289,0.017c-0.063-0.003-0.127,0.006-0.19-0.001c-0.056-0.006-0.112-0.007-0.168-0.01
		c-0.127-0.014-0.25-0.047-0.375-0.07c-0.164-0.047-0.322-0.116-0.466-0.206c-0.084-0.067-0.173-0.13-0.247-0.209
		c-0.053-0.068-0.111-0.135-0.148-0.214c-0.037-0.058-0.054-0.124-0.077-0.188c-0.015-0.074-0.035-0.148-0.028-0.224
		c0.007-0.083,0.013-0.168,0.042-0.247c0.044-0.137,0.141-0.247,0.243-0.346c0.213-0.176,0.489-0.259,0.761-0.278
		c0.083-0.017,0.167,0,0.251-0.009c0.077,0.001,0.153,0.015,0.229,0.02c0.092,0.003,0.181,0.027,0.27,0.044
		c0.21,0.033,0.412,0.102,0.61,0.175c-0.006,0.063-0.019,0.125-0.023,0.188c-0.002,0.078-0.019,0.155-0.03,0.232
		c-0.014,0.071-0.012,0.144-0.025,0.215c-0.008,0.055-0.019,0.11-0.023,0.166c-0.005,0.097-0.027,0.193-0.038,0.289
		C32.857,2.507,32.828,2.606,32.822,2.707z"/>
</g>
<g>
	<path fill="#FFB900" d="M52.283,8.219c-0.037,0.085-0.067,0.175-0.127,0.246c-0.089,0.156-0.238,0.265-0.391,0.349
		c-0.273,0.143-0.584,0.191-0.889,0.202c-0.058-0.002-0.116-0.004-0.173,0.001c-0.067,0-0.132-0.011-0.199-0.012
		c-0.081,0-0.16-0.018-0.239-0.026c-0.154-0.005-0.302-0.056-0.455-0.074c-0.15-0.033-0.298-0.075-0.448-0.11
		c-0.229-0.067-0.453-0.153-0.661-0.271c-0.056-0.033-0.113-0.066-0.162-0.108c-0.079-0.067-0.165-0.125-0.233-0.203
		c-0.048-0.053-0.101-0.101-0.148-0.155c-0.055-0.074-0.134-0.125-0.202-0.186c-0.062-0.057-0.135-0.101-0.206-0.145
		c-0.226-0.135-0.468-0.239-0.706-0.35c-0.024-0.009-0.021-0.041-0.018-0.062c0.021-0.111,0.051-0.22,0.063-0.333
		c0.013-0.088,0.035-0.175,0.05-0.263c0.015-0.163,0.063-0.322,0.079-0.485c0.037-0.172,0.051-0.349,0.092-0.521
		c0.004-0.026,0.035-0.03,0.054-0.041c0.093-0.037,0.191-0.059,0.291-0.066c0.072-0.018,0.146-0.007,0.219-0.015
		c0.066-0.007,0.132,0.006,0.198,0.002c0.093-0.004,0.184,0.016,0.277,0.019c0.088,0.001,0.173,0.021,0.26,0.028
		c0.12,0.006,0.237,0.04,0.356,0.056c0.109,0.009,0.215,0.04,0.322,0.06c0.201,0.027,0.393,0.098,0.593,0.134
		c0.185,0.05,0.367,0.113,0.551,0.17c0.108,0.044,0.225,0.069,0.321,0.139c0.05,0.031,0.108,0.047,0.156,0.082
		c0.206,0.106,0.411,0.214,0.605,0.341c0.111,0.089,0.235,0.163,0.34,0.26c0.063,0.067,0.139,0.123,0.193,0.199
		c0.176,0.195,0.301,0.446,0.308,0.712c0.011,0.107-0.015,0.214-0.042,0.317C52.299,8.145,52.299,8.184,52.283,8.219z"/>
	<path fill="#FFB900" d="M46.43,6.927c-0.003,0.107-0.029,0.213-0.025,0.321c-0.072,0.022-0.147,0.017-0.22,0.032
		c-0.096,0.007-0.192,0.02-0.289,0.017c-0.063-0.003-0.127,0.006-0.19-0.001c-0.056-0.006-0.112-0.007-0.168-0.01
		c-0.127-0.014-0.25-0.047-0.375-0.07c-0.164-0.047-0.322-0.116-0.466-0.206c-0.084-0.067-0.173-0.13-0.247-0.209
		c-0.053-0.068-0.111-0.135-0.148-0.214c-0.037-0.058-0.054-0.124-0.077-0.188c-0.015-0.074-0.035-0.148-0.028-0.224
		c0.007-0.083,0.013-0.168,0.042-0.247c0.044-0.137,0.141-0.247,0.243-0.346c0.213-0.176,0.489-0.259,0.761-0.278
		c0.083-0.017,0.167,0,0.251-0.009c0.077,0.001,0.153,0.015,0.229,0.02c0.092,0.003,0.181,0.027,0.27,0.044
		c0.21,0.033,0.412,0.102,0.61,0.175c-0.006,0.063-0.019,0.125-0.023,0.188c-0.002,0.078-0.019,0.155-0.03,0.232
		c-0.014,0.071-0.012,0.144-0.025,0.215c-0.008,0.055-0.019,0.11-0.023,0.166c-0.006,0.097-0.027,0.193-0.038,0.289
		C46.465,6.728,46.436,6.826,46.43,6.927z"/>
</g>
<g>
	<path fill="#FFB900" d="M65.415,7.763c0,0.092,0.007,0.187-0.02,0.276c-0.02,0.178-0.114,0.337-0.222,0.475
		c-0.195,0.239-0.462,0.405-0.738,0.536c-0.054,0.021-0.108,0.042-0.159,0.069c-0.061,0.026-0.126,0.042-0.188,0.068
		c-0.074,0.032-0.154,0.047-0.23,0.07c-0.144,0.056-0.3,0.067-0.447,0.111c-0.151,0.029-0.304,0.048-0.455,0.076
		c-0.237,0.029-0.477,0.038-0.714,0.011c-0.064-0.009-0.13-0.016-0.192-0.036c-0.099-0.03-0.201-0.05-0.295-0.095
		c-0.065-0.03-0.132-0.053-0.197-0.084c-0.08-0.047-0.172-0.062-0.259-0.092c-0.079-0.028-0.164-0.039-0.247-0.052
		c-0.261-0.035-0.524-0.035-0.787-0.043c-0.025,0.001-0.035-0.029-0.041-0.05c-0.025-0.11-0.04-0.223-0.073-0.331
		c-0.023-0.086-0.037-0.175-0.057-0.262c-0.05-0.156-0.068-0.321-0.119-0.477c-0.034-0.173-0.09-0.341-0.121-0.515
		c-0.006-0.026,0.02-0.041,0.033-0.059c0.071-0.07,0.153-0.129,0.241-0.175c0.059-0.045,0.131-0.064,0.195-0.1
		c0.058-0.032,0.124-0.047,0.183-0.076c0.084-0.04,0.176-0.058,0.262-0.092c0.081-0.033,0.168-0.049,0.251-0.076
		c0.113-0.042,0.233-0.057,0.349-0.089c0.104-0.034,0.213-0.047,0.32-0.071c0.196-0.055,0.4-0.065,0.598-0.111
		c0.19-0.027,0.382-0.04,0.573-0.061c0.116-0.002,0.234-0.025,0.349,0.002c0.058,0.009,0.118,0.001,0.176,0.014
		c0.231,0.017,0.462,0.035,0.69,0.075c0.138,0.038,0.28,0.058,0.415,0.105c0.085,0.037,0.176,0.059,0.256,0.107
		c0.239,0.109,0.453,0.291,0.564,0.533c0.052,0.094,0.071,0.202,0.086,0.308C65.401,7.689,65.416,7.724,65.415,7.763z"/>
	<path fill="#FFB900" d="M59.527,8.882c0.04,0.1,0.057,0.207,0.104,0.305c-0.057,0.049-0.129,0.074-0.19,0.116
		c-0.086,0.044-0.169,0.094-0.259,0.13c-0.059,0.022-0.114,0.055-0.175,0.074c-0.054,0.016-0.106,0.037-0.158,0.057
		C58.727,9.601,58.6,9.62,58.476,9.648c-0.169,0.021-0.341,0.021-0.51-0.006c-0.104-0.029-0.21-0.051-0.309-0.095
		c-0.076-0.042-0.155-0.08-0.22-0.139c-0.057-0.038-0.099-0.092-0.145-0.142c-0.043-0.062-0.091-0.122-0.114-0.195
		c-0.026-0.079-0.055-0.159-0.059-0.243c-0.014-0.143,0.032-0.283,0.087-0.413c0.126-0.246,0.347-0.431,0.59-0.555
		c0.07-0.048,0.154-0.066,0.227-0.107c0.071-0.029,0.146-0.046,0.219-0.072c0.086-0.033,0.177-0.046,0.266-0.066
		c0.206-0.053,0.419-0.068,0.63-0.08c0.019,0.06,0.031,0.122,0.053,0.182c0.029,0.073,0.044,0.15,0.064,0.225
		C59.27,8.013,59.3,8.079,59.316,8.15c0.015,0.054,0.026,0.109,0.044,0.162c0.033,0.092,0.051,0.188,0.079,0.281
		C59.481,8.686,59.493,8.787,59.527,8.882z"/>
</g>
<g>
	<path fill="#FFB900" d="M76.736,11.938c-0.056,0.073-0.109,0.152-0.184,0.206c-0.124,0.129-0.296,0.197-0.466,0.242
		c-0.3,0.07-0.613,0.04-0.911-0.025c-0.056-0.016-0.111-0.032-0.168-0.042c-0.064-0.017-0.126-0.044-0.19-0.061
		c-0.078-0.02-0.15-0.057-0.225-0.085c-0.148-0.044-0.279-0.129-0.422-0.185c-0.137-0.069-0.27-0.147-0.407-0.217
		c-0.205-0.122-0.401-0.261-0.573-0.427c-0.046-0.046-0.093-0.092-0.13-0.145c-0.06-0.084-0.129-0.162-0.176-0.255
		c-0.033-0.063-0.073-0.123-0.105-0.187c-0.035-0.086-0.098-0.154-0.149-0.23c-0.046-0.071-0.106-0.131-0.164-0.192
		c-0.186-0.186-0.394-0.348-0.598-0.514c-0.021-0.015-0.01-0.045-0.002-0.064c0.048-0.102,0.104-0.201,0.144-0.307
		c0.034-0.082,0.077-0.161,0.114-0.242c0.055-0.154,0.141-0.296,0.196-0.45c0.079-0.158,0.136-0.325,0.218-0.482
		c0.011-0.024,0.041-0.02,0.062-0.026c0.099-0.013,0.2-0.009,0.298,0.008c0.074,0.001,0.143,0.029,0.216,0.039
		c0.066,0.01,0.127,0.038,0.192,0.051c0.091,0.019,0.175,0.061,0.264,0.087c0.085,0.023,0.163,0.064,0.245,0.092
		c0.115,0.036,0.22,0.097,0.331,0.142c0.103,0.036,0.198,0.092,0.297,0.138c0.188,0.076,0.357,0.193,0.541,0.276
		c0.167,0.095,0.328,0.201,0.492,0.301c0.093,0.069,0.201,0.123,0.276,0.214c0.041,0.042,0.093,0.072,0.131,0.118
		c0.173,0.154,0.345,0.31,0.502,0.48c0.086,0.114,0.187,0.217,0.265,0.336c0.045,0.081,0.104,0.154,0.138,0.241
		c0.122,0.232,0.181,0.507,0.122,0.766c-0.016,0.106-0.067,0.203-0.119,0.296C76.77,11.871,76.761,11.909,76.736,11.938z"/>
	<path fill="#FFB900" d="M71.387,9.236c-0.029,0.103-0.081,0.199-0.104,0.305c-0.075,0.004-0.147-0.02-0.222-0.024
		C70.966,9.5,70.87,9.489,70.777,9.462c-0.061-0.019-0.124-0.025-0.184-0.048c-0.053-0.02-0.107-0.035-0.16-0.052
		c-0.119-0.045-0.231-0.108-0.346-0.161c-0.147-0.086-0.283-0.192-0.401-0.315c-0.065-0.086-0.135-0.169-0.187-0.264
		c-0.035-0.08-0.074-0.158-0.09-0.244c-0.022-0.065-0.022-0.133-0.028-0.201c0.003-0.075,0.002-0.152,0.029-0.224
		c0.028-0.079,0.054-0.159,0.102-0.229c0.077-0.122,0.198-0.205,0.321-0.275c0.25-0.118,0.538-0.13,0.806-0.081
		c0.084,0.004,0.162,0.042,0.245,0.054c0.074,0.02,0.144,0.052,0.217,0.077c0.088,0.026,0.168,0.071,0.251,0.11
		c0.195,0.084,0.374,0.201,0.548,0.321c-0.021,0.059-0.05,0.116-0.069,0.176c-0.022,0.075-0.057,0.146-0.086,0.218
		c-0.031,0.066-0.047,0.137-0.077,0.203c-0.021,0.052-0.046,0.102-0.064,0.155c-0.029,0.093-0.074,0.18-0.108,0.271
		C71.47,9.051,71.417,9.14,71.387,9.236z"/>
</g>
<g>
	<path fill="#FFB900" d="M80.437,22.952c-0.091-0.011-0.186-0.015-0.272-0.053c-0.175-0.041-0.321-0.153-0.446-0.277
		c-0.214-0.222-0.348-0.506-0.445-0.796c-0.015-0.056-0.029-0.112-0.05-0.166c-0.019-0.064-0.027-0.13-0.045-0.194
		c-0.023-0.077-0.028-0.158-0.043-0.237c-0.038-0.15-0.031-0.306-0.058-0.457c-0.011-0.153-0.012-0.308-0.022-0.461
		c-0.001-0.239,0.019-0.478,0.073-0.711c0.016-0.063,0.031-0.127,0.058-0.186c0.042-0.094,0.073-0.194,0.129-0.281
		c0.037-0.061,0.068-0.125,0.107-0.185c0.056-0.074,0.082-0.164,0.121-0.246c0.037-0.076,0.058-0.158,0.081-0.239
		c0.065-0.255,0.097-0.517,0.136-0.776c0.002-0.025,0.033-0.032,0.054-0.035c0.112-0.011,0.226-0.014,0.337-0.033
		c0.088-0.013,0.178-0.016,0.267-0.026c0.161-0.032,0.326-0.03,0.487-0.062c0.176-0.013,0.349-0.049,0.525-0.059
		c0.026-0.003,0.038,0.025,0.054,0.04c0.062,0.078,0.11,0.167,0.145,0.26c0.037,0.064,0.048,0.138,0.076,0.206
		c0.025,0.061,0.032,0.128,0.054,0.191c0.03,0.088,0.037,0.182,0.06,0.271c0.023,0.084,0.028,0.172,0.046,0.258
		c0.028,0.117,0.029,0.238,0.047,0.357c0.022,0.107,0.022,0.217,0.033,0.326c0.031,0.201,0.017,0.405,0.04,0.607
		c0.004,0.192-0.005,0.384-0.007,0.576c-0.011,0.116-0.002,0.236-0.043,0.347c-0.015,0.057-0.015,0.117-0.034,0.173
		c-0.044,0.227-0.089,0.455-0.156,0.677c-0.054,0.132-0.09,0.271-0.153,0.4c-0.047,0.08-0.079,0.168-0.136,0.242
		c-0.137,0.224-0.343,0.415-0.596,0.497c-0.1,0.04-0.209,0.046-0.316,0.049C80.512,22.947,80.475,22.958,80.437,22.952z"/>
	<path fill="#FFB900" d="M80.021,16.973c-0.104,0.028-0.213,0.033-0.315,0.067c-0.041-0.062-0.058-0.137-0.093-0.202
		c-0.034-0.091-0.074-0.179-0.098-0.273c-0.015-0.061-0.042-0.12-0.053-0.182c-0.01-0.055-0.024-0.109-0.038-0.164
		c-0.022-0.126-0.025-0.253-0.039-0.38c-0.001-0.17,0.02-0.341,0.066-0.505c0.041-0.1,0.076-0.203,0.131-0.296
		c0.051-0.071,0.098-0.145,0.164-0.202c0.045-0.052,0.103-0.087,0.158-0.127c0.066-0.036,0.132-0.076,0.207-0.09
		c0.082-0.016,0.165-0.035,0.249-0.03c0.144,0.003,0.277,0.066,0.4,0.135c0.229,0.155,0.387,0.396,0.482,0.651
		c0.039,0.075,0.047,0.161,0.079,0.238c0.02,0.074,0.029,0.151,0.045,0.225c0.023,0.089,0.025,0.181,0.034,0.272
		c0.028,0.21,0.019,0.424,0.005,0.635c-0.062,0.012-0.125,0.017-0.187,0.031c-0.076,0.02-0.154,0.026-0.231,0.037
		c-0.072,0.007-0.142,0.03-0.214,0.037c-0.055,0.008-0.111,0.013-0.166,0.025c-0.095,0.022-0.192,0.029-0.288,0.046
		C80.222,16.95,80.12,16.95,80.021,16.973z"/>
</g>
<g>
	<path fill="#FFB900" d="M74.69,35.994c-0.065-0.065-0.137-0.128-0.18-0.21c-0.112-0.14-0.157-0.319-0.178-0.493
		c-0.03-0.307,0.041-0.613,0.144-0.9c0.023-0.053,0.046-0.106,0.064-0.161c0.025-0.062,0.06-0.119,0.085-0.18
		c0.03-0.075,0.076-0.141,0.114-0.212c0.063-0.141,0.165-0.259,0.238-0.395c0.087-0.127,0.181-0.249,0.269-0.375
		c0.147-0.188,0.311-0.363,0.498-0.512c0.052-0.039,0.103-0.08,0.161-0.11c0.091-0.048,0.178-0.107,0.276-0.141
		c0.067-0.025,0.131-0.056,0.199-0.079c0.089-0.023,0.166-0.077,0.248-0.118c0.076-0.036,0.144-0.088,0.211-0.137
		c0.209-0.16,0.396-0.345,0.588-0.525c0.017-0.019,0.046-0.004,0.064,0.006c0.095,0.061,0.186,0.129,0.285,0.183
		c0.077,0.045,0.149,0.098,0.225,0.145c0.146,0.075,0.275,0.179,0.421,0.254c0.146,0.099,0.305,0.178,0.449,0.279
		c0.022,0.014,0.014,0.043,0.018,0.065c0,0.1-0.017,0.199-0.047,0.294c-0.01,0.073-0.048,0.138-0.067,0.209
		c-0.018,0.064-0.054,0.121-0.076,0.183c-0.031,0.088-0.084,0.165-0.121,0.25c-0.034,0.081-0.085,0.153-0.124,0.231
		c-0.051,0.109-0.125,0.205-0.184,0.31c-0.049,0.098-0.118,0.184-0.176,0.276c-0.1,0.177-0.238,0.328-0.345,0.5
		c-0.116,0.153-0.242,0.298-0.363,0.448c-0.081,0.084-0.148,0.183-0.249,0.246c-0.047,0.035-0.084,0.083-0.134,0.114
		c-0.175,0.151-0.352,0.301-0.542,0.434c-0.124,0.07-0.239,0.157-0.368,0.219c-0.086,0.034-0.166,0.083-0.257,0.105
		c-0.246,0.091-0.527,0.113-0.776,0.02c-0.103-0.03-0.193-0.093-0.278-0.157C74.752,36.037,74.716,36.022,74.69,35.994z"/>
	<path fill="#FFB900" d="M78.071,31.046c-0.099-0.043-0.187-0.106-0.288-0.143c0.006-0.075,0.039-0.143,0.052-0.216
		c0.03-0.092,0.053-0.186,0.092-0.275c0.026-0.058,0.042-0.12,0.071-0.176c0.027-0.049,0.049-0.101,0.072-0.152
		c0.06-0.112,0.137-0.214,0.205-0.322c0.105-0.134,0.227-0.256,0.365-0.356c0.094-0.053,0.185-0.112,0.286-0.151
		c0.083-0.024,0.166-0.053,0.254-0.057c0.067-0.013,0.135-0.004,0.203-0.001c0.074,0.013,0.151,0.022,0.219,0.058
		c0.074,0.038,0.151,0.074,0.213,0.131c0.111,0.092,0.177,0.223,0.23,0.354c0.084,0.263,0.058,0.55-0.026,0.81
		c-0.015,0.083-0.063,0.155-0.085,0.236c-0.03,0.071-0.071,0.136-0.104,0.205c-0.037,0.084-0.093,0.158-0.142,0.234
		c-0.108,0.183-0.248,0.344-0.39,0.501c-0.056-0.029-0.109-0.064-0.165-0.092c-0.072-0.031-0.137-0.075-0.205-0.114
		c-0.061-0.039-0.129-0.065-0.191-0.103c-0.049-0.028-0.095-0.059-0.146-0.083c-0.088-0.041-0.169-0.097-0.254-0.143
		C78.243,31.152,78.163,31.089,78.071,31.046z"/>
</g>
<g>
	<path fill="#FFB900" d="M59.17,40.128c-0.001-0.092-0.009-0.187,0.017-0.276c0.018-0.179,0.11-0.338,0.216-0.478
		c0.192-0.241,0.456-0.411,0.731-0.545c0.054-0.022,0.107-0.044,0.158-0.071c0.061-0.027,0.126-0.044,0.187-0.07
		c0.074-0.033,0.153-0.049,0.229-0.073c0.143-0.058,0.299-0.071,0.446-0.117c0.151-0.031,0.303-0.052,0.454-0.082
		c0.236-0.032,0.477-0.044,0.714-0.021c0.065,0.008,0.13,0.015,0.192,0.033c0.099,0.029,0.202,0.047,0.296,0.091
		c0.065,0.029,0.133,0.051,0.198,0.082c0.08,0.046,0.173,0.06,0.26,0.088c0.08,0.027,0.164,0.037,0.247,0.049
		c0.261,0.031,0.525,0.029,0.788,0.033c0.025-0.001,0.036,0.029,0.041,0.049c0.026,0.11,0.043,0.222,0.077,0.33
		c0.024,0.086,0.039,0.174,0.061,0.261c0.052,0.155,0.073,0.32,0.125,0.475c0.036,0.173,0.095,0.34,0.127,0.513
		c0.007,0.025-0.02,0.041-0.033,0.059c-0.07,0.071-0.151,0.131-0.239,0.178c-0.058,0.045-0.131,0.066-0.194,0.103
		c-0.057,0.033-0.123,0.049-0.182,0.079c-0.083,0.041-0.175,0.06-0.261,0.095c-0.081,0.034-0.167,0.051-0.25,0.08
		c-0.113,0.043-0.233,0.06-0.348,0.094c-0.104,0.036-0.213,0.05-0.319,0.076c-0.195,0.057-0.399,0.07-0.596,0.119
		c-0.19,0.029-0.382,0.045-0.572,0.069c-0.116,0.004-0.234,0.028-0.349,0.003c-0.058-0.008-0.118,0.001-0.176-0.011
		c-0.231-0.014-0.463-0.029-0.691-0.066c-0.138-0.036-0.281-0.054-0.416-0.099c-0.085-0.036-0.177-0.056-0.258-0.103
		c-0.24-0.106-0.457-0.286-0.571-0.526c-0.053-0.094-0.073-0.201-0.09-0.306C59.184,40.202,59.169,40.166,59.17,40.128z"/>
	<path fill="#FFB900" d="M65.042,38.933c-0.041-0.099-0.06-0.207-0.107-0.303c0.056-0.049,0.128-0.076,0.188-0.119
		c0.085-0.045,0.168-0.097,0.257-0.133c0.059-0.023,0.113-0.057,0.174-0.076c0.053-0.017,0.105-0.039,0.158-0.059
		c0.122-0.039,0.248-0.058,0.372-0.088c0.169-0.023,0.341-0.025,0.51-0.001c0.104,0.027,0.211,0.049,0.31,0.091
		c0.077,0.041,0.156,0.078,0.222,0.136c0.057,0.038,0.1,0.091,0.146,0.14c0.044,0.061,0.093,0.121,0.117,0.194
		c0.027,0.079,0.057,0.158,0.062,0.242c0.015,0.143-0.029,0.283-0.082,0.414c-0.123,0.247-0.341,0.435-0.583,0.563
		c-0.069,0.049-0.153,0.068-0.226,0.11c-0.071,0.03-0.146,0.048-0.218,0.074c-0.085,0.034-0.176,0.048-0.265,0.069
		c-0.205,0.055-0.418,0.074-0.629,0.088c-0.02-0.06-0.033-0.122-0.055-0.181c-0.03-0.072-0.046-0.149-0.067-0.224
		c-0.016-0.071-0.048-0.136-0.065-0.207c-0.016-0.054-0.027-0.109-0.046-0.161c-0.034-0.091-0.054-0.187-0.083-0.28
		C65.092,39.129,65.078,39.027,65.042,38.933z"/>
</g>
<g>
	<path fill="#E63B3B" d="M45.626,37.029c0.032-0.086,0.059-0.178,0.115-0.252c0.081-0.16,0.224-0.276,0.374-0.368
		c0.266-0.156,0.574-0.219,0.878-0.244c0.058-0.001,0.116-0.002,0.173-0.009c0.067-0.003,0.133,0.005,0.199,0.002
		c0.08-0.004,0.16,0.01,0.24,0.015c0.154-0.002,0.305,0.042,0.458,0.052c0.152,0.026,0.302,0.061,0.453,0.088
		c0.232,0.056,0.46,0.131,0.673,0.239c0.057,0.031,0.116,0.06,0.167,0.1c0.082,0.063,0.171,0.117,0.243,0.192
		c0.05,0.051,0.106,0.096,0.155,0.148c0.058,0.072,0.139,0.119,0.21,0.176c0.065,0.054,0.14,0.094,0.213,0.135
		c0.232,0.124,0.479,0.216,0.722,0.315c0.024,0.008,0.023,0.04,0.021,0.061c-0.015,0.112-0.04,0.223-0.047,0.336
		c-0.009,0.089-0.026,0.177-0.038,0.265c-0.007,0.164-0.048,0.324-0.055,0.488c-0.029,0.174-0.034,0.351-0.067,0.524
		c-0.003,0.026-0.033,0.031-0.052,0.043c-0.091,0.041-0.188,0.068-0.287,0.08c-0.071,0.021-0.146,0.014-0.218,0.026
		c-0.066,0.01-0.132,0.001-0.198,0.008c-0.093,0.008-0.185-0.007-0.278-0.005c-0.088,0.003-0.174-0.013-0.261-0.016
		c-0.121-0.001-0.239-0.028-0.358-0.038c-0.109-0.004-0.216-0.03-0.325-0.045c-0.202-0.017-0.398-0.079-0.599-0.105
		c-0.188-0.041-0.372-0.096-0.558-0.143c-0.11-0.038-0.228-0.058-0.327-0.124c-0.052-0.028-0.11-0.042-0.16-0.074
		c-0.211-0.096-0.421-0.194-0.621-0.311c-0.116-0.084-0.242-0.152-0.352-0.243c-0.067-0.064-0.145-0.117-0.203-0.189
		c-0.185-0.186-0.322-0.431-0.342-0.697c-0.016-0.107,0.005-0.214,0.027-0.318C45.613,37.103,45.611,37.064,45.626,37.029z"/>
	<path fill="#E63B3B" d="M51.534,38.037c-0.002-0.107,0.019-0.214,0.009-0.322c0.07-0.025,0.146-0.024,0.219-0.043
		c0.096-0.011,0.191-0.03,0.288-0.031c0.063,0,0.126-0.012,0.19-0.009c0.056,0.003,0.112,0.002,0.168,0.002
		c0.127,0.008,0.252,0.035,0.378,0.052c0.166,0.039,0.327,0.1,0.476,0.183c0.087,0.063,0.179,0.122,0.257,0.197
		c0.057,0.066,0.118,0.129,0.158,0.207c0.04,0.056,0.06,0.121,0.086,0.184c0.019,0.073,0.043,0.146,0.039,0.223
		c-0.003,0.083-0.005,0.168-0.03,0.249c-0.037,0.139-0.129,0.254-0.226,0.357c-0.204,0.186-0.476,0.282-0.747,0.314
		c-0.082,0.021-0.167,0.008-0.25,0.021c-0.077,0.002-0.153-0.008-0.23-0.009c-0.092,0.001-0.182-0.019-0.272-0.031
		c-0.211-0.022-0.416-0.082-0.618-0.145c0.003-0.063,0.013-0.125,0.014-0.188c-0.002-0.078,0.011-0.156,0.018-0.234
		c0.01-0.072,0.005-0.145,0.014-0.216c0.005-0.056,0.014-0.111,0.015-0.167c0.001-0.097,0.018-0.194,0.024-0.291
		C51.509,38.238,51.533,38.138,51.534,38.037z"/>
</g>
<g>
	<path fill="#FFB900" d="M34.817,34.417c0.023-0.089,0.04-0.183,0.089-0.262c0.064-0.168,0.195-0.297,0.334-0.404
		c0.249-0.182,0.549-0.276,0.848-0.333c0.057-0.007,0.115-0.014,0.171-0.027c0.066-0.01,0.133-0.009,0.199-0.019
		c0.08-0.012,0.16-0.007,0.241-0.01c0.153-0.018,0.307,0.01,0.461,0.005c0.154,0.01,0.306,0.029,0.46,0.041
		c0.236,0.032,0.471,0.083,0.694,0.169c0.06,0.025,0.121,0.048,0.177,0.083c0.088,0.054,0.182,0.099,0.261,0.166
		c0.055,0.045,0.115,0.085,0.169,0.131c0.065,0.065,0.151,0.104,0.227,0.154c0.07,0.047,0.149,0.079,0.226,0.112
		c0.244,0.099,0.499,0.166,0.751,0.239c0.025,0.006,0.027,0.037,0.027,0.058c-0.004,0.113-0.017,0.226-0.013,0.339
		c0.001,0.089-0.008,0.178-0.01,0.268c0.01,0.164-0.014,0.328-0.005,0.491c-0.011,0.176,0.002,0.353-0.012,0.529
		c0,0.026-0.03,0.034-0.047,0.048c-0.086,0.05-0.18,0.087-0.278,0.109c-0.068,0.028-0.143,0.029-0.214,0.048
		c-0.064,0.017-0.131,0.014-0.196,0.028c-0.091,0.018-0.185,0.012-0.277,0.023c-0.087,0.012-0.175,0.005-0.262,0.011
		c-0.12,0.012-0.24-0.004-0.36-0.001c-0.109,0.007-0.218-0.008-0.327-0.011c-0.203,0.004-0.404-0.038-0.606-0.043
		c-0.191-0.022-0.38-0.057-0.57-0.085c-0.113-0.027-0.233-0.034-0.338-0.089c-0.054-0.023-0.114-0.03-0.167-0.057
		c-0.219-0.074-0.439-0.15-0.65-0.246c-0.124-0.071-0.257-0.126-0.375-0.206c-0.073-0.057-0.156-0.101-0.221-0.168
		c-0.204-0.166-0.365-0.396-0.412-0.658c-0.027-0.104-0.017-0.214-0.006-0.319C34.812,34.492,34.806,34.454,34.817,34.417z"/>
	<path fill="#FFB900" d="M40.797,34.813c-0.013-0.107-0.004-0.215-0.024-0.321c0.067-0.033,0.143-0.039,0.213-0.065
		c0.094-0.021,0.187-0.049,0.283-0.061c0.063-0.007,0.124-0.025,0.188-0.028c0.056-0.002,0.112-0.009,0.168-0.015
		c0.127-0.005,0.254,0.009,0.382,0.013c0.169,0.022,0.336,0.066,0.492,0.134c0.093,0.054,0.19,0.103,0.275,0.17
		c0.063,0.06,0.13,0.116,0.178,0.19c0.045,0.051,0.073,0.114,0.104,0.174c0.026,0.071,0.057,0.141,0.061,0.218
		c0.005,0.083,0.013,0.168-0.004,0.25c-0.023,0.142-0.102,0.266-0.188,0.378c-0.184,0.206-0.444,0.33-0.71,0.389
		c-0.079,0.029-0.165,0.025-0.247,0.047c-0.076,0.01-0.153,0.008-0.229,0.014c-0.091,0.011-0.183,0-0.274-0.003
		c-0.212-0.001-0.422-0.039-0.63-0.081c-0.004-0.063,0-0.126-0.005-0.189c-0.01-0.078-0.005-0.156-0.006-0.234
		c0.003-0.072-0.01-0.144-0.008-0.217c-0.001-0.056,0.002-0.112-0.002-0.168c-0.009-0.097-0.002-0.195-0.006-0.292
		C40.793,35.015,40.807,34.914,40.797,34.813z"/>
</g>
<g>
	<path fill="#FFB900" d="M23.488,37.735c-0.014-0.091-0.036-0.184-0.023-0.276c-0.008-0.179,0.06-0.35,0.146-0.504
		c0.156-0.266,0.393-0.472,0.646-0.644c0.05-0.029,0.1-0.059,0.146-0.093c0.056-0.035,0.118-0.061,0.175-0.096
		c0.068-0.043,0.145-0.07,0.217-0.105c0.134-0.078,0.286-0.113,0.425-0.179c0.145-0.052,0.293-0.095,0.438-0.146
		c0.229-0.065,0.465-0.111,0.704-0.122c0.065-0.001,0.131-0.004,0.195,0.005c0.102,0.015,0.207,0.018,0.306,0.048
		c0.069,0.019,0.139,0.032,0.207,0.053c0.086,0.034,0.18,0.035,0.27,0.05c0.083,0.015,0.168,0.013,0.252,0.013
		c0.263-0.006,0.524-0.046,0.784-0.08c0.025-0.005,0.039,0.023,0.048,0.043c0.041,0.105,0.074,0.214,0.123,0.316
		c0.036,0.082,0.064,0.167,0.097,0.25c0.074,0.146,0.117,0.306,0.191,0.453c0.06,0.166,0.142,0.323,0.199,0.49
		c0.01,0.024-0.014,0.044-0.024,0.063c-0.059,0.08-0.131,0.151-0.211,0.21c-0.051,0.053-0.12,0.084-0.177,0.129
		c-0.052,0.041-0.115,0.066-0.169,0.104c-0.077,0.052-0.165,0.084-0.245,0.131c-0.075,0.045-0.158,0.074-0.236,0.114
		c-0.105,0.059-0.222,0.092-0.331,0.142c-0.097,0.05-0.203,0.08-0.305,0.12c-0.185,0.084-0.385,0.126-0.573,0.202
		c-0.184,0.056-0.371,0.099-0.557,0.149c-0.114,0.02-0.227,0.061-0.345,0.053c-0.059,0.001-0.117,0.018-0.176,0.014
		c-0.231,0.019-0.462,0.037-0.694,0.033c-0.142-0.016-0.286-0.014-0.426-0.039c-0.09-0.023-0.183-0.031-0.27-0.066
		c-0.253-0.071-0.493-0.218-0.64-0.439c-0.066-0.085-0.101-0.189-0.133-0.291C23.514,37.805,23.493,37.773,23.488,37.735z"/>
	<path fill="#FFB900" d="M29.131,35.715c-0.055-0.092-0.089-0.196-0.15-0.285c0.049-0.057,0.116-0.093,0.17-0.144
		c0.078-0.057,0.152-0.119,0.236-0.168c0.055-0.031,0.104-0.072,0.161-0.1c0.051-0.024,0.099-0.053,0.148-0.081
		c0.115-0.055,0.237-0.093,0.355-0.14c0.164-0.047,0.334-0.073,0.504-0.073c0.107,0.012,0.216,0.018,0.32,0.046
		c0.082,0.03,0.166,0.055,0.239,0.103c0.062,0.029,0.112,0.076,0.165,0.118c0.052,0.054,0.109,0.107,0.143,0.175
		c0.038,0.074,0.079,0.149,0.096,0.231c0.036,0.14,0.012,0.285-0.022,0.422c-0.087,0.262-0.276,0.479-0.497,0.64
		c-0.061,0.058-0.142,0.089-0.208,0.141c-0.066,0.04-0.137,0.068-0.205,0.105c-0.079,0.046-0.168,0.073-0.253,0.106
		c-0.195,0.084-0.403,0.133-0.61,0.177c-0.028-0.056-0.05-0.116-0.08-0.171c-0.04-0.068-0.067-0.141-0.099-0.213
		c-0.026-0.068-0.067-0.128-0.094-0.196c-0.023-0.051-0.042-0.104-0.069-0.153c-0.047-0.085-0.08-0.178-0.122-0.265
		C29.208,35.903,29.18,35.804,29.131,35.715z"/>
</g>
<g>
	<path fill="#FFB900" d="M10.14,36.291c0.032-0.086,0.058-0.178,0.114-0.252c0.08-0.161,0.223-0.277,0.372-0.37
		c0.265-0.157,0.573-0.222,0.877-0.25c0.058-0.001,0.116-0.003,0.173-0.01c0.067-0.004,0.133,0.004,0.199,0.001
		c0.08-0.004,0.16,0.009,0.241,0.013c0.154-0.003,0.305,0.04,0.458,0.049c0.152,0.025,0.302,0.059,0.454,0.085
		c0.232,0.054,0.461,0.128,0.675,0.235c0.058,0.03,0.116,0.06,0.168,0.099c0.082,0.062,0.172,0.116,0.244,0.19
		c0.051,0.05,0.106,0.095,0.156,0.147c0.059,0.071,0.14,0.118,0.212,0.175c0.065,0.054,0.14,0.093,0.214,0.133
		c0.233,0.122,0.48,0.213,0.725,0.31c0.024,0.008,0.023,0.04,0.021,0.061c-0.015,0.112-0.038,0.223-0.045,0.336
		c-0.008,0.089-0.025,0.177-0.036,0.265c-0.006,0.164-0.046,0.325-0.052,0.489c-0.028,0.174-0.032,0.351-0.063,0.525
		c-0.003,0.026-0.033,0.031-0.052,0.043c-0.091,0.042-0.188,0.069-0.287,0.082c-0.071,0.022-0.145,0.015-0.218,0.027
		c-0.066,0.011-0.132,0.002-0.198,0.009c-0.093,0.009-0.185-0.006-0.278-0.004c-0.088,0.003-0.174-0.012-0.262-0.014
		c-0.121,0-0.239-0.027-0.358-0.036c-0.109-0.003-0.217-0.029-0.325-0.043c-0.203-0.016-0.398-0.076-0.599-0.101
		c-0.188-0.04-0.373-0.093-0.559-0.139c-0.11-0.038-0.229-0.057-0.328-0.121c-0.052-0.028-0.11-0.041-0.16-0.073
		c-0.211-0.095-0.422-0.192-0.623-0.307c-0.116-0.083-0.243-0.15-0.354-0.241c-0.067-0.064-0.145-0.116-0.204-0.188
		c-0.187-0.185-0.325-0.429-0.346-0.694c-0.016-0.106,0.003-0.214,0.025-0.318C10.127,36.365,10.125,36.326,10.14,36.291z"/>
	<path fill="#FFB900" d="M16.054,37.26c-0.003-0.107,0.017-0.214,0.007-0.322c0.07-0.026,0.146-0.025,0.218-0.044
		c0.096-0.012,0.191-0.031,0.288-0.033c0.063-0.001,0.126-0.013,0.19-0.01c0.056,0.003,0.112,0.001,0.168,0.001
		c0.127,0.007,0.252,0.034,0.379,0.05c0.166,0.038,0.328,0.098,0.477,0.18c0.088,0.063,0.18,0.12,0.258,0.195
		c0.057,0.065,0.118,0.128,0.159,0.206c0.04,0.055,0.061,0.121,0.087,0.183c0.02,0.073,0.044,0.146,0.04,0.223
		c-0.003,0.083-0.003,0.168-0.028,0.249c-0.036,0.139-0.128,0.255-0.224,0.358c-0.203,0.187-0.474,0.285-0.745,0.319
		c-0.082,0.021-0.167,0.009-0.25,0.023c-0.077,0.003-0.153-0.007-0.23-0.008c-0.092,0.002-0.182-0.017-0.272-0.029
		c-0.211-0.021-0.417-0.079-0.619-0.141c0.003-0.063,0.012-0.126,0.013-0.189c-0.002-0.078,0.01-0.156,0.017-0.234
		c0.01-0.072,0.004-0.145,0.013-0.216c0.005-0.056,0.013-0.111,0.014-0.167c0-0.097,0.016-0.194,0.022-0.291
		C16.03,37.461,16.054,37.361,16.054,37.26z"/>
</g>
<g>
	<path fill="#FFB900" d="M2.973,22.807c0.092-0.008,0.186-0.024,0.277-0.005c0.179,0.004,0.346,0.083,0.493,0.178
		c0.255,0.173,0.445,0.423,0.6,0.686c0.026,0.052,0.052,0.103,0.083,0.152c0.032,0.059,0.053,0.122,0.084,0.181
		c0.038,0.071,0.06,0.149,0.091,0.223c0.069,0.138,0.094,0.293,0.151,0.436c0.042,0.148,0.076,0.298,0.116,0.447
		c0.05,0.233,0.08,0.472,0.075,0.711c-0.003,0.065-0.005,0.13-0.018,0.194c-0.021,0.101-0.032,0.205-0.068,0.302
		c-0.024,0.067-0.041,0.137-0.066,0.203c-0.039,0.084-0.047,0.177-0.068,0.266c-0.021,0.082-0.024,0.167-0.029,0.25
		c-0.011,0.263,0.012,0.525,0.028,0.788c0.003,0.025-0.026,0.038-0.046,0.045c-0.108,0.034-0.218,0.06-0.323,0.102
		c-0.084,0.031-0.171,0.053-0.255,0.081c-0.151,0.064-0.313,0.097-0.464,0.161c-0.17,0.049-0.331,0.121-0.502,0.166
		c-0.025,0.009-0.043-0.017-0.061-0.028c-0.076-0.064-0.143-0.141-0.196-0.225c-0.05-0.055-0.076-0.125-0.117-0.185
		C2.72,27.884,2.7,27.819,2.665,27.763c-0.047-0.08-0.073-0.17-0.115-0.253c-0.04-0.078-0.064-0.163-0.099-0.243
		c-0.052-0.109-0.078-0.227-0.12-0.34c-0.044-0.1-0.066-0.208-0.1-0.312c-0.072-0.19-0.101-0.393-0.164-0.585
		c-0.044-0.187-0.075-0.377-0.112-0.565c-0.013-0.115-0.046-0.231-0.03-0.348c0.003-0.059-0.01-0.117-0.002-0.176
		c-0.004-0.231-0.007-0.464,0.013-0.694c0.025-0.14,0.032-0.284,0.067-0.423c0.029-0.088,0.043-0.181,0.083-0.265
		c0.088-0.248,0.25-0.477,0.48-0.609c0.089-0.06,0.195-0.088,0.299-0.113C2.901,22.828,2.935,22.81,2.973,22.807z"/>
	<path fill="#FFB900" d="M4.617,28.571c0.096-0.049,0.201-0.076,0.294-0.13c0.053,0.052,0.085,0.122,0.133,0.179
		c0.052,0.082,0.109,0.16,0.153,0.246c0.027,0.057,0.065,0.108,0.09,0.167c0.021,0.052,0.047,0.102,0.071,0.153
		c0.048,0.118,0.077,0.243,0.117,0.364c0.036,0.166,0.051,0.338,0.04,0.508c-0.019,0.106-0.032,0.214-0.067,0.316
		c-0.035,0.08-0.065,0.162-0.118,0.232c-0.033,0.06-0.083,0.107-0.129,0.157c-0.058,0.049-0.114,0.102-0.184,0.131
		c-0.077,0.033-0.154,0.069-0.237,0.081c-0.142,0.026-0.285-0.007-0.419-0.049c-0.256-0.104-0.46-0.307-0.606-0.538
		c-0.054-0.065-0.079-0.147-0.127-0.216c-0.035-0.068-0.059-0.141-0.091-0.211c-0.041-0.082-0.062-0.172-0.089-0.259
		C3.375,29.5,3.34,29.29,3.31,29.08c0.058-0.025,0.119-0.042,0.176-0.069c0.07-0.035,0.146-0.057,0.219-0.084
		c0.069-0.022,0.132-0.058,0.201-0.081c0.052-0.02,0.106-0.036,0.157-0.059c0.088-0.041,0.182-0.068,0.273-0.104
		C4.425,28.635,4.526,28.614,4.617,28.571z"/>
</g>
<g>
	<path fill="#FFB900" d="M19.896,8.161c0.075,0.033,0.13,0.096,0.187,0.153c0.104,0.113,0.202,0.236,0.264,0.378
		c0.028,0.091,0.071,0.179,0.074,0.276c0.028,0.184-0.007,0.372-0.073,0.545c-0.021,0.074-0.064,0.139-0.097,0.208
		c-0.044,0.098-0.114,0.18-0.169,0.272c-0.081,0.112-0.175,0.215-0.268,0.317c-0.159,0.192-0.353,0.352-0.535,0.521
		c-0.146,0.136-0.311,0.249-0.478,0.358c-0.078,0.055-0.168,0.092-0.247,0.146c-0.133,0.079-0.263,0.163-0.404,0.227
		c-0.103,0.055-0.204,0.114-0.312,0.16c-0.12,0.052-0.232,0.122-0.356,0.166c-0.085,0.033-0.165,0.079-0.253,0.106
		c-0.094,0.031-0.182,0.081-0.28,0.103c-0.065,0.018-0.126,0.049-0.192,0.061c-0.063,0.012-0.123,0.04-0.187,0.047
		c-0.067,0.009-0.132,0.031-0.2,0.033c-0.082,0.01-0.166,0.007-0.248-0.004c-0.025,0-0.034-0.026-0.042-0.044
		c-0.038-0.105-0.096-0.2-0.14-0.302c-0.051-0.134-0.13-0.256-0.18-0.39c-0.041-0.096-0.097-0.186-0.136-0.284
		c-0.05-0.124-0.127-0.236-0.173-0.362c-0.023-0.05-0.051-0.098-0.075-0.148c0.202-0.174,0.412-0.34,0.596-0.533
		c0.08-0.099,0.168-0.193,0.236-0.302c0.046-0.088,0.104-0.171,0.142-0.263c0.025-0.055,0.06-0.105,0.091-0.157
		c0.086-0.154,0.211-0.281,0.338-0.402c0.094-0.092,0.204-0.166,0.31-0.243c0.144-0.096,0.288-0.194,0.446-0.267
		c0.094-0.052,0.187-0.104,0.284-0.149c0.125-0.049,0.24-0.121,0.37-0.159c0.086-0.033,0.171-0.069,0.261-0.091
		c0.092-0.038,0.191-0.052,0.286-0.079c0.309-0.064,0.637-0.091,0.941,0.009C19.758,8.083,19.824,8.129,19.896,8.161z"/>
	<path fill="#FFB900" d="M14.812,10.975c0.021,0.044,0.039,0.09,0.057,0.136c0.026,0.104,0.082,0.197,0.115,0.298
		c0.03,0.09,0.078,0.172,0.108,0.262c0.034,0.101,0.088,0.194,0.125,0.293c0.029,0.088,0.075,0.169,0.107,0.256
		c0.04,0.123,0.108,0.235,0.145,0.359c-0.084,0.06-0.17,0.119-0.259,0.172c-0.143,0.071-0.274,0.167-0.425,0.222
		c-0.069,0.029-0.136,0.064-0.207,0.088c-0.064,0.015-0.124,0.041-0.187,0.06c-0.235,0.061-0.482,0.094-0.724,0.052
		c-0.161-0.034-0.322-0.091-0.446-0.203c-0.093-0.082-0.169-0.184-0.219-0.298c-0.076-0.198-0.072-0.422,0.002-0.62
		c0.025-0.088,0.08-0.162,0.119-0.243c0.176-0.25,0.429-0.44,0.701-0.575c0.104-0.033,0.198-0.092,0.306-0.117
		c0.057-0.014,0.111-0.039,0.169-0.051c0.084-0.013,0.164-0.046,0.249-0.053C14.634,10.996,14.723,10.989,14.812,10.975z"/>
</g>
<g>
	<path fill="#FFB900" d="M33.31,5.687c0.051,0.064,0.07,0.146,0.093,0.223c0.039,0.149,0.067,0.303,0.056,0.457
		c-0.018,0.093-0.022,0.192-0.064,0.278c-0.062,0.175-0.181,0.326-0.32,0.447c-0.053,0.056-0.122,0.093-0.183,0.139
		c-0.085,0.066-0.186,0.106-0.277,0.161c-0.125,0.061-0.256,0.107-0.386,0.154c-0.231,0.094-0.476,0.145-0.717,0.208
		c-0.193,0.051-0.392,0.073-0.59,0.092c-0.095,0.012-0.191,0.003-0.287,0.013c-0.154,0.007-0.309,0.02-0.464,0.01
		c-0.117,0-0.234,0.005-0.351-0.005c-0.131-0.011-0.262-0.001-0.392-0.021c-0.091-0.011-0.183-0.008-0.273-0.025
		c-0.098-0.017-0.199-0.014-0.295-0.041c-0.066-0.014-0.134-0.016-0.198-0.036c-0.062-0.019-0.127-0.023-0.188-0.046
		c-0.063-0.024-0.131-0.035-0.192-0.065c-0.077-0.03-0.15-0.072-0.217-0.12c-0.022-0.011-0.018-0.039-0.016-0.059
		c0.015-0.11,0.009-0.222,0.019-0.333c0.019-0.142,0.005-0.287,0.025-0.429c0.009-0.105,0.002-0.21,0.014-0.314
		c0.014-0.133-0.001-0.268,0.017-0.4c0.003-0.055,0.001-0.11,0.003-0.165c0.26-0.058,0.524-0.106,0.777-0.19
		c0.118-0.05,0.239-0.092,0.35-0.155c0.082-0.056,0.172-0.102,0.249-0.165c0.048-0.037,0.103-0.064,0.154-0.095
		c0.148-0.096,0.318-0.149,0.487-0.196c0.126-0.037,0.258-0.051,0.388-0.069c0.172-0.017,0.346-0.036,0.519-0.027
		c0.107-0.002,0.214-0.004,0.321,0.002c0.133,0.015,0.269,0.006,0.401,0.033c0.092,0.011,0.184,0.019,0.273,0.042
		c0.099,0.01,0.193,0.044,0.29,0.065c0.302,0.089,0.605,0.219,0.826,0.45C33.224,5.553,33.261,5.625,33.31,5.687z"/>
	<path fill="#FFB900" d="M27.499,5.781c-0.002,0.049-0.008,0.098-0.014,0.147c-0.026,0.104-0.021,0.212-0.039,0.318
		c-0.016,0.093-0.012,0.189-0.028,0.282c-0.017,0.105-0.013,0.212-0.027,0.318c-0.016,0.091-0.014,0.185-0.026,0.276
		c-0.022,0.127-0.015,0.258-0.041,0.385c-0.103,0.014-0.206,0.026-0.309,0.031c-0.16-0.004-0.321,0.018-0.48-0.004
		c-0.075-0.007-0.15-0.007-0.224-0.019c-0.063-0.017-0.129-0.022-0.193-0.035c-0.236-0.056-0.47-0.143-0.663-0.294
		c-0.126-0.105-0.242-0.232-0.298-0.389c-0.043-0.116-0.063-0.242-0.053-0.366c0.026-0.21,0.135-0.406,0.293-0.547
		c0.063-0.066,0.147-0.105,0.219-0.159c0.273-0.138,0.585-0.187,0.889-0.178c0.107,0.02,0.219,0.012,0.325,0.04
		c0.057,0.014,0.116,0.018,0.173,0.034c0.08,0.028,0.166,0.037,0.245,0.07C27.332,5.716,27.414,5.751,27.499,5.781z"/>
</g>
<g>
	<path fill="#FFB900" d="M44.548,10.632c0.014,0.081-0.009,0.161-0.025,0.24c-0.037,0.149-0.086,0.298-0.171,0.428
		c-0.06,0.073-0.111,0.158-0.19,0.213c-0.139,0.124-0.315,0.199-0.495,0.238c-0.074,0.023-0.151,0.023-0.227,0.034
		c-0.106,0.017-0.213,0.004-0.32,0.008c-0.138-0.006-0.276-0.029-0.412-0.05c-0.248-0.028-0.487-0.102-0.729-0.161
		c-0.194-0.048-0.379-0.124-0.562-0.203c-0.089-0.035-0.169-0.089-0.258-0.126c-0.139-0.068-0.281-0.131-0.412-0.213
		c-0.102-0.056-0.208-0.108-0.305-0.173c-0.109-0.072-0.229-0.127-0.334-0.206c-0.075-0.053-0.156-0.095-0.227-0.153
		c-0.078-0.062-0.168-0.108-0.239-0.177c-0.051-0.044-0.11-0.079-0.157-0.127c-0.045-0.046-0.101-0.081-0.142-0.131
		c-0.044-0.051-0.099-0.093-0.138-0.149c-0.053-0.064-0.097-0.135-0.133-0.209c-0.014-0.021,0.003-0.042,0.014-0.059
		c0.066-0.089,0.115-0.19,0.176-0.283c0.085-0.116,0.142-0.249,0.228-0.365c0.058-0.087,0.102-0.183,0.163-0.269
		c0.076-0.11,0.127-0.236,0.207-0.343c0.029-0.047,0.054-0.096,0.082-0.144c0.256,0.074,0.51,0.158,0.773,0.206
		c0.127,0.013,0.254,0.034,0.382,0.032c0.099-0.01,0.2-0.007,0.298-0.025c0.06-0.01,0.121-0.007,0.181-0.01
		c0.176-0.013,0.351,0.022,0.521,0.062c0.129,0.028,0.251,0.079,0.374,0.126c0.159,0.067,0.321,0.134,0.468,0.226
		c0.095,0.05,0.19,0.099,0.281,0.155c0.11,0.077,0.233,0.135,0.336,0.222c0.075,0.054,0.152,0.105,0.22,0.168
		c0.082,0.056,0.148,0.131,0.223,0.196c0.222,0.223,0.425,0.482,0.509,0.791C44.537,10.474,44.535,10.555,44.548,10.632z"/>
	<path fill="#FFB900" d="M39.405,7.927c-0.025,0.042-0.054,0.082-0.083,0.122c-0.073,0.079-0.12,0.176-0.186,0.26
		c-0.059,0.074-0.101,0.16-0.16,0.234c-0.065,0.084-0.113,0.18-0.176,0.266c-0.058,0.072-0.101,0.155-0.156,0.23
		c-0.081,0.101-0.137,0.219-0.221,0.318c-0.097-0.037-0.193-0.076-0.286-0.122c-0.138-0.081-0.29-0.138-0.419-0.234
		c-0.062-0.042-0.128-0.078-0.187-0.124c-0.047-0.045-0.102-0.081-0.152-0.123c-0.18-0.163-0.344-0.351-0.441-0.576
		c-0.06-0.153-0.101-0.319-0.075-0.484c0.018-0.123,0.061-0.242,0.129-0.346c0.124-0.172,0.314-0.292,0.519-0.339
		c0.087-0.027,0.179-0.022,0.268-0.034c0.306,0.01,0.603,0.117,0.866,0.27c0.085,0.069,0.186,0.115,0.265,0.191
		c0.043,0.04,0.093,0.071,0.135,0.113c0.057,0.063,0.128,0.112,0.181,0.179C39.29,7.79,39.345,7.86,39.405,7.927z"/>
</g>
<g>
	<path fill="#FFB900" d="M57.765,12.331c0.039,0.072,0.043,0.156,0.052,0.236c0.012,0.153,0.012,0.31-0.027,0.46
		c-0.034,0.089-0.056,0.185-0.113,0.262c-0.092,0.161-0.236,0.288-0.395,0.382c-0.063,0.045-0.136,0.07-0.205,0.104
		c-0.095,0.049-0.201,0.071-0.301,0.109c-0.133,0.038-0.271,0.06-0.407,0.082c-0.244,0.052-0.495,0.057-0.742,0.077
		c-0.199,0.016-0.399,0.002-0.597-0.015c-0.096-0.005-0.189-0.031-0.284-0.038c-0.153-0.021-0.308-0.035-0.458-0.072
		c-0.115-0.021-0.231-0.037-0.344-0.067c-0.127-0.034-0.258-0.048-0.382-0.09c-0.087-0.027-0.178-0.041-0.264-0.074
		c-0.093-0.034-0.193-0.049-0.283-0.093c-0.062-0.026-0.129-0.04-0.189-0.071c-0.057-0.03-0.121-0.045-0.176-0.079
		c-0.058-0.035-0.123-0.057-0.178-0.098c-0.071-0.044-0.134-0.097-0.192-0.157c-0.019-0.015-0.01-0.041-0.005-0.061
		c0.035-0.106,0.049-0.217,0.078-0.324c0.044-0.137,0.057-0.281,0.101-0.418c0.027-0.101,0.039-0.206,0.07-0.307
		c0.037-0.128,0.047-0.264,0.088-0.391c0.013-0.054,0.021-0.108,0.033-0.162c0.266-0.011,0.534-0.011,0.798-0.049
		c0.125-0.028,0.252-0.048,0.372-0.09c0.091-0.041,0.187-0.069,0.275-0.118c0.054-0.028,0.112-0.045,0.169-0.066
		c0.163-0.068,0.34-0.09,0.514-0.106c0.131-0.014,0.263-0.004,0.394,0.001c0.173,0.014,0.347,0.026,0.515,0.066
		c0.106,0.017,0.211,0.034,0.316,0.059c0.129,0.039,0.264,0.054,0.389,0.104c0.088,0.028,0.177,0.052,0.261,0.09
		c0.096,0.028,0.182,0.078,0.274,0.115c0.282,0.141,0.556,0.323,0.733,0.59C57.705,12.184,57.728,12.261,57.765,12.331z"/>
	<path fill="#FFB900" d="M52.031,11.388c-0.011,0.048-0.025,0.095-0.04,0.142c-0.044,0.098-0.058,0.205-0.095,0.306
		c-0.032,0.089-0.045,0.184-0.078,0.273c-0.036,0.1-0.051,0.206-0.083,0.308c-0.032,0.087-0.046,0.179-0.075,0.267
		c-0.044,0.121-0.061,0.251-0.109,0.372c-0.103-0.005-0.207-0.012-0.31-0.025c-0.157-0.033-0.319-0.039-0.472-0.089
		c-0.072-0.02-0.146-0.034-0.217-0.059c-0.059-0.028-0.123-0.045-0.183-0.069c-0.223-0.098-0.437-0.225-0.6-0.407
		c-0.105-0.126-0.196-0.271-0.224-0.436c-0.022-0.122-0.019-0.249,0.013-0.369c0.063-0.202,0.205-0.376,0.386-0.486
		c0.074-0.053,0.163-0.077,0.244-0.117c0.294-0.087,0.609-0.08,0.907-0.017c0.102,0.038,0.213,0.05,0.312,0.098
		c0.054,0.024,0.111,0.038,0.164,0.065c0.074,0.042,0.157,0.066,0.229,0.113C51.878,11.294,51.953,11.343,52.031,11.388z"/>
</g>
<g>
	<path fill="#FFB900" d="M68.845,12.456c0.043,0.07,0.051,0.153,0.065,0.233c0.02,0.152,0.029,0.309-0.002,0.461
		c-0.029,0.09-0.046,0.187-0.099,0.268c-0.084,0.166-0.221,0.3-0.374,0.403c-0.06,0.049-0.132,0.077-0.199,0.114
		c-0.093,0.054-0.197,0.081-0.295,0.125c-0.131,0.045-0.267,0.074-0.402,0.104c-0.241,0.065-0.491,0.083-0.737,0.117
		c-0.198,0.027-0.398,0.023-0.597,0.017c-0.096,0-0.19-0.021-0.286-0.023c-0.154-0.013-0.309-0.019-0.461-0.048
		c-0.116-0.015-0.233-0.025-0.347-0.049c-0.128-0.027-0.26-0.034-0.387-0.07c-0.089-0.022-0.18-0.031-0.267-0.059
		c-0.095-0.029-0.195-0.039-0.288-0.077c-0.063-0.022-0.131-0.033-0.192-0.061c-0.059-0.027-0.123-0.039-0.18-0.07
		c-0.06-0.031-0.126-0.051-0.183-0.088c-0.073-0.04-0.139-0.09-0.2-0.146c-0.02-0.014-0.013-0.04-0.009-0.06
		c0.029-0.108,0.037-0.219,0.06-0.328c0.036-0.139,0.042-0.284,0.078-0.423c0.022-0.103,0.028-0.208,0.053-0.31
		c0.031-0.13,0.033-0.266,0.068-0.395c0.01-0.054,0.015-0.109,0.024-0.164c0.265-0.025,0.533-0.039,0.795-0.091
		c0.123-0.035,0.249-0.061,0.367-0.11c0.089-0.045,0.183-0.079,0.268-0.133c0.052-0.031,0.11-0.051,0.165-0.075
		c0.159-0.076,0.335-0.108,0.508-0.133c0.13-0.021,0.262-0.018,0.394-0.02c0.173,0.005,0.347,0.008,0.518,0.039
		c0.106,0.012,0.213,0.023,0.318,0.042c0.13,0.032,0.266,0.04,0.394,0.083c0.089,0.023,0.18,0.042,0.266,0.076
		c0.097,0.022,0.186,0.068,0.279,0.1c0.289,0.126,0.572,0.293,0.763,0.55C68.777,12.313,68.805,12.389,68.845,12.456z"/>
	<path fill="#FFB900" d="M63.069,11.819c-0.008,0.048-0.02,0.096-0.032,0.144c-0.039,0.1-0.047,0.208-0.078,0.31
		c-0.027,0.091-0.036,0.186-0.063,0.276c-0.03,0.102-0.04,0.209-0.067,0.312c-0.028,0.088-0.037,0.181-0.061,0.271
		c-0.038,0.124-0.048,0.254-0.089,0.377c-0.104,0.001-0.207-0.001-0.311-0.009c-0.158-0.024-0.32-0.022-0.476-0.064
		c-0.073-0.016-0.148-0.026-0.22-0.047c-0.061-0.025-0.125-0.038-0.187-0.059c-0.227-0.086-0.448-0.201-0.621-0.375
		c-0.112-0.12-0.211-0.26-0.247-0.423c-0.028-0.121-0.032-0.248-0.006-0.369c0.052-0.205,0.185-0.386,0.359-0.505
		c0.071-0.057,0.159-0.086,0.237-0.13c0.289-0.103,0.604-0.112,0.905-0.065c0.104,0.033,0.215,0.039,0.317,0.081
		c0.055,0.021,0.113,0.032,0.167,0.056c0.076,0.038,0.16,0.057,0.234,0.1C62.912,11.733,62.989,11.779,63.069,11.819z"/>
</g>
<g>
	<path fill="#FFB900" d="M77.498,19.592c-0.024,0.079-0.08,0.14-0.13,0.203c-0.1,0.117-0.211,0.228-0.345,0.306
		c-0.087,0.038-0.17,0.091-0.265,0.106c-0.18,0.049-0.371,0.036-0.549-0.009c-0.076-0.012-0.146-0.047-0.218-0.072
		c-0.102-0.033-0.192-0.093-0.29-0.136c-0.121-0.068-0.233-0.15-0.346-0.23c-0.209-0.136-0.39-0.31-0.579-0.471
		c-0.152-0.13-0.283-0.281-0.411-0.433c-0.064-0.071-0.111-0.156-0.174-0.228c-0.094-0.123-0.192-0.243-0.272-0.375
		c-0.066-0.096-0.137-0.19-0.195-0.291c-0.065-0.114-0.148-0.217-0.206-0.334c-0.043-0.081-0.097-0.155-0.134-0.239
		c-0.042-0.09-0.101-0.172-0.134-0.266c-0.026-0.062-0.063-0.119-0.083-0.184c-0.019-0.062-0.053-0.118-0.069-0.181
		c-0.017-0.066-0.046-0.128-0.056-0.195c-0.019-0.081-0.026-0.164-0.025-0.247c-0.003-0.024,0.022-0.036,0.039-0.047
		c0.099-0.05,0.188-0.118,0.284-0.174c0.128-0.066,0.239-0.159,0.367-0.224c0.091-0.052,0.174-0.118,0.266-0.167
		c0.117-0.064,0.22-0.153,0.339-0.213c0.047-0.029,0.092-0.062,0.138-0.091c0.196,0.181,0.385,0.37,0.598,0.531
		c0.108,0.068,0.211,0.145,0.327,0.2c0.093,0.036,0.182,0.084,0.278,0.111c0.058,0.018,0.111,0.048,0.166,0.073
		c0.163,0.068,0.304,0.177,0.438,0.289c0.103,0.083,0.188,0.183,0.277,0.28c0.112,0.132,0.226,0.264,0.317,0.412
		c0.062,0.087,0.125,0.174,0.181,0.265c0.063,0.118,0.148,0.225,0.201,0.349c0.043,0.082,0.089,0.162,0.121,0.249
		c0.048,0.087,0.073,0.184,0.112,0.275c0.099,0.299,0.164,0.622,0.1,0.936C77.559,19.446,77.521,19.517,77.498,19.592z"/>
	<path fill="#FFB900" d="M74.116,14.866c-0.042,0.026-0.085,0.049-0.129,0.072c-0.1,0.037-0.186,0.104-0.283,0.149
		c-0.086,0.04-0.162,0.098-0.248,0.137c-0.096,0.046-0.182,0.11-0.277,0.158c-0.084,0.039-0.16,0.094-0.242,0.136
		c-0.117,0.054-0.221,0.134-0.34,0.185c-0.07-0.077-0.138-0.155-0.201-0.237c-0.087-0.134-0.197-0.253-0.27-0.397
		c-0.037-0.065-0.079-0.127-0.111-0.195c-0.022-0.062-0.055-0.119-0.081-0.178c-0.088-0.226-0.149-0.468-0.136-0.713
		c0.015-0.163,0.053-0.331,0.15-0.466c0.071-0.102,0.163-0.189,0.271-0.251c0.188-0.098,0.411-0.12,0.616-0.07
		c0.09,0.014,0.17,0.061,0.255,0.09c0.269,0.146,0.487,0.375,0.652,0.63c0.045,0.099,0.115,0.187,0.151,0.29
		c0.021,0.055,0.051,0.106,0.07,0.162c0.023,0.082,0.065,0.158,0.082,0.241C74.075,14.692,74.092,14.78,74.116,14.866z"/>
</g>
<g>
	<path fill="#FFB900" d="M72.783,30.089c-0.082,0.005-0.159-0.027-0.236-0.052c-0.144-0.054-0.287-0.119-0.406-0.218
		c-0.066-0.068-0.144-0.128-0.191-0.213c-0.108-0.152-0.162-0.335-0.181-0.519c-0.015-0.076-0.006-0.153-0.008-0.23
		c-0.005-0.107,0.02-0.212,0.028-0.319c0.022-0.137,0.06-0.271,0.096-0.404c0.056-0.243,0.156-0.473,0.242-0.706
		c0.069-0.187,0.166-0.363,0.264-0.535c0.045-0.085,0.108-0.158,0.154-0.242c0.083-0.13,0.161-0.264,0.258-0.385
		c0.067-0.095,0.131-0.194,0.206-0.284c0.084-0.101,0.152-0.214,0.243-0.309c0.061-0.068,0.112-0.145,0.178-0.208
		c0.07-0.07,0.126-0.154,0.203-0.218c0.049-0.046,0.09-0.1,0.144-0.142c0.051-0.04,0.092-0.091,0.146-0.127
		c0.056-0.038,0.104-0.087,0.164-0.12c0.069-0.046,0.145-0.081,0.223-0.108c0.022-0.011,0.042,0.008,0.057,0.021
		c0.081,0.076,0.176,0.135,0.261,0.207c0.106,0.097,0.232,0.17,0.337,0.267c0.08,0.068,0.171,0.122,0.249,0.192
		c0.101,0.088,0.22,0.153,0.318,0.245c0.043,0.035,0.089,0.065,0.133,0.098c-0.102,0.246-0.215,0.489-0.291,0.745
		c-0.027,0.125-0.063,0.248-0.075,0.376c-0.001,0.1-0.016,0.199-0.008,0.299c0.003,0.061-0.007,0.121-0.011,0.181
		c-0.007,0.176-0.061,0.346-0.12,0.511c-0.042,0.125-0.107,0.24-0.167,0.357c-0.085,0.151-0.169,0.303-0.277,0.44
		c-0.06,0.088-0.12,0.177-0.186,0.262c-0.089,0.1-0.16,0.216-0.258,0.309c-0.062,0.068-0.121,0.139-0.192,0.199
		c-0.065,0.075-0.147,0.132-0.22,0.2c-0.247,0.196-0.527,0.368-0.844,0.417C72.941,30.096,72.862,30.085,72.783,30.089z"/>
	<path fill="#FFB900" d="M76.05,25.283c-0.039-0.03-0.076-0.063-0.112-0.096c-0.07-0.081-0.162-0.139-0.237-0.214
		c-0.067-0.067-0.147-0.118-0.214-0.185c-0.076-0.075-0.166-0.133-0.244-0.205c-0.065-0.066-0.143-0.117-0.211-0.181
		c-0.091-0.091-0.202-0.161-0.291-0.256c0.048-0.092,0.098-0.183,0.153-0.271c0.096-0.128,0.17-0.273,0.279-0.39
		c0.049-0.057,0.092-0.118,0.145-0.172c0.05-0.042,0.092-0.092,0.14-0.137c0.182-0.161,0.388-0.302,0.622-0.373
		c0.158-0.042,0.329-0.064,0.49-0.02c0.12,0.031,0.234,0.088,0.329,0.167c0.157,0.142,0.255,0.344,0.278,0.554
		c0.017,0.089,0.001,0.18,0.004,0.271c-0.044,0.303-0.184,0.586-0.366,0.83c-0.078,0.077-0.135,0.172-0.22,0.242
		c-0.044,0.039-0.081,0.085-0.127,0.121c-0.069,0.05-0.126,0.115-0.198,0.16C76.199,25.184,76.123,25.231,76.05,25.283z"/>
</g>
<g>
	<path fill="#FFB900" d="M62.812,35.412c-0.073-0.037-0.124-0.103-0.178-0.163c-0.098-0.119-0.188-0.247-0.242-0.392
		c-0.023-0.092-0.06-0.183-0.058-0.28c-0.017-0.185,0.029-0.371,0.104-0.539c0.025-0.073,0.072-0.135,0.109-0.202
		c0.05-0.095,0.124-0.173,0.184-0.262c0.088-0.107,0.188-0.204,0.286-0.301c0.17-0.182,0.373-0.33,0.564-0.489
		c0.154-0.127,0.325-0.23,0.498-0.33c0.081-0.051,0.173-0.082,0.255-0.131c0.137-0.071,0.272-0.147,0.417-0.203
		c0.106-0.049,0.211-0.102,0.321-0.142c0.123-0.045,0.239-0.108,0.365-0.145c0.087-0.028,0.169-0.069,0.258-0.091
		c0.096-0.026,0.186-0.07,0.285-0.086c0.066-0.015,0.128-0.041,0.195-0.05c0.064-0.009,0.125-0.032,0.19-0.036
		c0.068-0.005,0.134-0.023,0.202-0.021c0.083-0.005,0.166,0.003,0.247,0.018c0.025,0.001,0.032,0.028,0.039,0.047
		c0.032,0.107,0.084,0.205,0.122,0.31c0.043,0.137,0.115,0.263,0.157,0.4c0.035,0.099,0.086,0.191,0.119,0.291
		c0.043,0.127,0.113,0.243,0.152,0.371c0.02,0.052,0.045,0.101,0.066,0.152c-0.212,0.162-0.432,0.315-0.626,0.497
		c-0.086,0.094-0.179,0.183-0.253,0.287c-0.051,0.085-0.114,0.164-0.157,0.254c-0.028,0.054-0.066,0.101-0.1,0.151
		c-0.095,0.149-0.227,0.268-0.361,0.381c-0.099,0.087-0.213,0.154-0.324,0.225c-0.149,0.088-0.299,0.177-0.46,0.241
		c-0.097,0.046-0.193,0.093-0.292,0.133c-0.128,0.042-0.247,0.107-0.378,0.138c-0.088,0.028-0.175,0.059-0.266,0.076
		c-0.094,0.032-0.194,0.04-0.29,0.062c-0.312,0.045-0.641,0.054-0.939-0.064C62.945,35.498,62.882,35.448,62.812,35.412z"/>
	<path fill="#FFB900" d="M68.052,32.899c-0.019-0.045-0.034-0.092-0.048-0.139c-0.02-0.105-0.07-0.202-0.097-0.305
		c-0.025-0.091-0.068-0.177-0.092-0.268c-0.028-0.103-0.077-0.198-0.108-0.3c-0.023-0.09-0.065-0.173-0.092-0.262
		c-0.033-0.125-0.094-0.241-0.123-0.367c0.087-0.055,0.176-0.109,0.268-0.157c0.147-0.063,0.284-0.151,0.438-0.197
		c0.071-0.025,0.139-0.056,0.212-0.076c0.065-0.011,0.126-0.033,0.19-0.049c0.238-0.047,0.487-0.066,0.726-0.01
		c0.158,0.043,0.316,0.11,0.433,0.228c0.088,0.087,0.158,0.193,0.201,0.31c0.064,0.202,0.047,0.426-0.038,0.619
		c-0.03,0.086-0.089,0.157-0.133,0.236c-0.191,0.24-0.454,0.415-0.734,0.533c-0.106,0.027-0.204,0.081-0.312,0.099
		c-0.058,0.011-0.113,0.032-0.171,0.041c-0.085,0.008-0.166,0.036-0.252,0.039C68.231,32.889,68.141,32.891,68.052,32.899z"/>
</g>
<g>
	<path fill="#E63B3B" d="M52.078,33.695c-0.037-0.074-0.038-0.157-0.045-0.237c-0.007-0.154-0.002-0.311,0.042-0.459
		c0.037-0.087,0.062-0.183,0.121-0.259c0.098-0.158,0.245-0.28,0.407-0.369c0.064-0.043,0.139-0.065,0.208-0.097
		c0.097-0.046,0.204-0.064,0.304-0.099c0.135-0.033,0.272-0.051,0.41-0.069c0.246-0.044,0.496-0.041,0.745-0.053
		c0.199-0.01,0.398,0.011,0.596,0.034c0.096,0.008,0.188,0.038,0.283,0.048c0.152,0.026,0.306,0.045,0.455,0.087
		c0.114,0.025,0.23,0.045,0.342,0.079c0.125,0.038,0.256,0.057,0.379,0.103c0.086,0.029,0.177,0.046,0.261,0.082
		c0.092,0.037,0.191,0.056,0.28,0.102c0.061,0.028,0.127,0.044,0.186,0.077c0.056,0.032,0.12,0.049,0.174,0.085
		c0.057,0.036,0.121,0.061,0.174,0.104c0.069,0.046,0.131,0.102,0.187,0.163c0.019,0.016,0.009,0.041,0.003,0.061
		c-0.038,0.105-0.056,0.215-0.088,0.321c-0.048,0.135-0.066,0.279-0.114,0.414c-0.031,0.1-0.046,0.205-0.079,0.304
		c-0.042,0.127-0.055,0.262-0.101,0.388c-0.015,0.053-0.025,0.108-0.038,0.161c-0.267,0.002-0.534-0.007-0.8,0.023
		c-0.125,0.024-0.253,0.039-0.375,0.078c-0.092,0.038-0.19,0.063-0.278,0.109c-0.055,0.026-0.114,0.041-0.171,0.061
		c-0.165,0.062-0.343,0.079-0.517,0.089c-0.131,0.01-0.263-0.004-0.394-0.014c-0.172-0.019-0.346-0.037-0.513-0.083
		c-0.105-0.021-0.21-0.041-0.313-0.069c-0.127-0.043-0.262-0.063-0.385-0.117c-0.087-0.03-0.176-0.057-0.258-0.099
		c-0.095-0.031-0.179-0.084-0.27-0.124c-0.277-0.15-0.545-0.341-0.713-0.614C52.133,33.843,52.112,33.765,52.078,33.695z"/>
	<path fill="#E63B3B" d="M57.778,34.824c0.012-0.047,0.028-0.094,0.045-0.14c0.048-0.096,0.065-0.203,0.105-0.302
		c0.035-0.088,0.051-0.182,0.087-0.27c0.039-0.099,0.058-0.205,0.093-0.305c0.035-0.086,0.052-0.178,0.084-0.265
		c0.048-0.12,0.069-0.249,0.121-0.368c0.103,0.008,0.207,0.018,0.309,0.035c0.155,0.038,0.317,0.05,0.468,0.105
		c0.071,0.023,0.145,0.039,0.215,0.066c0.058,0.03,0.121,0.049,0.181,0.075c0.219,0.105,0.429,0.239,0.587,0.427
		c0.101,0.129,0.188,0.277,0.21,0.443c0.018,0.123,0.011,0.25-0.025,0.369c-0.07,0.2-0.218,0.369-0.401,0.473
		c-0.076,0.051-0.166,0.072-0.248,0.109c-0.296,0.077-0.612,0.06-0.907-0.013c-0.101-0.042-0.211-0.057-0.309-0.108
		c-0.053-0.026-0.11-0.042-0.162-0.07c-0.073-0.044-0.155-0.071-0.225-0.12C57.928,34.922,57.855,34.87,57.778,34.824z"/>
</g>
<g>
	<path fill="#FFB900" d="M40.524,29.973c-0.028-0.077-0.019-0.161-0.016-0.241c0.011-0.153,0.034-0.309,0.095-0.451
		c0.047-0.083,0.083-0.174,0.151-0.243c0.116-0.146,0.277-0.25,0.447-0.319c0.069-0.036,0.145-0.049,0.218-0.072
		c0.102-0.035,0.21-0.04,0.314-0.063c0.138-0.017,0.277-0.018,0.415-0.021c0.249-0.015,0.498,0.017,0.746,0.034
		c0.199,0.014,0.394,0.057,0.588,0.104c0.094,0.019,0.182,0.059,0.275,0.08c0.148,0.043,0.299,0.081,0.442,0.14
		c0.11,0.038,0.223,0.071,0.33,0.118c0.12,0.052,0.248,0.086,0.364,0.146c0.082,0.039,0.17,0.067,0.25,0.112
		c0.087,0.047,0.183,0.078,0.266,0.134c0.058,0.035,0.121,0.059,0.176,0.098c0.052,0.038,0.113,0.063,0.163,0.105
		c0.052,0.043,0.113,0.075,0.161,0.123c0.063,0.054,0.118,0.116,0.167,0.184c0.017,0.018,0.004,0.042-0.004,0.061
		c-0.05,0.099-0.081,0.207-0.125,0.309c-0.064,0.129-0.098,0.27-0.162,0.398c-0.042,0.096-0.07,0.198-0.115,0.293
		c-0.056,0.121-0.085,0.254-0.146,0.373c-0.021,0.051-0.037,0.104-0.057,0.156c-0.265-0.029-0.53-0.069-0.797-0.071
		c-0.127,0.009-0.256,0.009-0.382,0.034c-0.096,0.027-0.196,0.041-0.289,0.076c-0.057,0.02-0.118,0.027-0.177,0.04
		c-0.171,0.043-0.349,0.038-0.524,0.028c-0.132-0.005-0.26-0.035-0.389-0.06c-0.169-0.039-0.339-0.078-0.5-0.143
		c-0.102-0.033-0.204-0.065-0.303-0.105c-0.121-0.057-0.253-0.093-0.369-0.161c-0.083-0.04-0.168-0.078-0.245-0.128
		c-0.091-0.042-0.168-0.104-0.253-0.155c-0.257-0.182-0.501-0.403-0.637-0.693C40.562,30.127,40.55,30.047,40.524,29.973z"/>
	<path fill="#FFB900" d="M46.054,31.762c0.018-0.046,0.039-0.09,0.061-0.134c0.058-0.09,0.088-0.194,0.139-0.288
		c0.045-0.083,0.072-0.175,0.118-0.258c0.05-0.094,0.081-0.197,0.128-0.292c0.045-0.081,0.073-0.17,0.114-0.253
		c0.062-0.113,0.098-0.239,0.164-0.351c0.102,0.02,0.203,0.042,0.303,0.071c0.15,0.056,0.309,0.086,0.453,0.159
		c0.068,0.031,0.14,0.055,0.206,0.091c0.054,0.037,0.114,0.063,0.171,0.095c0.205,0.13,0.398,0.288,0.533,0.492
		c0.085,0.14,0.154,0.298,0.157,0.464c0.004,0.124-0.019,0.249-0.068,0.363c-0.092,0.191-0.259,0.341-0.454,0.423
		c-0.081,0.042-0.173,0.052-0.259,0.08c-0.303,0.042-0.614-0.012-0.899-0.119c-0.095-0.053-0.203-0.082-0.294-0.143
		c-0.049-0.032-0.104-0.054-0.152-0.088c-0.067-0.052-0.146-0.088-0.209-0.145C46.19,31.877,46.124,31.817,46.054,31.762z"/>
</g>
<g>
	<path fill="#FFB900" d="M28.941,31.294c-0.058-0.058-0.087-0.137-0.119-0.21c-0.057-0.143-0.103-0.293-0.11-0.448
		c0.007-0.095-0.001-0.193,0.031-0.284c0.041-0.181,0.141-0.345,0.265-0.481c0.046-0.062,0.11-0.107,0.166-0.159
		c0.077-0.075,0.172-0.127,0.256-0.192c0.116-0.075,0.241-0.137,0.365-0.198c0.218-0.121,0.456-0.2,0.687-0.292
		c0.185-0.074,0.38-0.119,0.575-0.161c0.093-0.023,0.19-0.025,0.283-0.047c0.153-0.025,0.304-0.057,0.459-0.065
		c0.116-0.014,0.232-0.033,0.349-0.037c0.131-0.005,0.261-0.03,0.392-0.026c0.091,0,0.182-0.014,0.274-0.007
		c0.099,0.005,0.199-0.01,0.298,0.005c0.067,0.006,0.135,0,0.201,0.012c0.064,0.012,0.129,0.008,0.192,0.024
		c0.066,0.016,0.134,0.019,0.199,0.042c0.08,0.021,0.157,0.054,0.23,0.093c0.023,0.009,0.022,0.036,0.023,0.056
		c-0.002,0.111,0.017,0.221,0.021,0.332c-0.001,0.144,0.029,0.286,0.027,0.429c0.003,0.105,0.023,0.209,0.024,0.314
		c0.002,0.134,0.033,0.266,0.03,0.4c0.003,0.055,0.012,0.11,0.016,0.165c-0.251,0.089-0.507,0.167-0.749,0.281
		c-0.111,0.063-0.227,0.119-0.329,0.196c-0.075,0.066-0.159,0.121-0.228,0.194c-0.043,0.043-0.094,0.076-0.142,0.113
		c-0.136,0.113-0.298,0.186-0.46,0.252c-0.121,0.052-0.25,0.081-0.377,0.115c-0.169,0.038-0.339,0.077-0.512,0.088
		c-0.106,0.014-0.212,0.029-0.319,0.036c-0.134,0.001-0.268,0.026-0.402,0.015c-0.092,0-0.185,0.003-0.276-0.009
		c-0.1,0.002-0.197-0.021-0.296-0.03c-0.311-0.052-0.626-0.146-0.874-0.349C29.042,31.416,28.997,31.349,28.941,31.294z"/>
	<path fill="#FFB900" d="M34.7,30.51c-0.004-0.049-0.004-0.098-0.003-0.147c0.014-0.106-0.005-0.213,0.001-0.32
		c0.005-0.095-0.011-0.189-0.006-0.283c0.005-0.106-0.012-0.212-0.011-0.319c0.005-0.093-0.008-0.185-0.007-0.278
		c0.007-0.129-0.015-0.258-0.005-0.387c0.1-0.026,0.201-0.05,0.304-0.067c0.159-0.015,0.316-0.056,0.477-0.053
		c0.075-0.002,0.15-0.011,0.225-0.007c0.065,0.009,0.13,0.007,0.195,0.012c0.241,0.028,0.484,0.086,0.694,0.213
		c0.137,0.09,0.267,0.202,0.342,0.35c0.057,0.11,0.091,0.233,0.096,0.357c-0.001,0.212-0.086,0.42-0.226,0.578
		c-0.055,0.073-0.133,0.122-0.199,0.184c-0.255,0.17-0.559,0.255-0.862,0.283c-0.109-0.007-0.219,0.014-0.327-0.001
		c-0.058-0.007-0.118-0.004-0.176-0.014c-0.083-0.018-0.169-0.017-0.252-0.04C34.873,30.554,34.787,30.529,34.7,30.51z"/>
</g>
<g>
	<path fill="#FFB900" d="M16.947,33.923c-0.061-0.055-0.092-0.133-0.128-0.205c-0.063-0.14-0.116-0.288-0.129-0.442
		c0.003-0.095-0.01-0.193,0.018-0.285c0.033-0.183,0.126-0.351,0.243-0.493c0.044-0.064,0.105-0.112,0.158-0.166
		c0.073-0.078,0.166-0.134,0.247-0.203c0.113-0.08,0.235-0.147,0.356-0.214c0.212-0.131,0.447-0.22,0.673-0.322
		c0.182-0.082,0.375-0.136,0.567-0.186c0.092-0.027,0.188-0.034,0.281-0.059c0.151-0.032,0.302-0.07,0.456-0.085
		c0.115-0.019,0.23-0.043,0.347-0.052c0.131-0.01,0.259-0.041,0.39-0.043c0.091-0.004,0.182-0.022,0.273-0.019
		c0.099,0.001,0.198-0.018,0.298-0.008c0.067,0.003,0.135-0.006,0.202,0.003c0.064,0.009,0.129,0.002,0.193,0.015
		c0.066,0.013,0.135,0.013,0.2,0.033c0.081,0.017,0.159,0.047,0.234,0.083c0.023,0.008,0.024,0.035,0.026,0.055
		c0.003,0.111,0.027,0.22,0.036,0.331c0.005,0.144,0.041,0.284,0.045,0.428c0.008,0.105,0.032,0.207,0.037,0.312
		c0.008,0.134,0.045,0.264,0.048,0.398c0.006,0.055,0.017,0.109,0.024,0.164c-0.247,0.1-0.499,0.19-0.736,0.314
		c-0.108,0.068-0.221,0.129-0.32,0.21c-0.072,0.069-0.153,0.128-0.219,0.204c-0.041,0.045-0.091,0.08-0.137,0.119
		c-0.131,0.118-0.29,0.199-0.449,0.272c-0.119,0.058-0.246,0.092-0.372,0.131c-0.167,0.045-0.335,0.092-0.508,0.11
		c-0.105,0.019-0.211,0.039-0.317,0.05c-0.134,0.007-0.267,0.037-0.401,0.033c-0.092,0.004-0.184,0.011-0.277,0.003
		c-0.1,0.006-0.197-0.012-0.297-0.017c-0.313-0.039-0.632-0.118-0.888-0.31C17.053,34.041,17.005,33.976,16.947,33.923z"/>
	<path fill="#FFB900" d="M22.665,32.887c-0.006-0.049-0.008-0.098-0.01-0.147c0.009-0.107-0.014-0.213-0.013-0.32
		c0-0.095-0.019-0.188-0.018-0.283c0-0.106-0.021-0.212-0.025-0.318c0.001-0.093-0.016-0.184-0.019-0.277
		c0.001-0.129-0.027-0.257-0.022-0.387c0.099-0.03,0.199-0.059,0.3-0.08c0.159-0.022,0.313-0.07,0.474-0.074
		c0.075-0.005,0.149-0.017,0.224-0.017c0.065,0.007,0.131,0.001,0.196,0.003c0.242,0.017,0.487,0.065,0.702,0.182
		c0.141,0.083,0.276,0.19,0.358,0.335c0.062,0.108,0.101,0.228,0.112,0.352c0.009,0.212-0.067,0.423-0.2,0.587
		c-0.052,0.075-0.128,0.128-0.19,0.192c-0.247,0.181-0.547,0.28-0.848,0.32c-0.109-0.002-0.218,0.024-0.327,0.013
		c-0.059-0.005-0.118,0.001-0.176-0.006c-0.084-0.015-0.17-0.009-0.253-0.029C22.84,32.924,22.753,32.902,22.665,32.887z"/>
</g>
<g>
	<path fill="#FFB900" d="M8.352,26.865c0.021-0.08,0.075-0.143,0.122-0.208c0.095-0.121,0.202-0.236,0.332-0.319
		c0.085-0.042,0.166-0.098,0.261-0.116c0.178-0.055,0.369-0.05,0.549-0.012c0.077,0.009,0.147,0.042,0.221,0.064
		c0.103,0.029,0.196,0.085,0.295,0.125c0.123,0.063,0.239,0.14,0.355,0.217c0.214,0.128,0.402,0.294,0.597,0.448
		c0.157,0.124,0.294,0.27,0.428,0.417c0.067,0.069,0.117,0.151,0.182,0.221c0.098,0.119,0.202,0.235,0.286,0.365
		c0.07,0.094,0.144,0.184,0.206,0.284c0.07,0.111,0.156,0.211,0.219,0.326c0.046,0.079,0.103,0.151,0.143,0.233
		c0.045,0.088,0.108,0.167,0.145,0.26c0.028,0.061,0.067,0.117,0.09,0.18c0.022,0.061,0.058,0.116,0.076,0.178
		c0.019,0.065,0.051,0.126,0.064,0.193c0.022,0.08,0.032,0.163,0.034,0.246c0.004,0.024-0.02,0.037-0.037,0.048
		c-0.097,0.054-0.183,0.126-0.277,0.185c-0.125,0.071-0.233,0.168-0.358,0.238c-0.089,0.056-0.169,0.124-0.26,0.178
		c-0.115,0.069-0.213,0.162-0.331,0.226c-0.046,0.03-0.089,0.065-0.134,0.097c-0.203-0.173-0.399-0.355-0.618-0.507
		c-0.11-0.064-0.217-0.136-0.334-0.187c-0.094-0.032-0.185-0.077-0.282-0.1c-0.059-0.016-0.113-0.044-0.169-0.066
		c-0.165-0.061-0.31-0.165-0.449-0.272c-0.106-0.079-0.195-0.176-0.288-0.269c-0.117-0.127-0.236-0.255-0.333-0.399
		c-0.065-0.085-0.132-0.169-0.191-0.258c-0.068-0.116-0.156-0.219-0.214-0.341c-0.046-0.08-0.095-0.158-0.13-0.244
		c-0.052-0.085-0.08-0.181-0.122-0.271c-0.11-0.295-0.188-0.615-0.136-0.931C8.297,27.013,8.332,26.941,8.352,26.865z"/>
	<path fill="#FFB900" d="M11.915,31.456c0.04-0.028,0.083-0.053,0.126-0.077c0.099-0.041,0.182-0.111,0.277-0.16
		c0.084-0.043,0.158-0.104,0.243-0.147c0.094-0.049,0.178-0.117,0.27-0.169c0.083-0.042,0.156-0.1,0.237-0.145
		c0.115-0.059,0.216-0.143,0.333-0.198c0.073,0.074,0.144,0.149,0.21,0.229c0.093,0.131,0.207,0.246,0.285,0.386
		c0.039,0.064,0.084,0.124,0.119,0.191c0.024,0.061,0.059,0.116,0.088,0.175c0.097,0.223,0.167,0.462,0.163,0.707
		c-0.009,0.164-0.04,0.332-0.132,0.472c-0.067,0.104-0.156,0.195-0.261,0.262c-0.184,0.105-0.406,0.136-0.613,0.094
		c-0.091-0.011-0.172-0.054-0.259-0.08c-0.274-0.136-0.501-0.356-0.676-0.604c-0.049-0.098-0.122-0.182-0.163-0.284
		c-0.023-0.054-0.056-0.104-0.076-0.159c-0.026-0.081-0.071-0.155-0.091-0.238C11.963,31.629,11.942,31.542,11.915,31.456z"/>
</g>
<g>
	<path fill="#FFB900" d="M9.833,15.784c0.078-0.025,0.161-0.014,0.241-0.01c0.153,0.015,0.308,0.043,0.448,0.108
		c0.081,0.049,0.172,0.087,0.238,0.158c0.142,0.12,0.241,0.284,0.306,0.456c0.034,0.07,0.045,0.147,0.066,0.22
		c0.032,0.103,0.034,0.211,0.054,0.316c0.013,0.138,0.011,0.277,0.009,0.415c0.008,0.249-0.031,0.497-0.056,0.744
		c-0.02,0.199-0.069,0.393-0.121,0.585c-0.022,0.093-0.064,0.18-0.088,0.273c-0.048,0.147-0.089,0.297-0.153,0.438
		c-0.041,0.109-0.078,0.221-0.128,0.327c-0.056,0.119-0.093,0.245-0.157,0.36c-0.042,0.081-0.072,0.168-0.119,0.246
		c-0.05,0.086-0.083,0.181-0.141,0.262c-0.036,0.057-0.062,0.12-0.103,0.173c-0.039,0.051-0.066,0.111-0.109,0.16
		c-0.044,0.051-0.078,0.111-0.128,0.157c-0.055,0.062-0.12,0.115-0.188,0.161c-0.018,0.016-0.042,0.003-0.061-0.005
		c-0.098-0.053-0.205-0.086-0.305-0.134c-0.127-0.067-0.267-0.106-0.393-0.173c-0.095-0.045-0.196-0.075-0.289-0.123
		c-0.12-0.06-0.251-0.093-0.369-0.156c-0.05-0.023-0.103-0.04-0.154-0.061c0.036-0.264,0.084-0.528,0.094-0.794
		c-0.005-0.128-0.002-0.256-0.023-0.382c-0.024-0.097-0.035-0.197-0.068-0.291c-0.018-0.058-0.024-0.118-0.035-0.178
		c-0.038-0.172-0.028-0.35-0.013-0.525c0.009-0.132,0.043-0.259,0.071-0.388c0.044-0.167,0.087-0.336,0.157-0.495
		c0.036-0.101,0.071-0.202,0.114-0.3c0.061-0.12,0.1-0.25,0.171-0.364c0.043-0.082,0.082-0.165,0.135-0.241
		c0.044-0.089,0.109-0.165,0.162-0.249c0.189-0.252,0.417-0.49,0.711-0.616C9.678,15.817,9.758,15.808,9.833,15.784z"/>
	<path fill="#FFB900" d="M7.886,21.26c0.045,0.019,0.089,0.041,0.132,0.064c0.088,0.061,0.192,0.094,0.284,0.148
		c0.082,0.047,0.173,0.077,0.254,0.125c0.092,0.053,0.194,0.087,0.288,0.137c0.08,0.047,0.168,0.077,0.25,0.121
		c0.112,0.065,0.237,0.105,0.346,0.174c-0.023,0.101-0.048,0.202-0.08,0.3c-0.06,0.148-0.095,0.307-0.172,0.448
		c-0.033,0.067-0.059,0.138-0.097,0.203c-0.038,0.053-0.066,0.113-0.1,0.168c-0.136,0.202-0.299,0.39-0.508,0.519
		c-0.143,0.081-0.302,0.145-0.469,0.143c-0.124,0-0.248-0.026-0.361-0.078c-0.188-0.098-0.333-0.269-0.409-0.466
		c-0.04-0.082-0.047-0.174-0.072-0.261c-0.034-0.304,0.03-0.614,0.144-0.895c0.056-0.094,0.088-0.201,0.151-0.29
		c0.033-0.049,0.057-0.103,0.093-0.15c0.054-0.066,0.092-0.143,0.151-0.205C7.767,21.393,7.829,21.329,7.886,21.26z"/>
</g>
</svg>
