<?xml version="1.0" encoding="utf-8"?>
<!-- Generator: Adobe Illustrator 18.0.0, SVG Export Plug-In . SVG Version: 6.00 Build 0)  -->
<svg version="1.2" baseProfile="tiny" id="Layer_1" xmlns="http://www.w3.org/2000/svg" xmlns:xlink="http://www.w3.org/1999/xlink"
	 x="0px" y="0px" viewBox="0 0 101.162 77.653" xml:space="preserve">
<g>
	<path fill="#E63B3B" d="M35.15,0.831c0.925-1.429,3.532-0.919,3.735,0.805c0.149,1.653-0.581,3.234-0.504,4.889
		c-0.135,2.821,0.266,6.015,2.426,8.057c1.664,1.699,4.145,2.289,6.456,2.094c0.839,3.729,1.16,7.768,3.334,11.03
		c0.347-0.418,0.673-0.854,0.894-1.352c1.349-3.059,1.933-6.382,2.435-9.664c1.346-0.026,2.781-0.146,3.999,0.541
		c2.741,1.409,4.09,4.471,4.775,7.327c0.773,2.701,0.968,5.522,1.005,8.321c0.203,2.291-0.054,4.586-0.077,6.88
		c0.086,1.498-1.865,2.672-3.119,1.807c-0.728-0.418-1.246-1.269-1.151-2.12c0.475-3.97,0.235-8-0.327-11.944
		c-0.361-1.383-0.364-2.965-1.318-4.107c-0.123,6.877,0.072,13.763-0.115,20.637c0.02,6.026-0.043,12.05-0.014,18.076
		c0.18,1.782-1.481,3.534-3.277,3.374c-1.799,0.072-3.205-1.661-3.231-3.383c-0.029-7.582,0.034-15.163-0.006-22.745
		c-0.327-0.003-0.653-0.003-0.98-0.003c-0.037,7.49,0.011,14.98,0.003,22.47c-0.017,1.272-0.53,2.624-1.716,3.239
		c-1.842,1.246-4.64-0.2-4.786-2.397c-0.037-13.978-0.037-27.958-0.029-41.938c-2.841-0.796-5.545-2.36-7.186-4.881
		c-2.254-3.483-2.684-7.888-1.996-11.91C34.577,2.896,34.617,1.77,35.15,0.831z"/>
	<path fill="#E63B3B" d="M49.239,3.42c1.928-0.435,4.127,0.043,5.517,1.504c1.077,1.1,1.867,2.601,1.816,4.17
		c0.083,1.793-0.871,3.52-2.208,4.666c-1.484,1.275-3.603,1.492-5.451,1.048c-2.549-0.705-4.408-3.363-4.193-6.001
		C44.848,6.299,46.753,3.941,49.239,3.42z"/>
	<path fill="#E63B3B" d="M48.48,16.808c0.785,0.123,1.406,0.624,2.011,1.106c-0.656,0.355-1.312,0.713-2.011,0.98
		C48.472,18.197,48.472,17.504,48.48,16.808z"/>
	<path fill="#E63B3B" d="M50.823,17.919c0.556-0.524,1.212-0.914,1.916-1.203c0.017,0.748,0.017,1.498,0,2.246
		C52.098,18.623,51.462,18.265,50.823,17.919z"/>
	<path fill="#E63B3B" d="M5.992,34.122c1.243-0.387,2.767-0.318,3.701,0.696c1.736,1.489,1.252,4.632-0.851,5.542
		c-2.131,1.277-5.133-0.779-4.886-3.194C3.907,35.861,4.892,34.703,5.992,34.122z"/>
	<path fill="#E63B3B" d="M92.49,34.102c0.934-0.275,1.976-0.275,2.881,0.112c0.977,0.65,1.896,1.707,1.833,2.953
		c0.238,2.323-2.578,4.377-4.689,3.28c-1.747-0.665-2.569-2.793-1.865-4.491C91.006,35.136,91.705,34.503,92.49,34.102z"/>
	<path fill="#E63B3B" d="M20.64,37.023c1.097-0.312,2.412,0.203,2.75,1.352c0.685,1.647-1.169,3.509-2.818,2.807
		C18.626,40.687,18.692,37.482,20.64,37.023z"/>
	<path fill="#E63B3B" d="M78.862,37.138c1.398-0.707,3.348,0.401,3.154,2.042c0.112,1.627-1.876,2.678-3.222,1.856
		C77.258,40.32,77.292,37.803,78.862,37.138z"/>
	<path fill="#E63B3B" d="M10.117,40.3c0.372-0.662,0.753-1.318,1.137-1.973c1.323,0.98,2.818,1.79,4.445,2.105
		c1.194,0.223,2.42-0.215,3.598,0.12C16.535,42.34,12.924,41.623,10.117,40.3z"/>
	<path fill="#E63B3B" d="M84.378,40.492c2.028,0.063,3.861-1.008,5.482-2.117c0.524,0.547,0.791,1.283,1.174,1.931
		c-2.804,1.318-6.413,2.034-9.171,0.246C82.682,40.283,83.539,40.504,84.378,40.492z"/>
	<g>
		<path fill="#E63B3B" d="M31.501,39.209c0.742-0.464,1.833,0.289,1.836,1.111c0.106,0.822-1.071,1.149-0.911,1.996
			c-0.011,3.262,0.003,6.528,0,9.79c0.796,0.221,2.197,0.072,2.346,1.131c-1.607,1.074-4.01,0.937-5.66-0.04
			c0.538-0.842,1.55-0.965,2.458-1.086c-0.02-3.575,0.054-7.152-0.04-10.727c-0.77-0.295-1.466,0.18-2.171,0.427
			c-2.008,0.412-4.099,0.12-5.963-0.71c0.135-0.364,0.284-0.725,0.43-1.086c2.085,1.048,4.488,1.913,6.797,0.994
			C30.705,40.346,30.751,39.47,31.501,39.209z M30.381,53.172c0.753,0.341,1.587,0.55,2.412,0.369
			c0.573,0.034,0.527-0.487,0.553-0.899c-0.496,0.1-0.937,0.335-1.366,0.587C31.533,52.645,30.865,52.582,30.381,53.172z"/>
	</g>
	<g>
		<path fill="#E63B3B" d="M67.823,40.32c0.003-0.822,1.091-1.575,1.836-1.111c0.75,0.261,0.796,1.137,0.879,1.802
			c1.438,0.473,3.036,0.547,4.465,0.003c0.813-0.246,1.521-0.742,2.334-0.997c0.143,0.361,0.292,0.722,0.427,1.086
			c-1.618,0.71-3.371,1.045-5.136,0.839c-1.063,0.066-1.933-0.951-2.999-0.556c-0.095,3.575-0.02,7.152-0.04,10.727
			c0.905,0.117,1.919,0.246,2.46,1.088c-1.403,0.917-3.205,0.879-4.78,0.53c-0.484-0.066-1.232-0.51-0.687-1.031
			c0.639-0.407,1.421-0.47,2.154-0.587c-0.003-3.262,0.003-6.522,0.003-9.784C68.874,41.492,67.734,41.139,67.823,40.32z
			 M67.814,52.645c0.023,0.189,0.066,0.567,0.086,0.756c0.939,0.378,1.985,0.189,2.876-0.226c-0.481-0.596-1.151-0.527-1.595,0.057
			C68.751,52.974,68.307,52.742,67.814,52.645z"/>
	</g>
	<g>
		<path fill="#E63B3B" d="M6.273,41.248c0.713,0,1.426,0.003,2.14,0c-0.011,8.576,0.003,17.151-0.006,25.727
			c-0.003,0.53,0.063,1.054,0.135,1.578c2.057,0.498,4.798,0.209,6.055,2.277c0.255,1.02-1.051,1.521-1.813,1.836
			c-2.97,0.905-6.175,0.974-9.214,0.401c-1.312-0.246-2.83-0.59-3.569-1.822c0.08-1.349,1.644-1.773,2.721-2.088
			c1.146-0.415,2.495-0.135,3.54-0.785C6.293,59.33,6.273,50.288,6.273,41.248z M8.601,69.63c-0.043,0.501-0.074,1.005-0.106,1.507
			c-0.71,0.026-1.424,0.029-2.137,0.054c-0.08-0.455-0.172-0.911-0.272-1.363c-1.04-0.003-2.125,0.269-2.75,1.169
			c0.567,0.71,1.395,1.186,2.303,1.28c1.916,0.123,4.041,0.309,5.657-0.951C11.116,70.017,9.607,69.925,8.601,69.63z"/>
	</g>
	<g>
		<path fill="#E63B3B" d="M92.745,41.251c0.713-0.003,1.424-0.003,2.137-0.006c0,9.088,0.011,18.174-0.006,27.262
			c1.756,0.412,3.643,0.404,5.262,1.286c0.51,0.312,1.063,0.793,1.023,1.452c-0.498,0.882-1.469,1.286-2.389,1.567
			c-2.919,0.736-6.003,0.825-8.957,0.229c-1.209-0.232-2.541-0.601-3.294-1.653c-0.115-0.768,0.633-1.257,1.129-1.71
			c1.555-0.759,3.305-0.785,4.969-1.126c0.072-0.524,0.137-1.048,0.135-1.578C92.745,58.399,92.759,49.827,92.745,41.251z
			 M89.855,71.314c1.613,1.283,3.755,1.083,5.68,0.96c0.899-0.097,1.724-0.57,2.289-1.277c-0.624-0.894-1.721-1.088-2.698-1.369
			c-0.109,0.518-0.221,1.037-0.324,1.558c-0.713-0.017-1.426-0.02-2.137-0.049c-0.034-0.501-0.066-1.005-0.106-1.507
			C91.547,69.922,90.066,70.02,89.855,71.314z"/>
	</g>
	<g>
		<path fill="#E63B3B" d="M20.617,41.861c0.478,0,0.96-0.003,1.438-0.003c0.009,5.809-0.006,11.62,0.009,17.429
			c1.481,0.152,3.231,0.324,4.165,1.647c-1.229,1.53-3.383,1.409-5.147,1.538c-1.498-0.183-3.311-0.069-4.411-1.289
			c-0.02-0.132-0.066-0.395-0.089-0.527c1.04-1.063,2.632-1.2,4.03-1.383C20.617,53.47,20.608,47.664,20.617,41.861z M18.726,60.748
			c0.315,0.415,0.699,0.856,1.257,0.908c1.355,0.126,2.913,0.306,3.993-0.71c-0.464-0.576-1.157-0.791-1.853-0.928
			c-0.029,0.249-0.083,0.748-0.112,1c-0.45,0-0.899,0.003-1.346,0.006c-0.023-0.243-0.069-0.73-0.092-0.974
			C19.909,60.144,19.279,60.364,18.726,60.748z"/>
	</g>
	<g>
		<path fill="#E63B3B" d="M79.111,42.03c0.381-0.329,0.96-0.117,1.424-0.195c0.029,5.812,0.003,11.626,0.014,17.438
			c1.398,0.183,2.99,0.321,4.03,1.386c0.049,0.69-0.653,1.057-1.192,1.303c-2.271,0.659-4.709,0.647-6.986,0.04
			c-0.596-0.186-1.04-0.642-1.469-1.068c0.934-1.323,2.684-1.495,4.165-1.647C79.116,53.536,79.085,47.782,79.111,42.03z
			 M77.183,60.946c0.533,0.352,1.068,0.796,1.747,0.765c1.2,0.02,2.793,0.281,3.503-0.962c-0.553-0.384-1.186-0.604-1.847-0.699
			c-0.023,0.243-0.069,0.73-0.092,0.974c-0.45-0.003-0.899-0.006-1.346-0.009c-0.029-0.249-0.083-0.745-0.109-0.994
			C78.343,60.164,77.638,60.356,77.183,60.946z"/>
	</g>
	<path fill="#E63B3B" d="M40.257,52.344c0.805-0.407,1.813-0.103,2.695-0.186c0.037,3.4,0,6.8,0.017,10.2
		c0.112,2.386,2.73,4.357,5.038,3.443c1.438-0.43,2.251-1.825,2.569-3.208c0.312,1.713,1.656,3.314,3.48,3.397
		c2.18,0.275,4.167-1.762,4.139-3.884c0-3.314-0.014-6.631,0.006-9.945c0.888,0.072,1.893-0.221,2.701,0.183
		C68.688,59.167,76.421,66.041,84.2,72.87c1.696,1.613,3.632,2.987,5.156,4.775c-25.85,0.011-51.703,0.011-77.553,0
		c1.332-1.601,3.053-2.813,4.551-4.245C24.335,66.396,32.272,59.345,40.257,52.344z"/>
	<rect x="50.21" y="19.52" fill="#E63B3B" width="0.781" height="0.781"/>
	<rect x="50.21" y="21.705" fill="#E63B3B" width="0.781" height="0.781"/>
	<rect x="50.21" y="23.891" fill="#E63B3B" width="0.781" height="0.781"/>
</g>
</svg>
